/* XPM */
static char *wall_S1742249726[] = {
/* columns rows colors chars-per-pixel */
"64 64 64 1 ",
"  c #4992F97034CC",
". c #4B29F95E35FE",
"X c #4CD5F94B3741",
"o c #4E70F93A3877",
"O c #5010F92839B0",
"+ c #51B0F9163AEA",
"@ c #5350F9043C23",
"# c #54F0F8F13D5D",
"$ c #5690F8DF3E96",
"% c #5830F8CD3FD0",
"& c #59D0F8BB410A",
"* c #5B70F8A94243",
"= c #5D10F897437D",
"- c #5EB0F88544B6",
"; c #6050F87345F0",
": c #61F0F8614729",
"> c #6390F84E4863",
", c #6530F83D499C",
"< c #66D0F82A4AD6",
"1 c #6870F8184C0F",
"2 c #6A10F8064D49",
"3 c #6BB0F7F44E82",
"4 c #6D50F7E24FBC",
"5 c #6EF0F7D050F5",
"6 c #7090F7BE522F",
"7 c #7230F7AB5368",
"8 c #73D0F79A54A2",
"9 c #7570F78755DB",
"0 c #7711F7765715",
"q c #78B1F763584F",
"w c #7A51F7515988",
"e c #7BF1F73F5AC2",
"r c #7D91F72D5BFB",
"t c #7F31F71B5D35",
"y c #80D1F7095E6E",
"u c #8271F6F75FA8",
"i c #8411F6E460E1",
"p c #85B1F6D3621B",
"a c #8751F6C16354",
"s c #88F1F6AE648E",
"d c #8A91F69D65C7",
"f c #8C31F68A6701",
"g c #8F71F6666974",
"h c #8DD1F678683A",
"j c #9111F6546AAD",
"k c #92B1F6426BE7",
"l c #9451F6306D20",
"z c #95F1F61E6E5A",
"x c #9791F60C6F93",
"c c #9931F5FA70CD",
"v c #9AD1F5E77207",
"b c #9C71F5D67340",
"n c #9E11F5C3747A",
"m c #9FB1F5B175B3",
"M c #A151F59F76ED",
"N c #A2F1F58D7826",
"B c #A491F57B7960",
"V c #A631F5697A99",
"C c #A7D1F5577BD3",
"Z c #A971F5447D0C",
"A c #AB11F5337E46",
"S c #ACACF5217F7B",
"D c #AE58F50E80BE",
"F c #AFF0F4FD81F1",
/* pixels */
"FFFFFFFFFFFFFFFFFFFFFFFFFFFFFFFFFFFFFFFFFFFFFFFFFFFFFFFFFFFFFFFF",
"FFFSFFSFFSFFSFFSFFSFFSSFFSSFSFFSSFSFFSSFSFFSFFFFSFFSFFSFFSFFSFFS",
"SSAASSSSAASSSSAASSSSASSSSSSSSSSSSSSSSSSSSSSSAASSSSAASSSSAASSSSAA",
"AAAAAAAAAAAAAAAAAAAAAAAAAAAAAAAAAAAAAAAAAAAAAAAAAAAAAAAAAAAAAAAA",
"AAAVAAAVAAAAAAAVAVAAAAAAAAAVAAAVAAAAAAAAAVAAAAAAAAAVAAAVAAAAAAAA",
"VVAVVVAVVVVCVCCCAVVVVVVVVVAVVVAVVVVVVVVVAVVVVVVVVVAVVVAVVVVVVVVV",
"VVVVVVVVVVVVVVVVVVVVVVVVVVVVVVVVVVVVVVVVVVVVVVVVVVVVVVVVVVVVVVVV",
"VNVNVNVNVNNVNVNVNVNVNVNVVNVNVNVNNVNVNVNVNVNVNVNVVNVNVNVNNVNVNVNV",
"NNNMNNNMMNMNNNNNNNNNNNNNNNNNNNNNNNNNNNNNNNNNNNNNNNNMNNNMNNMNNNNN",
"MMMmMMMmMMMmMMMMMMMMMMMMMMMMMMMMMMMMMMMMMMMMMMMMMMMmMMMmMMMmMMMM",
"mmmmmmmmmmmmmmmmmmmmmmmmmmmmmmmmmmmmmmmmmmmmmmmmmmmmmmmmmmmmmmmm",
"mmmbmmmmmmbmmbmmbmbmmbmbbmbmbmbmbmbmbmbmbmbmbmbmmmmbmmmmmmbmmbmm",
"vvbbbbbbbbbbvvbbbbbbbbbbbbbbvbbbbbbbbbbbbbbbbbbbvvbbbbbbbbbbvvbb",
"vvvvvvvvvvvvvvvvvvvvvvvvvvvvvvvvvvvvvvvvvvvvvvvvvvvvvvvvvvvvvvvv",
"vvvvvzvvvvvzvvvvvzvvvvvzvvvvvvvvvvvvvvvvvvvvvvvvvvvvvzvvvvvzvvvv",
"zzzzvzzzzzvzzzzzvzzzzzvzzzzzzzzzzzzzzzzzzzzzzzzzzzzzvzzzzzvzzzzz",
"zzzzzzzzzzzzzzzzzzzzzzzzzzzzzzzzzzzzzzzzzzzzzzzzzzzzzzzzzzzzzzzz",
"lzlllllllllllllllllllllllllllllllllllllllllllllkzlllllllllllllll",
"kkkkkkkkkkkkkkkkkkkkkkkkkkkkkkkkkkkkkkkkkkkkkkkkkkkkkkkkkkkkkkkk",
"kgkggkgkgkgkkgkgkgkggkgkgkgkkgkggkgkgkgkgkgkgkkkgkgkkgkggkgkkgkg",
"gggfgggggggggggfgggfgggggggggggfgggggggggggggggggggggggggggggggg",
"fgfffggffffgfgfffgfffggffffgfgfffggffffgfggfffffgffffgffgffffffg",
"ffffffffffffffffffffffffffffffffffffffffffffffffffffffffffffffff",
"ffffaffffaffffffffffaffffaffffffaffffaffafffffaffffafffffffaffff",
"afaaaafaafaaaafaafaaaafaafaaaafaafafaafaaafaafafafaaafaaaaafaafa",
"aaaaaaaaaaaaaaaaaaaaaaaaaaaaaaaaaaaaaaaaaaaaaaaaaaaaaaaaaaaaaaaa",
"aaaaaaaaaaaaaaaaaaaaaaaaaaaaaaaaiaaaaaaiaaaaiaaaaiaaaiaaaaaaaaai",
"uiuuiuuuuiuuiuuuuiuuiuuuuiuuiuuuuiuuuiiuiuuiuiuuiuiiiuiuuiuuuiiu",
"uuuuuuuuuuuuuuuuuuuuuuuuuuuuuuuuuuuuuuuuuuuuuuuuuuuuuuuuuuuuuuuu",
"utuuutuuutuuutuuutuuutuuutuuutuuutuutuuttuuttutuuttuuutuutuutuut",
"tttttttttttttttttttttttttttttttttttttttttttttttttttttttttttttttt",
"eeteeeteeeteeeteeeteeeteeeteeeteeeeteteeteteteteteteeteteeetetee",
"eewweeeweewweeeweewweeeweewweeeweeweeeeeweeeeeweeeeeweeeeeweeeee",
"wwwwwwwwwwwwwwwwwwwwwwwwwwwwwwwwwwwwwwwwwwwwwwwwwwwwwwwwwwwwwwww",
"ww0www00ww0www00ww0www00ww0www00wqqqqqwqqqq0wqqqqqwqqq00wqqqqqwq",
"0000000000000000000000000000000000000000000000000000000000000000",
"0080080000800800008008000080080000000008008000000000800000000008",
"7887887878878878788788787887887877787887877877787788778877787887",
"7777777777777777777777777777777777777777777777777777777777777777",
"7575757575757575757575757575757575575757757575577575757575575757",
"5555555555555555555555555555555545555555555555555555555545555555",
"4443444443444443444344444344444344444444444433444443444344434444",
"3333333333333333333333333333333333333333333333333333333333333333",
"33<33<333<3333<333<33<333<3333<33<33<3333<3333<3333<333333<33<33",
"<3<<<<3<<<3<<3<<<3<<<<3<<<3<<3<<<<<<3<<<<<<3<<<3<<<3<3<<<<3<<<3<",
"<<<<<<<<<<<<<<<<<<<<<<<<<<<<<<<<<<<<<<<<<<<<<<<<<<<<<<<<<<<<<<<<",
"<><<<<<><<<<<><<<><<<<<><<<<<><<<<><<<><<<<<<<<<><><<>><<<<>><<>",
">:>::>>:>::>>:>>>:>::>>:>::>>:>:>>>>:>>>:>:::>::>>>:>>>>>:>>>>>>",
"::::::::::::::::::::::::::::::::::::::::::::::::::::::::::::::::",
":--:-::--:-::--::--::-:--::-:--:-:-:-:-:-:-:-:-:-::-:--::-:--::-",
"----------------------------------------------------------------",
"================================================================",
"****************************************************************",
"**$***$***$****$**$*$***$***$******$***$***$***$**$***$***$****$",
"$$$*$$*$$$*$$$$**$$$$*$$$*$$$*$$$*$$$$*$$*$$$$*$$$$*$$$*$$$*$*$$",
"$$$$$$$$$$$$$$$$$$$$$$$$$$$$$$$$$$$$$$$$$$$$$$$$$$$$$$$$$$$$$$$$",
"@$@$@$@$$$@$@$@$@@$@$@$@$@$@$@$$$@$@$@$@$@$@$@$@@$@$@$@$$@$@$@$@",
"@@@@@@@@@@@@@@@@@@@@@@@@@@@@@@@@@@@@@@@@@@@@@@@@@@@@@@@@@@@@@@@@",
"@@@o@@@oo@o@o@o@@@o@@@@@o@@@o@@o@@@@@@@@@o@@@@@@@@@o@@@o@@@@@@@@",
"oo@ooo@o@o@o@o@oo@o@ooooooo@oo@ooooooooo@ooooooooo@ooo@ooooooooo",
"ooooooooooooXoooXooooooXoooooooooooXoooooooooooooooooooooooooooo",
"XXXXX.XXXXX..XXXX.XXXXX.XXXX..XXXXX.XXXX..XXXXX.XXXXX.XXXXX.XXXX",
"................................................................",
"   .     .    ..    ..   ...    ..    ..    ..     .     .     ."
};
