/* XPM */
static char *HUD1742912846[] = {
/* columns rows colors chars-per-pixel */
"120 68 66 1 ",
"  c #000000",
". c #0B0102",
"X c #050A04",
"o c #080F06",
"O c #0B0B0B",
"+ c #091107",
"@ c #0B1509",
"# c #0E1B0B",
"$ c #101F0D",
"% c #141414",
"& c #1C1C1C",
"* c #2C0607",
"= c #370709",
"- c #3D080A",
"; c #11220E",
": c #142710",
"> c #162A11",
", c #182F14",
"< c #1B3316",
"1 c #1D3817",
"2 c #1E3B19",
"3 c #203E1A",
"4 c #232323",
"5 c #2C2C2C",
"6 c #333333",
"7 c #3C3C3C",
"8 c #45090B",
"9 c #4E0B0C",
"0 c #6B0F11",
"q c #23451D",
"w c #26491F",
"e c #274C20",
"r c #284E21",
"t c #2B5423",
"y c #2E5926",
"u c #305D27",
"i c #315F28",
"p c #34652B",
"a c #37692C",
"s c #386B2D",
"d c #434343",
"f c #4D4D4D",
"g c #535353",
"h c #5C5C5C",
"j c #636363",
"k c #6E6E6E",
"l c #737373",
"z c #7C7C7C",
"x c #8F1417",
"c c #B4191D",
"v c #B81A1E",
"b c #848484",
"n c #8C8C8C",
"m c #939393",
"M c gray61",
"N c #A3A3A3",
"B c #ACACAC",
"V c #B2B2B2",
"C c #BBBBBB",
"Z c #C3C3C3",
"A c #CCCCCC",
"S c #D3D3D3",
"D c #DCDCDC",
"F c #E3E3E3",
"G c #E9E9E9",
"H c None",
/* pixels */
"HHHHHHHHHHHHHHHHH                               HHHHHHHHHHHHH       HHHHHHH     HHHHHHHHHHHHHHHH          HHHHH     HHHH",
"HHHHHHHHHHHHHHHH                                  HHHHHHHHHHHX6dd7d5 HHHHH 47d7O HHHHHHHHHHHHHH %7d7d77d7& HH X7jkg& HHH",
"HHHHHHHHHHHHHHH                                    HHHHHHHHHHOBDDDFMXHHHH %BFDnOHHHHHHHHHHHHHHH dSDDDDDDDj H 4mDFFFZgXHH",
"HHHHHHHHHHHHHH   HHHHHHHHHH   HHHHHHHHHHHHHHHHHH   HHHHHHHHHH%VGFFFNXHHHH bFFC4 HHHHHHHH    HHH dFFFFFFFFh  %NFFFFFFDd H",
"HHHHHHHHHHHHH   HHHHHHHHH %6d4XHHHHHHHHHHHHHHHHHH   HHHHHHHHHXdjVFGNOHHH fSGDf HHHHHHHHXfmk% HH &hhhkZFFB&  hFFDbhVFFV% ",
"HHHHHHHHHHHHH   HHHHHHHH dBSDAl& HHHHHHHHHHHHHHHH   HHHHHHHHH   nFFN HH 4ZFFb    HHHHH 6SGDj HHH   XzDFV4 HONFFMO dDFDd ",
"HHHHHHHHHHHHH   HHHHHHH dAGFFFFCj% HHHHHHHHHHHHHH   HHHHHHHHHHH nGFNOH OMGFV5dd7OHHHHH dDFGz HHHHH jDFDlO  %ZFFk  &ZFFj ",
"HHHHHHHHHHHHH   HHHHHHHONFFFDFFFFN7 HHHHHHHHHHHHHH  HHHHHHHHHHH nFGNX  jDFS7dDDC% HHHH %NDZ6 HHHHH mGFFDN4 4AFFh H%CFGl ",
"HHHHHHHHHHHHH   HHHHHH 6AFDFFDFDFFAl% HHHHHHHHHHHH  HHHHHHHHHHH nGGN. 7AFFM7lDFAd4 HHHH %6& HHHHHH lCZDFFn &AFFh H%CFFl ",
"HHHHHHHHHHHHH   HHH  X&mFFFFFFFFDFDBb5 HHHHHHHHHHH  HHHHHHHHHHH nFFNX mGFFDDDFFDFMXHHHH  OX HHHH   O%&mFFZ%%CFGz  4SFFh ",
"HHHHHHHHHHHHH   HH %kNCDDFFDDFDFFFFNfnhO HHHHHHHHH  HHHHHHHHHHH nGFN. MGFFFGFFFFGNXHHHHOlCm4 HHHOh6O ObFFZ& nGFC4XlFFS5 ",
"HHHHHHHHHHHHH   H &NDFGAkAFFDFFFFFFGmdZb& HHHHHHHH  HHHHHHHHHHH nFGNO glllllNFDSbg HHH 7DFGk HH 7DSVMBDFFM  7SFFZBDFFmXH",
"HHHHHHHHHHHHH   HXbFFFFC%nFFFFDDFDVVSdzFN5 HHHHHHH  HHHHHHHHHHH nGGNX       hFGZ%  HHH 7DFFl HH nFGFFGFFC5 H kDFFGFFB4 H",
"HHHHHHHHHHHHH   H4ADDFFDhdDFDFFFFA74gd5AFZf  HHHHH  HHHHHHHHHHH kVVz HHHHHH dBVm%HHHHHHOzZM4 HH 5lBZAACb4 HH XfNAACz& HH",
"HHHHHHHHHHHHH   H%BFFFDFC6CFDFFFFDCVhX kDGShX HHHH  HHHHHHHHHHH XOOO HHHHHH XOOO HHHHHH X&O HHHH  O&44%X HHHHH O&4%  HHH",
"HHHHHHHHHHHHH   H bFFDFFDdnFFFDDDFFGDj&%zDFSk  HHH  HHHHHHHHHHHHHHHHHHHHHHHHHHHHHHHHHHHHHHHHHHHHHHHH  HHHHHHHHHHH HHHHHH",
"HHHHHHHHHHHHH     zFFFDFFzdDFFFFDFFFFVBz&zDFDlO HH  HHHHHHHHHHHHHHHHHHHHHHHHHHHHHHHHHHHHHHHHHHHHHHHHHHHHHHHHHHHHHHHHHHHH",
"HHHHHHHHHHHHH   %zZFFFDFFC6ZFDDFFFFFFDFDlOzDDDkX    HHHHHHHHHHHHHHHHHHHHHHHHHHHHHHHHHHHHHHHHHHHHHHHHHHHHHHHHHHHHHHHHHHHH",
"HHHHHHHHHHHHH  OmFFDFFFFFDdlFFDFFDVNZFFFS7OMFFDj    HHHHHHHHHHHHHHHHHHHHHHHHHHHHHHHHHHHHHHHHHHHHHHHHHHHHHHHHHHHHHHHHHHHH",
"HHHHHHHHHHHHH  gDFZhZFFDFGn5AFFFAj%O&kCDDg 6SFFSd   HHHHHHHHH                                                           ",
"HHHHHHHHHHHHH  kFFC4bFFFFFZ56hVAh     &dd% dSFFFC&  HHHHHHHHHOjklkklklklkkklkklkklkkkklkklkkkklkklklklkklkklklkkklklkld ",
"HHHHHHHHHHHHH  6SFFz6SFFDFFz  &5         OjAFDDFFk  HHHHHHHHH%ZGGGFGFGFFFGGGGFFGFGGFGGFGFGGFGGFGFGFGFGGFFGGFGFGGFGFGFGn ",
"HHHHHHHHHHHHH  %CFFA7nFDFFFA6           4MDFFFDFFn  HHHHHHHHH&ZFFFGFFFFFFFGFFFFGGFFFGFFFGFFFFFFFFFFFGFFFFGFFFFFFFFFFFGb ",
"HHHHHHHHHHHHH  6SFFFndDFDFFFB&        OOMFFDDFFFFb  HHHHHHHHH%ZGFFFFFFFFFFFFFFFFFFFFFFFFFFFFFFFFFFFFFFFFFFFFFFFFFFFFFFn ",
"HHHHHHHHHHHHH %NFFFFA6NFFDDVm5      4km7AFDFFDFDDf  HHHHHHHHH%ZFFFFFFFFFFFFFFFFFFFFFFFFFFFFFFFFFFFFFFFFFFFFDFFFFFFFFFFb ",
"HHHHHHHHHHHHH lFSbAFFjhFFDl%     O7nAFDBSFFDFFFFN%  HHHHHHHHHOdfffdggdfffgdffgdfffffdggdffdggdffgfgdffdgffffffdgffffff6 ",
"HHHHHHHHHHHHH hDZ5zFFV6VFzX   X5jNSFFFFFFDFDDFFB4   HHHHHHHHH                                                           ",
"HHHHHHHHHHHHH OMFb7SFDg5g%   5mAFFFFFDFFFDFFFFV5    HHHHHHHHHHHHHHHHHHHHHHHHHHHHHHHHHHHHHHHHHHHHHHHHHHHHHHHHHHHHHHHHHHHH",
"HHHHHHHHHHHHH  dDSdMFFVd7%  5ZGFFFFFFFDFDFFFFZ6     HHHHHHHHHHHHHHHHHHHHHHHHHHHHHHHHHHHHHHHHHHHHHHHHHHHHHHHHHHHHHHHHHHHH",
"HHHHHHHHHHHHH  OBGnhDFFDDg ONANMmnzbZFDFFFDFSg      HHHHHHHHHHHHHHHHHHHHHHHHHHHHHHHHHHHHHHHHHHHHHHHHHHHHHHHHHHHHHHHHHHHH",
"HHHHHHHHHHHHH   lFSgMFFGA5 7Bgfgggd%gDFFDFFDzX      HHHHHHHHHHHHHHHHHHHHHHHHHHHHHHHHHHHHHHHHHHHHHHHHHHHHHHHHHHHHHHHHHHHH",
"HHHHHHHHHHHHH   6AFBdMSZg  5kVCzkjg&OjkgfhkfO       HHHHHHHHHHHHHHHHHHHHHHHHHHHHHHHHHHHHHHHHHHHHHHHHHHHHHHHHHHHHHHHHHHHH",
"HHHHHHHHHHHHHH  XnFFz%64    kFDAAAAj               HHHHHHHHHHHHHHHHHHHHHHHHHHHHHHHHHHHHHHHHHHHHHHHHHHHHHHHHHHHHHHHHHHHHH",
"HHHHHHHHHHHHHHH  5ZFDh&6    gDFFFFGm               HHHHHHHHHHHHHHHHHHHHHHHHHHHHHHHHHHHHHHHHHHHHHHHHHHHHHHHHHHHHHHHHHHHHH",
"HHHHHHHHHHHHHHHH  7CFSCj    Olzlkjh7              HHHHHHHHHHHHHHHHHHHHHHHHHHHHHHHHHHHHHHHHHHHHHHHHHHHHHHHHHHHHHHHHHHHHHH",
"HHHHHHHHHHHHHHHHH  5MBgO                        HHHHHHHHHHHHHHHHHHHHHHHHHHHHHHHHHHHHHHHHHHHHHHHHHHHHHHHHHHHHHHHHHHHHHHHH",
"HHHHHHHHHHHHHHHHHHH OO      HH     HHHHHHHHHHHHHHHHHHHHHHHHHHHHHHHHHHHHHHHHHHHHHHHHHHHHHHHHHHHHHHHHHHHHHHHHHHHHHHHHHHHHH",
"HHHHHHHHHHHHHHHHHHHH      HHHHHHHHHHHHHHHHHHHHHHHHHHHHHHHHHHHHHHHHHHHHHHHHHHHHHHHHHHHHHHHHHHHHHHHHHHHHHHHHHHHHHHHHHHHHHH",
"HHHHHHHHHHHHH                                                                                                           ",
"HHHHHHHHHHHHH =8888888888888888888888888888888888888888888888888888888888888888888888888888888888888888888888888888888* ",
"HHHHHHHHHHHHH.xvcccccccccccccccccccccccccccccccccccccccccccccccccccccccccccccccccccccccccccccccccccccccccccccccccccccv0 ",
"HHHHHHHHHHHHH.xccccccccccccccccccccccccccccccccccccccccccccccccccccccccccccccccccccccccccccccccccccccccccccccccccccccc0 ",
"HHHHHHHHHHHHH.xvcccccccccccccccccccccccccccccccccccccccccccccccccccccccccccccccccccccccccccccccccccccccccccccccccccccc0 ",
"HHHHHHHHHHHHH.xvcccccccccccccccccccccccccccccccccccccccccccccccccccccccccccccccccccccccccccccccccccccccccccccccccccccv0 ",
"HHHHHHHHHHHHH -9999999999999999999999999999999999999999999999999999999999999999999999999999999999999999999999999999999* ",
"HHHHHHHHHHHHH                                                                                                           ",
"HHHHHHHHHHHHHHHHHHHHHHHHHHHHHHHHHHHHHHHHHHHHHHHHHHHHHHHHHHHHHHHHHHHHHHHHHHHHHHHHHHHHHHHHHHHHHHHHHHHHHHHHHHHHHHHHHHHHHHHH",
"HHHHHHHHHHHHHHHHHHHHHHHHHHHHHHHHHHHHHHHHHHHHHHHHHHHHHHHHHHHHHHHHHHHHHHHHHHHHHHHHHHHHHHHHHHHHHHHHHHHHHHHHHHHHHHHHHHHHHHHH",
"HHHHHHHHHHHHHHHHHHHHHHHHHHHHHHHHHHHHHHHHHHHHHHHHHHHHHHHHHHHHHHHHHHHHHHHHHHHHHHHHHHHHHHHHHHHHHHHHHHHHHHHHHHHHHHHHHHHHHHHH",
"HHHHH    HHHHHHHHHHHHHHHHHHHHHHHHHHHHHHHHHHHHHHHHHHHHHHHHHHHHHHHHHHHHHHHHHHHHHHHHHHHHHHHHHHHHHHHHHHHHHHHHHHHHHHHHHHHHHHH",
"HHHH +w3XHHHHHHHHHHHHHHHHHHHHHHHHHHHHHHHHHHHHHHHHHHHHHHHHHHHHHHHHHHHHHHHHHHHHHHHHHHHHHHHHHHHHHHHHHHHHHHHHHHHHHHHHHHHHHHH",
"HHH  $pyX  HHH   XX   HH           HHHHH      HHH          HHH   XX                HH   XX   HHHH   X   HHHHHH  XX   HHH",
"HH @3tppt3;X  +<eyyw,   #qqqqwqqq# HHHH X3qq; HH @qqqqqqw# HH X;qtytq# +qqqqqwqqw<   @<tytw>X HH #2tyt1# HHHH #qtyr>X HH",
"H ;uasspaai@ #yaaaaaaqX ;aaaaaaas> HHHH qssyX HH ;aaasaas< H +waaaaaaq #psssaasaar  #yasaaaaqX  ;iaaaaai: HH >iaaaaawX H",
" oysppapypeX qaaityaaa> $yyyypaap; HHH >pap# HHH :aaptyyy>   waaayttu# #papuupppaq  eaay1qpaa> Xyaat1eaai@  @iaauypaa1 H",
" $ppp<pt+;$  X<q# #yaa1  XXX;uap, HHH @uaa<  HHH <aa3XXXX   >aap<  X@  #asw+o<aap: Xyaa<  tas2 ;aai@ Xtaa1  2aay#X2aai+ ",
" #papwptX   H     Xyaa1 H  @taa1  HH XraaeX    H 1aaq;#X    qaae+;;+   @ty1  wastX  tapq+$yaa, ;pap@ XtaseX yaa1  @ipa; ",
" Xysaaapw>X HHHH  <app# HH 3aape$ HH 1aai#<qw; H qaaaaay2X XyaayypapqX  XX  $paa< H ;paaypaatX @pape<qpaayXXyaa,  Xyaa< ",
"H #epsaaaaeo HH  <paa2 HHH eaaaap;  #pap, ess<   waaaapaa2 Xyaapapaaaq  HH  qaayX H >paapaaat+  <paaaappsyX@iaa: HXyaa< ",
"H  X#qaaaasq H  1paa2  HH  $,1yaae Xyaapqqiaayq+ #:::,taap@Xyaai>#2pap# HH @iaa3 H @ipaq;:taaq   :tyyqtaae Xyaa,  Xyaa< ",
"H XX @pytastX  3pap<          1aayX@paaasaaaaaa; X    ;pap# eaaw  +uap; HH <spp# H :aai+  <asyX    XXXyaa2  eaaq  #pap; ",
"H qr>>pytasw X3apat>::$ Xt3;@;taay #yupyiipaapu# qq:##waai+ <aay# >pap# H Xyaaw HH :app: XqaayX X,#@$raap#  <aap<;eastX ",
" #paappapap; >aaaaapaatX<aaappaaa,  ooooo@yaa1o #aaappapa3  Xysautpaaw HH >aap; HH Xysapttaaa1  >pappssp< H Xtaaapaap> H",
" @rpaaaaay<  >aaapaaaayX<iaaaaap1  H     Xeas,  :ypaaaapqX H @epaaaawX HHXesatX HHH @epasaap2X  qaaaaay,  HH @eaasau< HH",
"H  #,qpu<@   +::::::::;  +:<q1,@  HHHHHHH ;::@   X;<22<#  HHH X;<q<;  HH X:::# HHHHH X;<31,@  H X:131>o  HHHH X;13<@  HH",
"HHH  #py  HHH           H       HHHHHHHHH     HHH       HHHHHHH     HHHHH     HHHHHHHH      HHHH       HHHHHHH      HHHH",
"HHHH X>: HHHHHHHHHHHHHHHHHHHHHHHHHHHHHHHHHHHHHHHHHHHHHHHHHHHHHHHHHHHHHHHHHHHHHHHHHHHHHHHHHHHHHHHHHHHHHHHHHHHHHHHHHHHHHHH",
"HHHHH    HHHHHHHHHHHHHHHHHHHHHHHHHHHHHHHHHHHHHHHHHHHHHHHHHHHHHHHHHHHHHHHHHHHHHHHHHHHHHHHHHHHHHHHHHHHHHHHHHHHHHHHHHHHHHHH"
};
