/* XPM */
static char *Wall_W1742916712[] = {
/* columns rows colors chars-per-pixel */
"64 64 170 2 ",
"   c #040404",
".  c #070807",
"X  c #080807",
"o  c #070709",
"O  c #0A0A0A",
"+  c #16130D",
"@  c #111110",
"#  c #1E1C16",
"$  c #1B1C19",
"%  c #141B1A",
"&  c #211C14",
"*  c #17201E",
"=  c #1C221D",
"-  c #25241B",
";  c #2C2B1D",
":  c #332C1D",
">  c #131F20",
",  c #152223",
"<  c #2B2B24",
"1  c #2A2C28",
"2  c #302F25",
"3  c #2F3026",
"4  c #2D3029",
"5  c #34332C",
"6  c #3A362E",
"7  c #37382E",
"8  c #3D392F",
"9  c #313225",
"0  c #363531",
"q  c #393533",
"w  c #363A32",
"e  c #3B3C34",
"r  c #3D3D39",
"t  c #413E36",
"y  c #413E3A",
"u  c #3E4236",
"i  c #3E423A",
"p  c #424036",
"a  c #44433B",
"s  c #4A463D",
"d  c #4B493E",
"f  c #44493C",
"g  c #3C4643",
"h  c #3A4847",
"j  c #444641",
"k  c #494641",
"l  c #464943",
"z  c #4C4C44",
"x  c #4C4D4A",
"c  c #524D44",
"v  c #524F49",
"b  c #4E5146",
"n  c #4F5249",
"m  c #535246",
"M  c #54534B",
"N  c #5A554C",
"B  c #56594F",
"V  c #5B594D",
"C  c #4E5550",
"Z  c #565651",
"A  c #595651",
"S  c #565953",
"D  c #5C5B53",
"F  c #5C5D5A",
"G  c #635B47",
"H  c #615A4C",
"J  c #625E55",
"K  c #615F5A",
"L  c #5F6156",
"P  c #5E615A",
"I  c #636256",
"U  c #64635B",
"Y  c #69665C",
"T  c #6B6A5E",
"R  c #65695F",
"E  c #70685B",
"W  c #5F6A66",
"Q  c #646562",
"!  c #6A6663",
"~  c #666963",
"^  c #6C6B63",
"/  c #676768",
"(  c #6D6C6B",
")  c #716D64",
"_  c #726F6C",
"`  c #796F64",
"'  c #6E716C",
"]  c #737166",
"[  c #787165",
"{  c #74726B",
"}  c #7A756C",
"|  c #7B796D",
" . c #6E7072",
".. c #747473",
"X. c #797673",
"o. c #767972",
"O. c #7C7A74",
"+. c #7A7779",
"@. c #77797A",
"#. c #7C7B7B",
"$. c #74747A",
"%. c #817D74",
"&. c #827E7B",
"*. c #7F817C",
"=. c #858076",
"-. c #8A8477",
";. c #84827D",
":. c #89847D",
">. c #918C7F",
",. c #7D7E80",
"<. c #817E80",
"1. c #7E8181",
"2. c #848484",
"3. c #8A8683",
"4. c #868885",
"5. c #8C8A85",
"6. c #858589",
"7. c #898689",
"8. c #87898B",
"9. c #8C8B8B",
"0. c #918C87",
"q. c #928D8C",
"w. c #8F908D",
"e. c #93918D",
"r. c #98928E",
"t. c #8E8D91",
"y. c #928E92",
"u. c #8D9092",
"i. c #949393",
"p. c #9A9594",
"a. c #979996",
"s. c #9C9996",
"d. c #969499",
"f. c #999699",
"g. c #969899",
"h. c #9C9B9B",
"j. c #A19B97",
"k. c #A29D9C",
"l. c #9EA09D",
"z. c #A4A19E",
"x. c #A9A39E",
"c. c #9E9CA1",
"v. c #A19EA2",
"b. c #A29FA9",
"n. c #9EA1A1",
"m. c #A4A3A3",
"M. c #AAA5A4",
"N. c #A7A8A5",
"B. c #ACA9A6",
"V. c #A5A4A9",
"C. c #AAA6A9",
"Z. c #A6AAAC",
"A. c #ADABAB",
"S. c #B1ABA6",
"D. c #B1ADAC",
"F. c #AFB1AD",
"G. c #B4B1AE",
"H. c #B9B2AF",
"J. c #ADADB0",
"K. c #B1AEB0",
"L. c #AFB1B2",
"P. c #B5B2B2",
"I. c #BAB5B3",
"U. c #BDB8B6",
"Y. c #B8B7B8",
"T. c #B7B8BA",
"R. c #BCB9BA",
"E. c #C0B6B5",
"W. c #C2BEBD",
"Q. c #C2BEC0",
/* pixels */
"@ @ O X X X     X X O O . . O O o     X X X         X X O @ O     X X X     X X                               O o   X o O O X X ",
"c b w # 6 p 8 < < 5 p r p e r r 0 < < q w 0 2 4 5 4 & $ u a 5 7 7 u r 7 p r Z l w i a l j j n i l r j M f u j ~ S k z f k a f 8 ",
"5 9 7 q x r a B M x 9 p I F A a 0 x q q r y q < 5 6 q < 2 - i a 7 B n B I z U M b f a z M M B S ~ / w n k M L ^ I I ] A Q m p B ",
"k M d a k a a z b l s k U U A k k x j v Z x y 4 q t e q d p a r 3 B z a p 9 u 4 e u l x l g M D T M w x e i u a s p m z ^ z t z ",
"^ { J d I ^ I L Y D ^ K U U ( ^ x M M Q ! F x a A K s a I Y k p u S m a d p f l i S R U U P T L U L ^ T b f p A z z c B Y B b d ",
"M I m N Y m B U ^ ! U N ^ ~ U k 6 v A A v v v k s d N y m c z c a n z M c p c B A b b B T S z M L P V V b R ~ I m z J J A b M D ",
"I I M V Y J U ^ U Y | ) } _ / A y A K K Q _ / A k N B a M m N D m z N I I V A N J S B I T ~ D R ^ ^ I U D { T U I T ^ ^ D M U R ",
"^ ) I K U } O.^ F ^ [ ( ( K ! ] N K ! _ ! ! A K Y K Z c K K K D M D Q v U Y U A b D P U R P ~ T P R ^ %.^ U J ^ | { U U { U L ^ ",
"J K m B J A U X.{ ^ N z m J N z t v N J v A F A v M v l d N A B d U Y V n z b d n B M B R L n l D U D B V V B n N D D [ } L B ! ",
"{ X.` [ } D ] } { } ` D ^ #.Y J v I K U A ^  .K B A ^ U E Y ^ Y D T I ) Y m U L { R ^ ^ ' ^ ^ ' | ] ] ] Y =.] ~ Y Y | } ) ) E O.",
"O.7.#.( ' _ #.....&.u.2.;.9.+.2. .( X.+... ./ / ( K ! K &.+.D / ../ +.{ ( ( ....@. .6.6.@...7.8.*.7.8.6.#.2.1.1.X.#.X.3.2.o.#.! ",
"e.h.c.h.h.i.l.i.g.y.y.9.9.8.d.t.1.9.6.7.y.t.t.7.9.2.d.7.r.0.X.u.i.i.i.9.6.9.u.e.w.1.h.w.i.g.h.w.h.Z.Z.A.g.w.l.l.f.i.a.n.m.c.m.q.",
"9.v.h.m.h.q.i.m.m.i.i.4.y.g.h.f.d.y.7.7.7.7.t.2.6.2.i.i.y.7.6.i.t.w.w.a.i.8.8.u.g.*.9.g.g.9.a.9.l.Z.N.N.4.s.m.g.g.n.N.g.c.g.n.m.",
"i.v.9.l.p.s.m.h.M.i.h.q.h.i.i.k.v.g.9.t.9.t.t.9.u.2.i.2.3.w.4.2.4.a.w.0.i.9.w.a.8.4.n.g.4.5.f.a.i.m.N.Z.p.5.l.l.h.l.l.a.N.m.5.a.",
"e.9.5.5.;.9.w.i.f.i.h.k.x.v.v.h.q.9.g.y.d.y.y.7.2.+.+.%.;.=.#.<.2.i.0.w.a.i.g.f.i.a.l.i.m.a.a.f.i.Z.l.a.N.z.N.N.A.m.m.s.z.a.9.4.",
"p.q.i.h.i.2.9.a.m.f.h.z.m.m.v.f.y.f.c.i.d.d.f.2.@.&.9.7.#.3.w.i.9.w.@.a.N.k.f.f.a.m.m.m.Z.f.a.h.z.F.N.l.A.A.m.N.M.J.P.w.u.l.m.h.",
"f.a.M.m.l.N.A.l.m.p.s.p.q.s.f.i.f.j.i.i.i.i.t.2.d.9.q.h.9.9.3.9.4.f.3.5.m.m.k.a.i.l.m.N.n.a.l.a.a.F.a.N.h.N.l.M.F.G.A.4.N.a.p.g.",
"z.x.z.l.h.s.s.s.k.k.z.k.k.s.f.h.f.h.f.i.i.t.7.2.0.7.0.q.p.p.e.3.;.i.e.i.h.k.f.l.l.n.N.N.A.h.Z.M.l.Z.N.A.A.A.A.A.A.A.N.s.N.h.9.k.",
"5.a.l.M.j.q.5.0.p.j.a.k.M.m.0.q.g.h.f.d.i.i.y.2.<.0.p.i.9.:.3.5.#.w.O.i.V.v.a.k.h.M.A.L.Z.m.z.h.A.F.M.x.B.G.B.B.m.G.P.9.s.w.0.h.",
"0.z.M.F.M.h.B.N.B.m.M.V.h.p.h.f.i.g.d.v.d.8.y.d.i.q.j.p.s.4.2.a.;.6.i.x.k.e.e.z.m.l.N.a.s.h.h.h.a.M.N.M.D.D.D.B.s.N.G.A.a.w.z.z.",
"G.G.A.P.D.A.K.K.A.m.A.m.s.v.m.v.f.v.f.v.d.<.y.g.f.f.m.v.z.m.h.m.a.h.m.j.N.s.a.z.l.z.m.4.a.h.m.m.N.A.J.L.F.A.G.S.N.D.G.S.F.M.A.G.",
"B.x.N.P.I.I.K.J.P.m.j.p.h.h.q.v.v.f.v.v.g.d.d.9.h.m.B.k.p.s.M.M.N.M.s.p.k.h.z.s.k.h.l.z.m.a.l.Z.m.A.F.G.A.N.N.N.S.B.N.x.G.P.G.Y.",
"M.G.P.G.P.P.C.A.A.h.m.m.k.M.v.m.m.v.j.f.j.f.f.i.k.v.m.M.m.j.s.z.N.s.q.p.z.s.j.h.N.m.M.A.F.z.h.Z.F.F.A.N.m.F.A.B.x.S.G.s.N.A.P.B.",
"M.P.M.A.Y.Y.A.m.v.h.D.m.h.v.v.C.k.k.v.f.c.d.i.i.k.v.m.a.m.z.i.z.m.f.a.r.z.s.k.k.m.m.A.N.N.z.l.A.A.G.F.G.m.A.D.A.B.B.B.k.A.Z.P.B.",
"M.D.A.G.N.N.M.G.A.A.K.J.H.D.C.v.V.v.f.v.y.y.y.7.i.d.k.k.z.j.q.q.q.i.r.e.r.r.h.z.m.M.A.J.P.Y.Y.P.P.W.P.G.H.A.A.A.N.x.z.z.x.z.s.a.",
"l.A.D.A.F.B.G.A.D.J.A.V.v.b.b.m.M.v.j.f.f.f.y.y.d.p.f.k.k.p.i.h.z.j.p.p.k.s.j.z.A.M.Z.F.A.m.A.G.F.P.F.G.I.Y.G.B.B.S.M.m.N.S.S.N.",
"m.F.B.M.x.B.A.h.k.v.m.V.k.j.f.C.v.k.b.V.v.j.p.f.f.i.a.s.k.h.i.p.s.m.s.j.z.s.z.z.m.m.A.A.n.i.m.A.l.N.A.I.B.F.G.D.N.N.A.N.A.F.M.B.",
"z.x.D.A.B.S.D.m.C.A.C.m.b.m.b.V.v.c.v.b.b.f.i.f.j.k.h.k.j.i.p.j.s.m.M.m.m.m.h.z.N.N.V.A.m.Z.P.L.Z.N.Z.A.A.P.P.A.G.H.G.I.G.A.M.B.",
"l.x.B.A.A.A.C.M.D.K.A.v.m.m.v.v.v.c.c.h.h.d.d.d.f.p.k.k.d.q.k.k.s.k.h.m.m.k.h.z.m.m.v.m.A.A.P.Z.A.P.A.V.B.G.D.M.A.D.P.D.D.A.A.D.",
"x.B.D.G.N.A.B.z.A.m.B.m.k.v.h.v.c.f.y.d.d.t.i.d.k.p.h.v.k.p.p.j.h.m.k.z.h.h.k.N.N.N.A.A.I.P.P.G.D.D.A.Z.N.F.D.G.A.A.F.A.G.F.B.B.",
"N.S.G.A.M.D.D.z.M.D.G.K.v.v.m.C.V.v.v.v.c.d.y.d.h.f.h.k.x.j.p.x.k.N.m.x.m.z.k.k.M.N.M.M.A.D.P.U.K.P.A.Z.m.F.A.A.G.G.P.G.G.D.S.G.",
"x.B.A.I.K.D.A.A.A.D.A.C.C.C.V.C.C.C.b.m.V.c.c.c.k.c.v.m.k.p.k.M.k.k.M.M.M.m.k.N.A.N.A.A.K.K.D.J.P.I.A.K.G.R.I.M.G.G.U.H.H.S.G.G.",
"B.S.P.R.P.Y.Y.P.K.I.K.C.S.b.v.v.v.J.V.v.b.c.c.f.m.m.C.S.x.j.x.v.k.k.x.M.k.z.s.s.A.N.D.P.F.A.H.P.P.P.m.P.N.G.G.z.A.A.G.H.G.D.D.P.",
"G.I.R.R.U.Y.K.Y.I.K.K.K.S.B.C.C.V.m.v.b.b.b.v.v.C.C.C.K.D.x.b.M.k.M.x.S.x.k.k.k.l.N.M.A.A.A.I.I.P.F.A.P.N.B.M.D.S.D.H.I.H.G.S.G.",
"P.R.W.W.R.I.Y.T.K.C.K.K.C.K.C.C.v.b.v.v.f.v.v.c.b.M.D.K.K.C.C.x.j.M.x.S.H.B.S.k.x.N.N.G.G.P.P.G.P.P.H.S.B.H.M.G.U.E.W.H.U.S.B.P.",
"I.R.G.Y.Y.R.R.D.K.K.A.b.S.b.m.v.f.v.v.c.d.c.d.c.m.m.M.b.C.S.M.M.k.x.z.k.x.x.x.M.M.M.N.B.G.D.A.P.F.F.H.S.H.H.I.G.G.G.H.S.S.G.H.I.",
"W.U.I.R.K.I.Y.A.K.D.I.D.v.C.C.b.c.v.m.c.f.c.d.c.v.v.C.A.D.D.M.M.M.B.x.x.M.M.x.M.z.m.F.A.D.P.P.P.F.F.P.G.H.F.H.I.S.I.P.D.I.I.G.I.",
"H.I.R.W.Y.Y.Y.Y.K.K.H.C.C.J.m.m.v.V.b.v.v.d.f.v.m.m.C.K.B.M.M.M.x.B.x.N.x.x.B.B.M.M.m.N.P.P.D.A.G.D.G.x.D.P.H.I.G.H.H.H.U.H.D.U.",
"H.P.R.Y.P.T.K.Y.I.K.B.S.K.C.C.c.f.v.v.v.f.v.v.c.v.b.b.S.B.M.C.S.M.M.x.B.N.x.N.B.B.M.B.G.P.K.A.M.P.D.A.Z.H.U.Y.U.G.U.U.H.P.I.E.E.",
"E.U.A.M.D.J.K.I.Y.K.K.K.K.J.V.v.b.v.d.d.c.d.f.v.k.j.v.d.C.S.M.S.D.S.B.x.x.B.B.S.M.A.P.A.D.F.Y.P.A.G.P.P.U.H.I.U.H.H.G.P.E.E.U.U.",
"K.E.S.x.m.D.K.P.Y.D.A.C.B.V.C.v.c.d.d.d.j.d.c.d.c.p.p.i.m.m.M.S.B.M.M.S.S.S.S.A.M.A.J.P.G.P.Y.P.A.A.A.D.U.P.P.U.U.U.U.I.I.H.I.I.",
"m.S.K.D.S.S.v.m.M.m.C.C.A.C.b.v.v.f.p.d.y.d.d.y.f.k.h.v.v.h.j.B.M.k.x.M.B.M.m.k.p.k.m.n.A.P.A.G.D.D.A.z.Z.m.M.G.H.I.P.H.H.G.U.H.",
"S.m.C.D.D.C.p.k.v.m.C.K.D.m.V.C.v.f.q.y.d.y.y.t.d.h.k.h.f.k.r.x.k.M.M.k.M.S.x.p.i.h.l.a.V.D.F.P.D.D.A.N.M.l.j.A.I.H.G.H.I.G.H.x.",
"H.A.D.K.S.B.M.x.B.C.C.C.A.V.C.C.b.m.f.d.d.f.f.0.f.f.v.v.k.k.k.s.k.M.M.B.M.B.k.0.e.h.m.V.l.a.r.z.G.G.F.A.A.A.s.z.P.Y.Y.P.H.H.B.x.",
"A.A.C.D.A.C.k.k.k.m.k.C.D.C.b.v.v.c.y.d.d.d.y.y.i.f.k.k.f.c.v.v.v.k.m.m.v.j.i.0.p.h.z.V.m.m.j.m.V.m.z.z.B.M.h.s.M.B.P.P.G.B.G.G.",
"D.A.K.D.D.C.C.j.p.B.v.j.v.v.v.b.d.y.y.y.y.y.y.y.f.h.m.k.v.k.j.k.k.k.j.x.k.q.3.q.f.j.M.A.Z.M.N.B.m.s.x.x.M.z.h.r.j.M.P.S.D.S.A.A.",
"v.m.B.C.D.C.b.k.v.v.j.p.j.b.j.y.y.y.y.y.y.y.y.y.f.f.k.p.p.e.r.v.M.M.M.p.p.q.e.q.3.j.A.A.A.F.D.M.z.l.5.:.j.r.3.z.h.k.x.B.U.P.P.M.",
"r.j.k.m.C.k.p.k.v.f.j.k.j.i.y.0.<.<.y.y.7.q.7.<.9.d.p.y.q.>.r.m.v.M.k.j.j.i.0.O.5.i.f.n.l.a.k.e.e.O.O.=.r.r.3.0.k.x.N.M.H.D.D.D.",
"Y >.^ #.+.<.&.%.%.&.&._ %.%.! / ! U N J ..../ _ ! ! ( ^ ) } a s _ O.K Y ! K Y ^ ~ ~ { ' Q S ) Y Y Q P o.] } | } ) ( } ^ } :.^ k ",
"r.3.j.k.p.v.x.p.0.x.v.j.j.r.p.y.r.r.;.:.{ 6.9.q.7.q.q.q.5.O.3.%.q.p.3.q.q.:.e.3.w.i.g.f.h.i.i.m.s.l.a.z.z.l.9.s.s.e.M.p.x.m.p.>.",
"k.p.m.m.v.j.k.j.r.j.j.j.f.r.r.p.p.i.e.7.<.#.2.7.4.q.y.i.q.5.j.i.i.p.q.r.q.0.4.*.4.9.u.g.h.0.4.a.e.s.p.h.z.s.9.q.s.s.z.j.m.x.z.B.",
"k.j.s.f.d.j.j.k.0.q.p.p.f.d.y.r.y.y.0.6.+.#.o.<.2.7.7.9.3.q.r.q.7.9.3.q.e.2.:.e.5.8.9.u.s.l.i.8.e.a.e.i.f.w.l.h.0.j.k.p.d.j.d.k.",
"( 2.u.a.s.p.j.j.p.r.j.p.p.f.r.y.q.q.2.#.+.,.<.<.&.7.7.3.2.~ X.q.3.q.q.,.@.#.;.6.4.5.9.7.i.u.M ;.e.w.9.r.a.w.w.e.9.9.7.p.k.j.d.j.",
"i ;.e.j.k.i.j.j.<.%.&.<.<.r.f.<.7.7.,.+.#.#.&.2.+.;.q.2.#.z A p.q.2.<.9.1.@...6.2.5.u.w.~ d ) k.4.e.9.a.s.e.e.2.1.9.f.g.9.p.k.i.",
"V %.s.p.p.&.0.%.%.%.%.%.<.0.<.<.2.<... .( _ _ { { X.3.3.:.m ( r.7.2.2.t.6.,.@.2.1.6.a.e.*.U [ i.9.i.s.e.e.9.7.9.2.t.d.g.y.i.j.j.",
"J -.j.0.&.[ %.%.%.<.y.0.%.0.p.r.7.2.#.....#.+.+.{ ^ %.3.0.G ! 2.2.<.2.<.#...*.4.4.9.i.i.a.*.{ e.i.a.z.a.i.i.i.i.8.1.y.y.y.q.y.7.",
"G -.q.q.q.3.3.2.<.j.q.<.<.<.r.<.3.+.X.+.#.<.&.+.+.+.3.%.&.H z @.3.&.6.,.#.,.7.9.4.4.9.i.i.a.;.{ f.a.h.l.w.i.i.h.i.4.9.t.i.y.i.( ",
"G -.e.3.3.3.q.0.&.r.y.q.j.p.p.q.2.2.&...+.<.+.<.<.X.X.%.=.G l #.7.6.+.+...8.9.1.9.9.u.i.i.a.=.V a.k.A.z.i.i.d.u.h.5.8.2.9.i.d.' ",
"v q.p.r.0.3.3.0.0.0.q.0.r.%.%.<.7.3.<.$.&.<.+.+.X.#.&.3.0.J F 2.2.<.#.+.6.1.1.6.9.9.5.w.i.i.e.;.i.x.A.f.9.g.g.9.r.i.9.4.9.i.i.6.",
") &.y.5.;.3.` %.0.0.<.<.<.&.E ! #.<.<.X...+.+._ _ X.O.<.<.J ( &.3.<.7.#.@.' *.#.4.*.*.5.e.:.>.6.9.a.z.w.U i.9.9.4.*.7.e.i.i.i.2.",
"&.&.2.:.| :.3.%.<.<.<.+.%.%.&.J Y I J Q F .._ _ O.( _ X.X._ #.2.3.#.+.&...{ ;.*.X.O.' ] ] *.O.*.5.O.5.=.[ :.5.e.8.O.5.4.2.q.y.9.",
":.-.%.%.%.&.3.%.%.%.%.O.%.+.` _ D H H N ( .._ _ ..` ] ) { ..X...#.X...;.^ T #.=.[ O.#.*.=.*.*.5.:.:.=.;.0.=.5.e.=.] >.q.&.0.7.:.",
"^ ~ { O.X.^ ` ) N N N Y _ ../ K D A s t c c k H N F ^ Y I D U U T ^ ^ _ E J { } { { ' o.' I ) ^ { *.%.O.&.%.-.>.| T %.O.| | | ) ",
"4 < < 6 t 5 2 2 2 & : : 5 0 > > % % > # & & + # # 1 5 - - = < 5 a e 4 e 2 < e r 7 7 7 u h h h l n k u a a t c z e 5 a t r M s 8 "
};
