/* XPM */
static char *Wall_E1742917001[] = {
/* columns rows colors chars-per-pixel */
"64 64 49 1 ",
"  c #524E4C",
". c #55514E",
"X c #565250",
"o c #5A5654",
"O c #5D5957",
"+ c #595758",
"@ c #5E5B5A",
"# c #615D5D",
"$ c #64615E",
"% c #5F5E60",
"& c #615F60",
"* c #656363",
"= c #696664",
"- c #6A6966",
"; c #676668",
": c #696769",
"> c #6D6C6B",
", c #706E6D",
"< c #72716E",
"1 c #6F6E71",
"2 c #716F71",
"3 c #747373",
"4 c #787674",
"5 c #7A7976",
"6 c #767679",
"7 c #797779",
"8 c #7C7B7B",
"9 c #807F7C",
"0 c #7F807B",
"q c #82817E",
"w c #7E7D81",
"e c #807F83",
"r c #848483",
"t c #888785",
"y c #8A8986",
"u c #868689",
"i c #898788",
"p c #8C8B8A",
"a c #908F8D",
"s c #8F908B",
"d c #91918E",
"f c #8E8E91",
"g c #908F93",
"h c #949493",
"j c #989896",
"k c #96959A",
"l c #98979C",
"z c #99999D",
"x c #9C9BA0",
/* pixels */
"irrupururrryyyyyassaaaddaadjhhhjjjjhjjjjjjjjzzzzzzzzxkxxxkkkxxxg",
"irrurrrrtrqryiyrqsyaddddaaddhdhhjhjhjjjjhhdhjzkkzzzzkxkxxxxkkxxk",
"rrrriqrirr0rrttysaaaddjddaddhhhhhjhjjjjjhhhhjjkjkkllkkkxkxxkkkgg",
"rqrrqr8qq00rrrryqaqaadddddddhhdhhhhjhjjhhhhjhjjhkkkkkkkkkkkkgxgg",
"00qqqqq8qqqrrtrtqaaaaahajaadhhhhhhjjjjjjdhhhhkhggjhhhhghgkggkkgf",
"888qqqq0rqqqqqqqqaqaasahdaadhddhhhhhjdjhdhhhhhhagggghgffwgeffggu",
"58888qqqqqqqqrqraqsaqaaadaddahshhshdhhsjsdhdahhhkhggfppffwefufuu",
"3588588qqqqrtttpqaadqaaaaadjhashhsssshdsyaappdhghgggffuuegfuwuuw",
",99944<98rtqyyypyaapyyqaddhhhdhhhdjsaaaaaaaaapaafpufuppuegfuwwww",
"9,94<4995qrrypyayapyyppadshdaassdshqya9pasaqpaaafffupuppwfuuwwww",
"999<,99849qtyyyaaaaapppassdddddahasqasyaaa9yyysaufppuuuuguuuwwww",
"9994=48458qryrtyyyyapsppasadhdhdaqsasaysqqqyyqqdfuuuuurufwwwwwww",
"99993494599qtqryypyyyaaypysaddddaqqaqs99qq9qqqqduuuuurr0wuwwwwww",
"299e77e85889qqtpppyyyyaapaasddhdhqaaq999sq99qqqquuuuuue0wuuuwwfw",
"299e86885898qqtyayytyaayypyaddddaqqqsq9qqq9,99qquttuuuwwwuwwfeww",
"e99983355qq9qrtyyy9yyya9ayyypapyaqqq9q999q9999qqpuppuuwwwufwwwww",
"43<94,:99999999999e9eje9dqtypdtyqqqqqqqqq5555qruyyyyu0r0uwwwuwwe",
"2>,992=9$999999999e9eeeerrtypyyyqqqqqqqqq9558qppuyyyruu00uw00www",
"2:,49>9,$999999999999jj99yrptqttqqqqqqqqqq88qruytuuu0uu00wuwwuw6",
"9:,4,99,9#9999X999999e99qtrq99qqqqqqqqjqqqqqrrttruuruw0uwuu0wwww",
"9,==,99$=99=<,,49999999eqqq55q54qqq<qjqqqqqqttruuuurr0u0uuuwww6w",
",,=99,9=9==9,,<99d9d999et9r8qq74qqqqqqqqqqqqtyuutuyuuu0uuuwww66w",
",,,>9=9$99,9999999999999tq999943<<qqqqqqqqqq0tewtuyyru0u0wwwwwww",
">9===999999999q999999999tr584,<,<<qqqqqqqq<q0ee80uyur00u00w6wuww",
"99,&>78e99988qqy9999999999997497qq5qqq<q<0<0000weueuuu6010wwwwww",
"9272,3387775qrtqd999999999ye9999qq500<<<0-<0036w0000ww6110666w0w",
"779422297759qqrq99999999qp999999q0<<<<<<<00<3300000e000106616106",
"73732228459rtrrq9999=99999e97949q<5<5<<<-0-<000000www00001016106",
"223>:324558qyrtt99999999999999490<<0<<<-0-<<00ww116ww6ww66016116",
"32>;;>235449rtrr999999999999994900<0<<<<<---0ww60110w606w6111016",
"72>;;>>2<<489qqr99999999999999<9<<<<<<0<--;1100110101w006w611161",
"2:;*;=>3-<884<5y9999999999=99=<<<<<-<00<01-11006610101000w106666",
"11;;;;11160000005r89pq800q5404<4<00<<<<<<-<<0<<<<<<0665580633166",
"11111111-16000005q8qrrrq0q03403<<0<-$<<<<$-<0<<<<<<<685686031311",
"61011;10;16www03q88rq8t00r03050<<<<<<-<<<<<<55<-<<<<300588633331",
"11111;;1;;0u0003qqqqq8q58003443-<--<<$-0-$<<<<<<9<q<335566313666",
"11101;;;-;0006w69q58q88554330<<<<$$<-$<0-<<05<<5-qq<<<0501111366",
"1111111111100006453400556,45<<<<<-$<-$<<5<<<555<q--9<q4011-;1366",
"111116111160w00143<5544,<-<5<<<<<<---<<<055<555<9$9-<<<<1-111666",
"11111106;11601>05458<,3*-,63--0-<0<-<<<<5<055<<099-9<--<-1;11166",
"11101116-100w1>168885,$--<<<<<<0<<$<<<000<0000<05553,,,---;>>133",
"111111;11-10001165053,->---<<<-<<<<<<<<<0<00000<563,->---->;1133",
"660w61111010061>655<--$<-<<>---<<<<<<<<<<0<00<0<3<3,---=;-->1116",
"11113161111111>1353---$--<-----<<<<<<<<<<<000<<<<<<----=--1>>136",
"3161131>10110>>>1<<-$-$-*--$-,<4<<<<<<0<0<<0<<<<<,>>>>>>::>>1333",
"6631131>13101010<0<--$$O$=*&-,44<<0<<0<<<<<0<<<<,,>>-<<->>>>>123",
"1631,6313316063330<-==$$$-**:463<<0<00<<<<<<<<<<,---:>,-:>>>1133",
"661;>11131116031>30<<<0<==**>544<<<00<<<<<<0<<<<>---=-=*=:>12263",
"1661:>1>2>239e2336556332,-*<4288<9<99<,9,,=99$O9$-$->-$--->>1166",
";1611>>>2222773465863327,,,33,479<9<99<,,=,9$9$O-$$$-$---->13316",
";1111>>>122377233687633335443,4899<9,<9-,,,,$=$9=--$---$->>,1111",
";1111>::>23237,2658773734894<359<99<99,9,=$9==O9=---->$--->11161",
">11>>;;:,22>:2,48863338w59943358999<99=9,$$=o$9$$$$$-=$$::;11166",
"111;1>>>::,&:2237566377888e4<445<<9<9=,-9#==9#..$$$$$$$$;;&1:111",
"131>>;;1&22::2>223777756879334<4<9<<=9$99$==9o##O$$$$$$$&&%&;111",
"11111;;;,,2&&,:23333376w3387<3,49-9<9$9=O#O9$##OO$$$O$O$*#%%1111",
"2:::2:&=:2:&&:2:>373386638434422-9<<<<<-$==9###Oo#o####&###*:222",
"::::2:==:,,:22,:>>63371w443357339-<-<-<-=#==$##Oo###o###*&#&:,1:",
";:::::==&2:,,2:,>:66266643234327-<--=,--=9=$####oO#ooo##*###;;>:",
"&;***::=:&&:&&:&-;363366632,2,239<<-$-<-$9==$$#O.O#ooooo$###&;;1",
";;&&:::=::&&&&&:;*16616133>>>272343:-,--====$##OXXoo+o#o###&;&;2",
"%;&&&&&::&&&:&:&%%*36666->:;;37232>>,-,,===$##OOO...X+o+O+#&&;&;",
"%%%&&&&=&&&&::::%@@16161>;:>>272,>:::======$$#OXo.. XXo#OO#&&;>;",
"%%%%&&#&&&##&&,,@@+;63661;>622632**===*=$$==$#OX..   XX+OO&&;>>;"
};
