/* XPM */
static char *wall_N1742331679[] = {
/* columns rows colors chars-per-pixel */
"64 64 225 2 ",
"   c #050406",
".  c #1A151B",
"X  c #21211F",
"o  c #171E2D",
"O  c #1E212B",
"+  c #242225",
"@  c #272429",
"#  c #2A2B35",
"$  c #312C31",
"%  c #2C333E",
"&  c #38353A",
"*  c #302F2D",
"=  c #483C3C",
"-  c #4C413F",
";  c #3A3B43",
":  c #363A4B",
">  c #373E52",
",  c #28364F",
"<  c #413D45",
"1  c #3D4147",
"2  c #3B4356",
"3  c #384C6B",
"4  c #454045",
"5  c #4A4244",
"6  c #44434B",
"7  c #4B464B",
"8  c #4E4A4C",
"9  c #4E4A44",
"0  c #554C4D",
"q  c #4D4B54",
"w  c #43455B",
"e  c #444B5B",
"r  c #4B4D5C",
"t  c #434552",
"y  c #544D53",
"u  c #574E53",
"i  c #4D515C",
"p  c #4D5057",
"a  c #5B5355",
"s  c #52535C",
"d  c #5B555A",
"f  c #5D595D",
"g  c #555657",
"h  c #555249",
"j  c #61565A",
"k  c #635B5C",
"l  c #655958",
"z  c #6B615F",
"x  c #454D64",
"c  c #4C5263",
"v  c #4B566A",
"b  c #535564",
"n  c #555964",
"m  c #5C5B63",
"M  c #535A6C",
"N  c #5A5D6C",
"B  c #585666",
"V  c #4A5B76",
"C  c #545C73",
"Z  c #585F76",
"A  c #635D63",
"S  c #655F68",
"D  c #5E626D",
"F  c #55616F",
"G  c #5C6272",
"H  c #5A6479",
"J  c #4C6079",
"K  c #656165",
"L  c #6B6365",
"P  c #6C6A66",
"I  c #64636B",
"U  c #6B656B",
"Y  c #666A6C",
"T  c #6D696D",
"R  c #71666B",
"E  c #726B6C",
"W  c #746A67",
"Q  c #646573",
"!  c #6A6672",
"~  c #656976",
"^  c #6D6B73",
"/  c #62667B",
"(  c #646B7C",
")  c #6A6D7B",
"_  c #726D73",
"`  c #796F73",
"'  c #726E79",
"]  c #6D717C",
"[  c #6D7075",
"{  c #757175",
"}  c #7A7375",
"|  c #74737B",
" . c #7A757B",
".. c #7D7A7D",
"X. c #7E7975",
"o. c #77716C",
"O. c #837C7D",
"+. c #827879",
"@. c #84817E",
"#. c #5B6885",
"$. c #4A6586",
"%. c #676D85",
"&. c #6A7387",
"*. c #747582",
"=. c #797682",
"-. c #757984",
";. c #7C7B83",
":. c #7C7D8B",
">. c #777C93",
",. c #657396",
"<. c #827D83",
"1. c #827D89",
"2. c #7D818C",
"3. c #7C8393",
"4. c #7C8399",
"5. c #6C80A3",
"6. c #858185",
"7. c #8B8485",
"8. c #8E8986",
"9. c #84838C",
"0. c #8A858B",
"q. c #8C898D",
"w. c #85888C",
"e. c #938C8D",
"r. c #968A8B",
"t. c #95918C",
"y. c #848592",
"u. c #8B8692",
"i. c #858994",
"p. c #8C8B93",
"a. c #868C9A",
"s. c #8C8D9B",
"d. c #85849B",
"f. c #928D93",
"g. c #9A8E92",
"h. c #938E9A",
"j. c #948B94",
"k. c #8D919C",
"l. c #8E9195",
"z. c #959195",
"x. c #9A9394",
"c. c #9B9896",
"v. c #94939B",
"b. c #9A959B",
"n. c #96999E",
"m. c #9D9A9D",
"M. c #979992",
"N. c #A39B9D",
"B. c #A99E9E",
"V. c #A1979A",
"C. c #9EA09F",
"Z. c #A5A19C",
"A. c #A8A19C",
"S. c #888EA1",
"D. c #8C92A2",
"F. c #8993A5",
"G. c #9495A2",
"H. c #9B96A2",
"J. c #969AA4",
"K. c #9C9BA3",
"L. c #9C9CAA",
"P. c #9598AA",
"I. c #928DA1",
"U. c #A29DA3",
"Y. c #A39EAA",
"T. c #A99EA3",
"R. c #A39EB2",
"E. c #9EA2AC",
"W. c #9DA1A4",
"Q. c #9DA5B4",
"!. c #A5A1A4",
"~. c #ABA4A4",
"^. c #ACA9A6",
"/. c #A4A3AB",
"(. c #ABA5AB",
"). c #A6A8AC",
"_. c #ADAAAD",
"`. c #B2A6AA",
"'. c #B3ABAC",
"]. c #B9ACAD",
"[. c #B2A8A6",
"{. c #B4B1AE",
"}. c #B9B2AD",
"|. c #A5A3B1",
" X c #ABA6B2",
".X c #ADABB2",
"XX c #ABACB9",
"oX c #A4A9B6",
"OX c #B2ADB2",
"+X c #B7AEB7",
"@X c #B5B2B4",
"#X c #BBB4B4",
"$X c #BDBAB6",
"%X c #B5B2BA",
"&X c #BBB5BB",
"*X c #BDBABC",
"=X c #B5BABC",
"-X c #C3BCBC",
";X c #C2B7B8",
":X c #C6C2BE",
">X c #CCC1BE",
",X c #BAB5C1",
"<X c #BEBAC2",
"1X c #BBBCC6",
"2X c #C2BDC3",
"3X c #C5BEC9",
"4X c #BFC0C7",
"5X c #C5C2C5",
"6X c #CAC4C4",
"7X c #C5C3CA",
"8X c #CBC4CB",
"9X c #CCC9CC",
"0X c #CEC9C3",
"qX c #D2CDCC",
"wX c #D1C5C8",
"eX c #CBC8D1",
"rX c #D3CED6",
"tX c #D4D2D4",
"yX c #D9D5D5",
"uX c #DCDADB",
"iX c #D8D5DA",
"pX c #E2DDDA",
"aX c #E6E1DE",
"sX c #D8D8E1",
"dX c #ECEAE9",
/* pixels */
"O._.#XN.` 6.:X'._.L 7.:X!.Y.L W ~.`./.f L ~.Y.b.K E N.e.b. .U g.m.b.L R 8.e.f.{ P 1.9.p.` A q.y.2.{ K w.-.( { P ;.6.7.T K 0...6.",
"^.;X~.!.U OX6XA.(.E A.:XT.T.{ t.wXV.b.I 8.[.M._.K O.^.~.U.U ` ~.m.z.` ..N.b.z.I +.m.z.f.} E K.9.<.T U U.y.:.^ R W...<.T  .'.6.7.",
"qXA   d ` rX7.+ d X.pX8.& 8 K qX@.* t ^ 3Xr.@ & { ~.@.+ & ' ~.O.O 6 ` V.X.@ 6 | V...# ; ` N.p.O ; { T.p.O : A T.v.# * A M.m.& $ ",
"qXK @ K <.9XN.A./...yXN.g.K.X.yX^.;.q.K -XB.+.e.^ !.N.c.b.' U.0.;...T b.x. .| T T.b.=.I ^ N.b.) m I T.m.t i K OXW.f T ^ `._.{ K ",
"tX} $ A <.iX^.uX%XE aX*X9X%XU yX~.-X%XT -X;X8X,XA .X*X5X.XY /.M./.K.^ !.b.Y.f.| ~.b.K.:._ (.m.D.2.U /.U.-.&.| ~.K.| 9.S (..X@Xp.",
"qXE . I  .uXq.5X<X{ aX{.3X,X_ yX].&XK.I wX@XqX*X^ OX{.*X X^ ).M.a.w.I .Xb.n.y.*.(.p.G.;.^ OXl.D.| ^ %Xu.n n ^ ^.J.^ | I ,X_.@X6.",
"yX{ + { | uXm.5X7XT aX@X8X<X^ pX'.-X@X_ >X#XrX*XK %X$X=XK.^ .X7.y.i.=.K.9.w.i.) (.n.i.;._ _.z.2.2.K K.n.) D I !.n.2.p.U /._.).;.",
"9XT 1 { | rXb.{ p...dXm.p.K.^ uX~.0.w._ qXA.N.z.) @X.X@X/.) .Xq.s B | _.p.s ) *.~.l.D I _ /.p.c i ^ @Xk.2 e I OXn.p m T /.m.{ D ",
"-Xw.n./.{ sXz.@X%X{ aX$X2X8XU pX$X-X&XA qX{.8X@X! &X{.8X%XQ .Xz.#.D ^ OXv.=.9.` ~.n.-.=.S OXg.r b I OXb.i q I _.l.s B ^ %XK.! I ",
"9X$X.XK.| uX-X@X/.<.aX9X%XOX+.pX0X^.OXE :X0X'..X_ %X:X!.h.} _.!.k.a.<.b.K.G.K.} T./.v.l.} (.Y.;.;.I N.(.;.( ^ T./.w.9.=.U.(.v.7.",
"A.!.M.U.;.!.#XV.Y.X.~.$Xm.T.` B.{.N.j.<.~.^.x.j.;.g.~.O.u.1.q.N.s.f.+.r.n...w.O.8.z.;.9.} r.x.| :.<.b.M.Q -.;.g.p. .| } q.j.<...",
"} '.@X!.g { #X}.OXa o.:X*X`.j o.-X@XH.d E ^.`./.m K A.~.`.U a c.m.x.l a z.n.v.L a f.v.p.A l 0.a.w.A j 7.6.y.K a 9.6.j.I j 0.7.q.",
"'.x.` <.^ '.N.} ;.[ $X@X .q.R }.:XE n.P (.2X` u.P m.A.P ' ` q.x.D ..o.+.z.[ | I +.e.[ ^ U O.j.! Q K +.b.~ D m ..K.K [ T <.U.T P ",
"6Xu @ K | 7XU & A X.uX@.& U P aX@.@ f ^ 9X7.$ s } <X7.& 7 ' OX+.o 4 { ^.2.@ ; ^ !.| # # K ~.1.# # I /.q.@ # m _.z.O $ I U.f.$ $ ",
"*Xp.K.G.I 7Xz..XXX..tXOX2XXX` aX$X*XW.{ uX{.%X%X' &X{.:X<X' .Xe.%.] { K.v.:.y.^ ).K.-.*.I !.K.( D n b.b.G n D /.W.[ ]  ..X/.=.^ ",
"2X .J./.*.3X9.%X/. .rX/.rX,X| uX~.8XXXT tX@XOX%X| 2X@X-X%X' %Xq.#.( -..XG.i.s.U !.v.2.2.I !.G.) N ! XXp.i M ~ /.G.-.D I .X).n.| ",
"-X;.R.H.| 2Xp.%XXX^ yXm.eX1X^ pX/.3XY.) iX!. XXX .&X&X<X.X} OXj.$./ ;.~.v.y.G.! ).y.a.*.I .Xa./ N K %X4.V c I (.P.G N | /.K.z.| ",
"qX1.h.G.^ 7X0.Y.L. .yXm.%XK.' aX).K.H.| 9X@X XR.| -X2X(.b.;.&Xe.V / | /.h.y.s.Q /.G.i.:.! (.j.N ^ B L.k.c v ^ (.F.c Q | Y.K.1.;.",
";X_ ! y.{ 8X .' 9.} tX7.p.h._ yXK.! 9.;.tX).s.|. .&XOX<X&X<.OX1., < _ @Xy.B S Q ~.9.e s S (.z.: s I %Xy.o 2 ^ `.D.# 6 | OXf.6 s ",
":XN.K.U.^ &XY.`.(.T qX'.&X&X^ yX@Xb./.^ tXOXj.L.^ 5XOX<XOXK %Xb.%.*.` (.K.l.y.! !.G.Q ^ I m.U.&.) I U.J.b / ' N.G.B I | ).b.s A ",
">X@X Xb...$X*X(./.<.0X{.Y.T.=.qX*X XT.1.0X*Xb.H.7.5XOXj.f.<.<X~.>.s.O.T.!.a.p. ._.K.:.9...~.Y.2.1.' U.U.=.] =.OX/.=.<.0.OX(.;.9.",
"r.V./.b.{ c.@Xg.b.O.r.N.Y.b.<.8.~.x.q. .X.^.b.H.{ E z.e.x.{ T e.1.p.` O.p.-.2.} O.q.;.9.{ r.9.*.;.{ e.1.] -._ 0.9.`  .R } 0.| :.",
"@.[.+X(.k o.#X;X/.A E @X3X(.R X.6X'.OXT P @X/.Y.K T _.!.N.I f !.H.M.k 0 p./.U.k a n.k.l.f L p.i.s.y j j.f.k.m y p.j.U.A a j.0.p.",
"}.r.< _ { T.V.< E E #Xg.y R R -Xc.5 E L }.B.8 ^ { ~.M.7 a } m.f.< u W e.m.; q E 8.n.1 g L r.b.t s A r.N.< m ^ r.U.& u _ r.b.7 q ",
">XL ^ -.} ;X . .9.{ 8X..*.1.! iX7.m ` ;.rX0.} .. .2Xz.A _ } <X1.> c P ^.2.2 p K '.9.2 2 I '.y.e t K {.q.2 2 K '.M.^ q P $XI.w & ",
">X7.eX.X} -Xe.rXeX^ @XU.rX3X' 3XK.uX2XK 7X%X8X%X} *X<X2X*X;.%Xg.%.) P ).J.H ) I ~.D.F H S (.K.&.Q Y ^.v.N F [ ~.@XsX).P !.|./ p ",
"-X..4XE.E 6Xq.9X%X| 6X0.,X2X' 8XU.rXOX_ rXg.2X5XU <X2XtX&X_ OXf.#.%.Y /.d.C H Q ^.k.V H ! `.P.&./ K ).m.b v ) ~.n.>.-.@.^.P.*.! ",
";Xl.4XXX} @Xm.eX2X{ -X7.3X3X' 2XU.9X&X_ 5X/.rX.X .6X&X2XY._ 2Xj.#.) ^ .XS.C / ~ !.l.J H !  Xs.H ) I ).v.c v *.~.k.w w | /.L.>.Y ",
"0X..2.i.X.;X8.f.h._ 9X6.b.H.K qXK.g.z. .9Xp.x.g.O.&X&X9X&X} &Xp.V G ^ @XS.x C ! '.i.3 M ^ OXi.3 G I .Xl.> x =.'.a.x r [ .XJ.G n ",
":X{ k.p.{ -X6.b.H.| -X<.u.Y. .3Xf.(.OX_ 6XY.1.<. .OX&X<X(.| OXg.3 m Y {.a.w b Q {.2.: e ^ #X9.2 r I $Xp.: > *.OXp.: w @.{.s.b g ",
"-Xx. XJ. .-XN./.Y.! OXOX XY._ &XOX<XOX_ OXOXU.z.O.&X@Xb.g. .%X/.>.=.P './.>.:.^ [.b.%.%._ `.b.) | { ^.v./ %.<.^..XB ~ O.c.L.2.Y ",
"-X@XE./.6.-X*XK.U.0.8X#XH. X1.3X*XH.b.q.&X(./.f.<.OX_.f.v.;.(./.a.l.+.(.U.1.h. .[.(.>.1.+.;XY.>.1.<.{.!.1.1.1.[.K.-.w.8.~.U.-.w.",
"o.m.~.n.L +.(.m.N.P L ^.~.K.a W !.N.(.S A (.b.M.L d z.q.z.R 0 g.y.z.L l e.-.q._ l f.-.a.W l e.*.;.U l r.} 6.U k  .<.<.U a 1.1. .",
"8.@X{.!.j <.&X@XK.l +.'.@X).L R %XY.`.u U ;Xb.).j } @Xm.z.A W T.l.q.l R !.v.f.d W m.3.i.l z m.k.i.A l g.9.p.K l %X<.g.L k V.0.g.",
";XL + k } +X| % I { ;X;.; b { *X6.& d <.3Xj.& f +.'.p.& 8 ^ OXb.% q T _.y.# t ! [.7.% 1 k A.0.% ; ..^.g.; : ' T.a.O 6 } Y.M.= $ ",
">Xl * L 1.8X| 9.k.| *Xq.s.E.:.&Xb..Xb.` -XN.K.K._ <Xl.G ] =.&Xj.3.^ T @XL.G ~ ! '.J.F G E ;Xb.C n ^ K.v.B b =.`.E.B p | ^.K.p.m ",
";Xo.+ 8  .eX1.Q.L.| %X9.oXoX] 2XW.yX*X| 2X!.2X&X` eXv.:.%.^ <X(.Q.:.^ %XD.Z ) / `.S.Z G _ ,Xs.C D ] .XL.G r ' OXG.-.K  .@X!.).K ",
";XO.  1 1.&Xu.J.k.;.8Xw.XXoX' *Xl..XOXI *X@X).p.U eXh.>.) *.&XT.Q.| I 3XL.M G ) 2XP.#.H ' +Xs.#.n  .%Xs.c M <.`.E.:.^ { %X/.9.n ",
":XY   6 <.&Xm..XoX^ &Xg.Y.G.^ 9Xp.v.OX=.2XXX.X).` 2XL.P.d.| OX'.F.*._ XXI.( :.| +Xv.%.Q ' +XY.>.K T (.|./ G ' `./.m.b.} !. X*./ ",
"*XP ; D <.8X;.;.s.` 8X1.) :.=.&Xl.z.j.{ 2X&XeX_.` 2Xh.B N =.&Xx.H n _ 2XG.> M ~ ;Xz.N s R ;XK.N n O.%Xi.> b <.`.V. .K | &XG.i e ",
"_.6.l.XX .,Xp.%X/. .1Xl.h.G.I 5XN.8X%X! 3XZ.7X).E <XK.:.>.' 2X!.a.] [ 1XP.x n -.@X Xy.| ` OX|.3.:.' OXU.Q / <.`._.). ._ OXK.=.N ",
"5Xm.K.v. .wX(.!.K...*XC./.H.7.*X'.n.Y.} -XOXp.z...5XXXp.u.' <XOX2.q. .-XXXS.2.| ].K.y.:. .$XH.:.=. .`.(.=.*.+.[.U.1.j.} (.(.' 1.",
"~.~./.K.r.OX$Xc.b.p.#X@X/.h.g.!.'.T.Y.1.V.^.z.H.+.z.!.w.f.;.z.V.w.e.` e.v.-.u.0.V.z.<.p.6.~.b.:.0.j.B.g.=.I.<.g.m.<.0.O.x.b. .w.",
"k [._._.j y ^.@X!.a a '.OXU.d 8 N.&XU.7 h ~.(.b.d 8 C.!.M.d 7 N.J.0.l 5 g.u.U.a 5 z.6.z.0 = 0.w.7.u < 1.1.u.j = 1.e.g.0 < O.0.;.",
"e.~.9.z._ g.`.1.g.T 8.!.0.b.T 8.'.+.j.^ z.'.| f.R 6.).X.{ K <.`.) | o.+.^. .6.A O.~.' 1.R +.T.| 1.A } Y... .U o./.U 6.L +.(.E | ",
"'.d 8 I ` 3XR 0 _ { 6X} m _ { *X7.8 I ' *XO.< N E 8Xz.t s | 6X7.2 i T &Xv.# 6 =.;X0.: < ` &Xa.% 6 _ OXg.% 1 { B.m.4 = T ~.r.4 & ",
";X{ m./.' OXO.5X,X^ &Xb.iX,X .4Xx.&XK.^ 1Xn.G.i.P 9XL.4.4.] 7Xz.%.-.Y =XJ.] ~ ' 2XL.>./ ' ,XD./ B ) XXU.| ) { ]./..X{ { _.n.a.n ",
"_...f.K.1.&Xp._.L.| $Xa.7X,X{ @Xl._.H.^ 7Xv.:.G.o.<XP.#.,.*.5Xz.J H ] =XJ.H ) *.&XG.( Q | %XI.M n =. Xp.a.a.T A.).).| K .X/.2.b ",
"_...@Xn.;.%X6.5X,X^ 2Xq.rX1X_ *Xm.=XE.] &Xs.&.5.' 9Xk.#.,.~ 5Xz.$.%.R 2XF.>.4.U ;XD.$.#.<.].P.V G ! &Xb.K.s.K ]._.m.<.S `.H.) H ",
"@X} /.!. .%X .m.L.{ @XM.7XK.| 7Xq.XXs.Y 1Xv.H #.=.&XF.#.,.] $Xf.V Z } 8XF.Z ) | ].a.V V ! `.S.V B ^ (.Y.K.| U [.).z.<.K OXL.G n ",
"@XY O.z.^ 2X} T p...#X7.Y.h...*X7.K.-.| 9X:.2 #.{ 5XJ.H #.-.5Xp.3 v { &X>.2 n | >Xy., 2 _ 3Xi., 6 =.].0.^ ! _ B.K.^ A U _.w.p i ",
"'.7.U.U.` .Xj.M.H.T $Xm..X(.E @Xb./.9.^ &Xj.%.&.' *Xk.%.>.[ $Xu.H Q ` &XL.G ^ ^ #Xv.v S R ;Xp.C N ^ ].b.| =.S `.).<.` T ~.E.^ ~ ",
"$X~.(.b.p.&X).!.b.6.:X~.b.Y.O.6X'.U.h.0.2XOXG.S.1.;X@Xd.d.X.}.&X>.:.<.OX%X=.:.;.#X/.2.y.0.'./.2.9. .[.~.=.1._ ].K. .....Y./. .| ",
"t.A.~.e.O.f.~.~.b.} 7.!.H.b._ 8.T.q.s.^ O.g.p.s.{ P e.1.a.X.W p.j.p.U ^ z.6.z.^ E p.:.1.U W r.=.y.} o.0.} u._ R 6.` 6.L L O._ 0.",
"f V.$XN.y d b.'.U.7 9 `.&Xb.8 u '.(. Xy a T.b.m.7 h N. Xh.5 - U.e.6.q q x.e.f.q 7 m.M.g.8 5 e.q.9.8 = r.u.u.y = f.j.e.5 = 0.0.7.",
"Z.t.P  .K x.T.a  .` x.g.A <.E A.g.A | ^ x.V.d | ^ A.t.j S W A.m.0 U { q.!.u K U g.Y.7 S K x.U.7 K A r.V.y ^ A g.m.y a L 7.r.j u ",
"'.P ..;.` &XP q.i.U -X^ ) :.^ *Xw.9.-.| -Xx.Y -.{ 5X9.;.^ _ 2X1.v c ^ *Xp.p ) I &Xv.I B U @Xf.n s A '.0.[ s m `.a.N q A /.g.T 6 ",
"^.@.5X_._ T.O.7X|.^ ;X .w.s.| -X6.J.G.I OX'./.Q.^ %XG.%XG.^ @Xg.>.( T @Xn.*.;.K OX/.s.] L '.Y.G._ U &X/.a.G T }.G.=.S K (.(.M.{ ",
"`.{ ).n.S +X .).).T '.} y.i.^ @X2.:.a.Q @Xb.K.Q.T 1XJ.v.-.I ,XK.F.:.T _.K.K.i.U '.K.k.) K '.!.K.^ f (.P.*.M m V.G.a.U A b.T.K.| ",
"^.} ,XY.S  X| W.J._ &X<.;.9._ -X .| a.Q %X(.|.a.[ =Xi.s.y.^ %XU.Q.3.I @XXX1Xn.I @X(./.;.U ]./.).{ I %XP.Z M { A.).K. .E !.!.W.{ ",
"_.T k.l._ +X^ I <.K '.` ^ | I @X2.p ~ ^ 2Xf.G.Q.I 1Xl.I Q ) 2Xj.*._ ` +Xz.y.| U ;Xp.^ n L ;Xb.=.Y A .Xd.w w ! B.f.<.S k M.f.9.s ",
"U...W.l.! T._ ^ 9.E ].O. .y.} #X=. .s.^ _.N.K.a.T .XK.k.k.^ .XN.k.O.L OXL.l. .k `.g.| K A ~.N.u.[ K _.H.b x I ~.z.` A A N.g...m ",
"V.z.W.M._ Y.6.7.9._ [.0.1.i._ '.j.;.y.} '.8...=.E &Xn.| ..U ].N.i.<.W `.K.;.-.P '.b.^ ^ } [.T. .' S ~.b.Q S U V.b.' o.R m.z.{ I ",
"}.^.m.n.<.;XN.m.h. .;XN.b.z.| ;X~.z.p.} ;XT.e.9.} @Xb.<.j.} OXV.| O.} `.K.| w.{ N.U.|  .X.V.b.^ =._ ~.r.I =.` g.e.U } L x.f.^ ^ "
};
