/* XPM */
static char *wall_E1742331680[] = {
/* columns rows colors chars-per-pixel */
"64 64 246 2 ",
"   c #050402",
".  c #0B0402",
"X  c #060B05",
"o  c #0A0A06",
"O  c #040B0B",
"+  c #0C0D0B",
"@  c #090709",
"#  c #110D0C",
"$  c #160B04",
"%  c #0C120D",
"&  c #071109",
"*  c #12120D",
"=  c #1B130D",
"-  c #171608",
";  c #0E0E11",
":  c #050D11",
">  c #110E11",
",  c #0C1213",
"<  c #021A1B",
"1  c #0D1A1C",
"2  c #051517",
"3  c #131312",
"4  c #1A1513",
"5  c #161914",
"6  c #1B1B14",
"7  c #131C1C",
"8  c #1C1C1B",
"9  c #13171A",
"0  c #26170B",
"q  c #361606",
"w  c #221B15",
"e  c #261B16",
"r  c #2B1004",
"t  c #1B231A",
"y  c #0B231B",
"u  c #23231C",
"i  c #2B241C",
"p  c #272716",
"a  c #372618",
"s  c #37351C",
"d  c #2A2A12",
"f  c #0A1D21",
"g  c #151D22",
"h  c #0A2629",
"j  c #1D2424",
"k  c #1C2B2D",
"l  c #172628",
"z  c #193735",
"x  c #113033",
"c  c #242523",
"v  c #282A27",
"b  c #382C25",
"n  c #2B3428",
"m  c #333424",
"M  c #34332B",
"N  c #383929",
"B  c #282D33",
"V  c #2B3333",
"C  c #273737",
"Z  c #353834",
"A  c #221F26",
"S  c #431A07",
"D  c #492614",
"F  c #562817",
"G  c #59321C",
"H  c #4D2A13",
"J  c #67311B",
"K  c #463928",
"L  c #583725",
"P  c #443D36",
"I  c #4F3932",
"U  c #653B27",
"Y  c #6F3827",
"T  c #39412B",
"R  c #3C4333",
"E  c #384438",
"W  c #27443D",
"Q  c #43442C",
"!  c #45482C",
"~  c #5C412E",
"^  c #424434",
"/  c #4B4C35",
"(  c #43443C",
")  c #444A3B",
"_  c #4B4B3C",
"`  c #494534",
"'  c #584537",
"]  c #4C523C",
"[  c #54533B",
"{  c #69422C",
"}  c #74462C",
"|  c #684735",
" . c #774A36",
".. c #78533C",
"X. c #68513E",
"o. c #373D42",
"O. c #1A4A49",
"+. c #294647",
"@. c #384647",
"#. c #374D54",
"$. c #375759",
"%. c #305551",
"&. c #3B5862",
"*. c #376B6D",
"=. c #3C645B",
"-. c #4C4B44",
";. c #464945",
":. c #534C49",
">. c #495448",
",. c #565748",
"<. c #495857",
"1. c #565A57",
"2. c #4F4E51",
"3. c #665249",
"4. c #785847",
"5. c #6B5853",
"6. c #59614E",
"7. c #5A6458",
"8. c #4A635B",
"9. c #66665A",
"0. c #7A6558",
"q. c #686651",
"w. c #4B5D64",
"e. c #466467",
"r. c #586767",
"t. c #546C75",
"y. c #596D75",
"u. c #5C7377",
"i. c #4E7172",
"p. c #676965",
"a. c #746C65",
"s. c #6A7467",
"d. c #76786A",
"f. c #626E74",
"g. c #637275",
"h. c #687778",
"j. c #777976",
"k. c #726D73",
"l. c #605F64",
"z. c #834B39",
"x. c #84543C",
"c. c #885B46",
"v. c #915C48",
"b. c #935F55",
"n. c #8C634B",
"m. c #85634C",
"M. c #93634B",
"N. c #97654A",
"B. c #886855",
"V. c #936B54",
"C. c #9B6C54",
"Z. c #966A57",
"A. c #9B725C",
"S. c #977158",
"D. c #A46C56",
"F. c #A7765A",
"G. c #B37A5B",
"H. c #A1704F",
"J. c #9A7764",
"K. c #857A75",
"L. c #897366",
"P. c #AA7C64",
"I. c #A67A66",
"U. c #B57D66",
"Y. c #798279",
"T. c #B4805F",
"R. c #87847A",
"E. c #938E7C",
"W. c #AC8268",
"Q. c #BB8265",
"!. c #B3846C",
"~. c #BB856B",
"^. c #B78768",
"/. c #B88A72",
"(. c #BD9176",
"). c #A98675",
"_. c #C28B6C",
"`. c #C18564",
"'. c #C38E74",
"]. c #C49274",
"[. c #CB997C",
"{. c #C89579",
"}. c #D29779",
"|. c #547D83",
" X c #687C83",
".X c #727D85",
"XX c #528B89",
"oX c #698588",
"OX c #7B8887",
"+X c #749395",
"@X c #709CA2",
"#X c #77ABAB",
"$X c #69A299",
"%X c #878A87",
"&X c #958B88",
"*X c #8A9389",
"=X c #97958B",
"-X c #838C91",
";X c #889798",
":X c #999896",
">X c #998F93",
",X c #A39B99",
"<X c #B09A91",
"1X c #98A59D",
"2X c #ABA59A",
"3X c #949CA4",
"4X c #8A9CA4",
"5X c #98A5A7",
"6X c #95ACAF",
"7X c #A7A7A8",
"8X c #A9B4AB",
"9X c #A9ACB4",
"0X c #A9B6B8",
"qX c #B4B8B8",
"wX c #B7ADAC",
"eX c #A59EA3",
"rX c #CB9B83",
"tX c #D6A68B",
"yX c #C6B8B0",
"uX c #B7C4BB",
"iX c #88C0B5",
"pX c #C5C8BD",
"aX c #97BAC3",
"sX c #B4BCC7",
"dX c #B3BECB",
"fX c #C5BAC0",
"gX c #B8C7C8",
"hX c #B4C9CD",
"jX c #91C3C5",
"kX c #C7C9C8",
"lX c #C9D3CB",
"zX c #C9D6D7",
"xX c #D7DAD8",
"cX c #D6D2CB",
"vX c #D7E5DC",
"bX c #CFDAE2",
"nX c #D8E6E6",
"mX c #DDEDF0",
"MX c #E5EAEB",
"NX c #E6F3EA",
"BX c #EBF7F6",
"VX c #F4FDFD",
"CX c #FAFFFE",
"ZX c #F6FAF4",
"AX c #ECF0F0",
"SX c #E2DED5",
/* pixels */
"&X%Xk. X@X3X4X4X;X;X*X*XOXY.Y.Y.Y.>.s.6.9.6.q.,.s T Q ! d ! [ T ! Y.T ] Y.n ] Y.7.T E Y.T y T ] ! s T ] ` _ w m 0./ / ! R E n t ",
"eX%Xk.h..X X X X4XOXY.uX1X8X;XOX6.Y.Y.7.6.T / q.[ [ s ! d ! [ T s ] ! Y.Y.n z T E s.>.T q.] T 6.] T d T :.q.d./ m T T d E ] Z 8.",
"eX%Xf.f.u.w.e.u.0XzX6.Y.uXlXzX1X*X1XR.Y.7.,.q.6./ ! s ! s T [ [ T T T Y.6.=.] =.6.7.>.n 6.6.) T n T >.E *X*X9.s.E.Y.T n >.1X5Xy.",
"eX%Xy.f.t.e.e.u.0XhX1X<.Y.NXzXgXY.Y.E.uX6.d Q T / / [ [ s d T s ] 6.Y.E.6.T ! 6.7.C T E T ) 7.T y T Y.>.1.E n =X*Xs.E Y.1.r.g.+.",
"9X%Xf.g.y.$.&.h.uXgXNX*X>.1XnXhX*Xs.Y.uX,.p m ` [ / ! [ ! d d s ! 6.Y.Y.6.Y.T y >.] E T T n n R T T >.*XY.8.7.W E s.E <.s.;X4X;X",
"wX-Xg.y.t.w.&.u.uXhXuXlX8XY.vX*X*X8X*XY.m ! m Q [ ! s K [ s ! K ] 6.6.T ! Y.Y.T C 7.>.n ) N p N d z E 8.W >.@.n s.r.T y e.;X+Xu.",
"9X-Xg.y.t.&.e.|.#X1XgXvXVXmX6Xr.Y.NXZX1XR ,.N _ q.[ H s ~ s K s T s.Y.T s %.Y.z n E ) E ) ,.,.R d z E z 8.j.l v 8.t p >.j.<.@.#.",
"8X-Xg.t.i.e.e.t.4XlXBXNXNXVXBXuX8XuXZXuX) R s [ ! ! Q s Q d ! ! ! 6.T ] >.] Y.] p.7.-.E -.) Z n n n n d ) N Z n 5 T >.C OXw.f l ",
"9X-Xf.y.*.&.&. XhXBXNXVXNXnXVXVXVXNXvXpXs.s ^ ` ' [ [ ' I ! I ` _ R ( >.1.,.7.j.%X1.>.) ) ` N N T ,.Z E ( Z _ ^ d 9.T T E ;.@.B ",
"qX.X Xy.|.&.&.oXhXmXVXNXBXCXBXVXZXAXZXZXY.t N q.[ _ I s a i i i p p u u u u v Z d.h.%XR.Y.p.-._ ] N N N _ ( ,.:.R 9.] s R r.<.@.",
"qXOXy.t.|.&.&.oXhXmXVXVXVXZXCXVXCXCXCXAXE.n N / ` P s i p i v i = - - + * * 5 8 Z 9.*X&X&Xa.P M T d N m 6 M m m s - - t n V X >.",
"sXOX|.t.t.&.&..XhXVXBXVXCXBXVXCXVXCXAXcXY.s N P e 0 = = w e e w 6 w w * 3 6 j 8 + 3 8 V a.d.-.` p n N ^ 6 M w N 6.6.! T d.7X1.o.",
"sX%Xf.t.t.&.#. XsXVXCXAXCXCXxXMXCXxXeXR.:.b A e = = $ # $ + # 4 = w 4 # o * 3 @ v 8 +   4 c M 9.d.Y.] m M v   u 9.R.) n OXBXCXzX",
"qX-Xf.y.t.&.#.|.4XnXCXCXxXAXCXsXCXAX3XP 8 A b @ 4 = $ . . . $ > o # . .   o @     ; u # .   M &X2XlXNX%XkXlXY.v 7.7.p >.Y.;X3X.X",
"sX-Xy.y.t.&.#.u.6XMXCXCX9Xj.CXMXAXAX:XZ . 3 b e # . . . @ @     . . . . o # # @ 3 @ + # = w w v n h.lX>.g.CXqX7.7.7.: l r.3X6Xw.",
"sX.X Xy.t.&.+.t.-XmXCXMXCXp.eXCXCX>X4 $ A 0 = r e 0 0 b K i = $ $ . . . . . . .     .     3 > * & 7.VX;X@.vXr.E k 7.n X 7 3XbX4X",
"dX.Xy.y.w.%.$.r.;XnXBXCXMXAXCXZXwX3 A r r a r q D U b.I.J.B.~ D q q q q a a 0 $ $ . . . #   + %   Y.8X7X1Xl @.s.n 6 / N -.p M j ",
"dX.Xt.w.<.%.=.Y.4XVXVXCXCXCXZXZX-.. 4 P 5.c.c.b.C.I./.rXrX(.F.V.m.4.4.0.V.V.4.q.D 0 r 0 # o + * % & s.OXg.l j n R s 0 ! m P u 6 ",
"dX.X Xt.8.%.%.s.5XAXCXCXMXMXCXwX$ a K B.<X).).I.~.~.~.'.(.'.(./.!.W.W.W.W.^.W.W.c.| a 0 $ .   o 3   , Y.;Xr.C >.6.s 0 0 i b N M ",
"dX.Xl.r.8.>.<.h.3XMXVXCXCXAXCX%X. L 3.I.yX'.rX'.~.U.~.Q.!./.'.(.(.(./.^.^.^.^.T.W.B...~ L a r $ - t , h.7XW <.d.s.,.i N m q.:.( ",
"gX.Xw.1.>.>.1.OX3XsXbXCXBXvXZXj.$ U b./.'.'.'.'.U.~._._.'.'.'.{.[.].].^.^.^.T.T.F.A.W.W.J.m.~ a . 5   V VX<.E ;.=X9.-.s q.a.R.,.",
"sXh.l.r.7.>.;.1.7XbXk.f.mXVXuXn I 4.I./.U.U.~.U.~.~.'.[.[.rX}.'.].].]._._.T.^.^.^.W.^./.(.W.m.| a   5 f.5X<.y.*Xd.9.N 3.P K.p.j.",
"0Xh.r.k.p.:.Z o.-XbXkX5X5XzX8Xp U b.b.).I./././.'.'.{.rXrXrXrXrX[.[.}.[.[.[.[.[.[.].^.T.W.W.C.B.a * v nXgXh.w.;Xp.( / 9.d.a.k.d.",
"qXf.1.1.1.2.;.1..XsXBXVXgXgX1X- 4./.D.U./.~.I.I.!.).U.!.!./.<XrX].[.].].].].[.[.[.].^.W.W.F.H.m.K * M ZXnX<.7XnXzX9.P ,.,X%X:X,X",
"0Xg.<.1.-.( 2.k.3XzXzXBXgXlXd.p J.D.F.Z.c...U F G D F G 4.J.J.I.W.W.W.W.W.W.W.W.P./.(./.W.P.F.S.3.. ;.kX+Xy.mXmXuX1.u 2XSX%XwX7X",
"0Xr.2.1.2.;.1..X7XdXnXBXxXfX1.a B.Z.M.4.| { L G D q q r D U 4.c.x.n.V.V.} G q q S F U  .c.n.C.Z.5.e P AXf.9XmXbX8X%Xj.9.7XwX%XkX",
"6Xr.@.<.1.2.8.oXhXzXBXVXMXcX5.L A.F.Z...U L { | m.4.| G D L U 4.m.....{ G q q q S D F U } c.n.B.0.= l.CXnXdXbXmXkXh.j.>Xl.R.cXxX",
"6Xg.e.7.<.<.<.Y.+XjXbXnXzXcX0.D J.D.v. .U L { | U I U G F L | n.W.V...G H G | c.n.4.4.|  .4.n.B.4.$ %XVXkXbXbXsX0X-Xp.cXwX%XcXAX",
"+XY.Y.u.g.h.r.Y.+.%.W W [ 0.4.U P.F.D.v.c.Y U L r r S S S G  .C.(.^.c.G H H L G 3.Y Y Y | c.Z.b.I e a.f..X-X.X.Xj.-X-XwXxXkXK.eX",
"x O.@.W E @.z z x x O.W Y.3.c.c.U.U.~.Q.P.Z.X.G F D F F J } v.Q.tX(.N.U H H S r D K U 3.c.Z.Z.A.I r l.l. Xy.t.w.;Xk..Xp.k.>Xl.;.",
"oX+XoXu.r.e.W O.*.O.=.8.R.4. .D.D.G.G.`./.P.c.} U G { } x.N.F._.tX(.H...{ G F H G U c.A.J.I.D.Z.a 0.K.%X3XbX.X+X4X X1.2.2.1.1.1.",
"+XoXu.8.8.<.+.%.Y.XXY.$Xd.W.G C.G.G.`.`.'.'.^.D.M.x.N.H.G.Q.`.}.[.^.T.H.N.} U Y Y c.b.I.U.I.I.Z.I 3.p.k.aXdX4XhXg.#.f.h.f.1.w.l.",
"<.e.o.g C o.z o.i.8.i.h.a.L.Z.F.H.D.G.Q._.}.}.}._.`.U.D.D.U.}.tX[.[.T.H.T.T.H.T.T.G.H.Q.U.F.U.c.5.I l.>XdXdXaXaXO.|.jXjX@XXX#X#X",
"h @.o.o.l.l.o.o.z W =.6.q.).).F.H.F.U.~.}.}.}.}.`.Q.G.U.}.rXrXrXtX[.T.T.W.^.T.T.`.Q.T.`.U.P.F.4.| 0.eXfX9X9XdX#Xx *.#XXXXXXXjX#X",
"h B f ; B o.B x < h z W ] E.I.m.H.D.F.~.U.U.`.`.Q.U.U.G.b.b.D.U.W.T.W.T.T.H.T.`.^._.T.^.U.A.Z...~ L.eXwXaXaXdX*.x |.@X*.O.*.$XjX",
"x C g , A B 2 f h < < y N 0.0...C.C.C.D.D.H.H.D.v.D.D.v.J S F Y X.U H G x.H.T.T.T.T.^.W.J.V.B.0.3.>X,X.X.X.X#XO.*.#X#XXXO.O.O.*.",
"l C k g v v g f h h < 2 c 0.B.m.C.V.n.v.c.c.v.b.U.U.'.~.b.Y F F H H H } T.T.T.x.H.H.W.W.Z.B.B.L.K.>X2.A 2.#.O.f |.+X*.O.O.x y z ",
"l k 7 2 9 8 l k f h x 1 w a.L.B.S.V.c.4.z.v.v.v.D.U.U.U.D.z.Y F H } T.^.^.T.H.T.N.n.m.m.B.B.5.B.>X>XZ B  X X&.x @X#X*.h x h y x ",
"f l l v B B l g f x k l 8 9.d.B.B.V.c...z.b.b.v.z.z.b.b.b.b.b.b.N.c.x.x.N.N.H.T.N.m.m.m.B.0.I I b 2.A B #.#.h +.6XaX+X%.z y y y ",
"g f g v B V l f k l l k v ,.0.L.B.n.m.} z.v.v.z.J F F F F F J F J } } J J G { m.C.m.c.0.B.0.a 4 a A @ g : f : z XX|.8.z W k z z ",
"7 1 j V V 8 1 j 9 B g o.A o.R.B.m.4...{ } } x.x.N.v.x.z.z.x.z.z.} Y z.z.z. .x.x.V.m.m.4.L.' I r w 8 5 l B x 2 2 h f < < < 1 j C ",
"g j B Z M c 7 j o.B A o.B Z j.J.X.| } { { { } x.N.N.N.x.z.Y Y J } z.v.N.D.D.N.M... .4.4.b.5.I > 6 3 7 l B l < f < : : 2 : : 7 t ",
"> # 9 t u c c v A B o.2.Z B a.d.K H ~ { | { } } x.v.v.x.z.Y J J J Y z.N.A.C.V.x...4.B.4.0.3.I e 4 4 8 v B <   O f 2 2 2 2 : & 7 ",
"1.:.P M n u 8 3 > A A A > M 9.a.0 q a K | } ..c.n.c.x.c.x.v.x.x.v.v.v.b.C.V.n.m...4.0.' I I I 4 * = % 8 5 O 1 C k l f f 1 : : , ",
"eX,X=XE.=X=X*XR.K.k.2.2.-.;.N - = $ 0 i K ~ X.4.J.J.Z.S.J.W.I.A.U.U.I.I.I.A.V.4.4.[ ' D -.,.:.e = b i v t   , k C k g f , : : , ",
"&XR.R.&X=X2X,X,XeX>XeXwX,X7.n X * + . # - d K ' 4.m.L.S.L.Z.V.Z.b.J.J.J.J.B...[ X.D 0 d a.&Xa.v :.a.a.9.;.5 j v B l g 2 2 2 1 1 ",
"i e u m R / ,.9.eX>X&XK.1.v & - , ; @ @ + $ 0 e D K ~ ' ~ ~ { ~ | | 4.4.3.| K H d $   o -.p.2.4 P 3.P b 6   t B 2 1 2 f g g g 1 ",
"a.5.-.K p 0 i _ k.3.Z 4 4 w o @ 2 : : O @ o $ 0 p e 0 0 q a a e a a D b a a d 0 - - - $ w w c > > P b K b . *   + + 9 g g g g , ",
"cXSXSXpX2Xd.-.M = 3 3 3 4 > # @ O O O +         3 # = = w w e e e e i c u w = o o . o + * 3 3 3 e 1.a.a.&X<XR.L.K.5.5.2.Z B B A ",
"=X,XE.a.` u = * = # > 3 4 > > @ + O o X X             + + * 4 8 c * 3 5 * 3 +   + o + + + % 3 3 4 8 b K.yXyX<XyXyX2XyXfXfX9X9XeX",
"^ m p - - - 5 5 # + 3 > 3 > > @ + @ X X X               . @ 4 c c +     o       o o o + + + # * * * 6 ( E.2X2XwXyXyXyX7XeX9X9X9X",
"w - o . 5 p 5 $ + # # 3 3 > > ; @ X + X   X               . 4 v v o   o       + o o + + + * + * X 7 %   = ` :._ 3.0.j.%X9X9X3X9X",
"o - u u 6 % % o + # # > > > > ; + X + + @                   > c v +     +   o + + o + + + # 3 % O % & & X X o - e > ; ;.>X3X-X5X",
"% - - - * - * * + + > > > > ; > + & o X X +                 4 v w     + +   o   o + + + + 3 % , y & , y t & o 6 5 9 9 ;.3XdX9X3X",
"p 6 * * 5 5 %   + # 3 > + > ; ; + O + X X X   o             3 c 3     @ o @ @   o o o + + # * % , & X X X % 5 & + 8 , 2 2.4XdXzX",
"o * 5 6 5 * $ % + % > > + @ @ ; + O + + @         + o       + 4 o         o +       o o + + % * 2 : & , X % 5 * + ; ; ; : : o.4X",
"* * * 5 3 3 + + + # > 3 + ; 3 + + % + + o X @ o   o o   o   w         + @   +   o @ + + + # 3 , ; ; ; @ + + + * + + ; > > , ; , ",
"% * 3 5 3 + + + + * + 3 3 + + ; & % + + + + o X   o @   @   A         + o + + + + + + + + * * 3 ; ; ; ; + + # * # + > > > ; ; ; ",
", * 3 9 3 % + + ; + , , % ; , + o & + + + O o o o @ .   + o e @ o   +   @ o o @ + + + + + 3 % 3 > + @ # # # # # # # # > > > ; ; ",
", 3 3 3 3 3 + + + , * + ; * , + O o % % + + o o o o +   o 3 8 o o   + o + o + + + + * # # + # + # # # # + # # # # # # # > > > > ",
", ; 3 3 3 , + : ; + + % % + + + O o & + + + + +     +     8 4 @ @ . o + + + o + # + + + + # # + + + + o % # + # % $ % $ # + # + ",
"% 3 3 , 3 > + + + + , : + , + % + & + + + + + + + @ + o   u 4 @   o o + + + + + + + * + + + % + * + + + o & % + % % o - $ + # o ",
", ; ; 2 3 : , + + + + % , + + + + O + o + + % 3 + + + o   v 4   + + o + + + + + + + + # * + % * o % o o & X & % & % & & o & o o ",
"; ; , ; , , : : O , , O + + % & & + X X + + # 3 3 + # .   M >   o o + + # + # + + + + + + * * % - & X X X & & & % & & & & & o & "
};
