/* XPM */
static char *wall_W1742331680[] = {
/* columns rows colors chars-per-pixel */
"64 64 247 2 ",
"   c #010102",
".  c #02040B",
"X  c #08090B",
"o  c #010611",
"O  c #040A14",
"+  c #040D1A",
"@  c #090E16",
"#  c #0D1113",
"$  c #05111C",
"%  c #09121B",
"&  c #071017",
"*  c #131516",
"=  c #021423",
"-  c #091422",
";  c #041B2C",
":  c #0A1C2B",
">  c #051926",
",  c #041D32",
"<  c #171E28",
"1  c #08212E",
"2  c #0A2433",
"3  c #0C2A3A",
"4  c #072537",
"5  c #132A3C",
"6  c #152838",
"7  c #1E2023",
"8  c #2A333B",
"9  c #282C31",
"0  c #092D42",
"q  c #172D41",
"w  c #0C354A",
"e  c #183849",
"r  c #0B3C56",
"t  c #163D54",
"y  c #2D3D4C",
"u  c #2A3644",
"i  c #343C49",
"p  c #2D3E54",
"a  c #0C435B",
"s  c #18445D",
"d  c #38414D",
"f  c #284559",
"g  c #364557",
"h  c #2D404F",
"j  c #044969",
"k  c #164A67",
"l  c #084E72",
"z  c #0A5876",
"x  c #115575",
"c  c #155777",
"v  c #0E526E",
"b  c #2B4B65",
"n  c #3B4D64",
"m  c #3A546C",
"M  c #275A79",
"N  c #3A5A75",
"B  c #2D576D",
"V  c #1A627C",
"C  c #35637D",
"Z  c #29627E",
"A  c #444C58",
"S  c #4B525C",
"D  c #49515A",
"F  c #40454E",
"G  c #4B5562",
"H  c #4F5966",
"J  c #4C5A6D",
"K  c #445469",
"L  c #515A65",
"P  c #535D6A",
"I  c #5A5F65",
"U  c #4B5C72",
"Y  c #435B75",
"T  c #515F73",
"R  c #464F60",
"E  c #5C626A",
"W  c #4B627A",
"Q  c #53667C",
"!  c #58687B",
"~  c #5F727D",
"^  c #66717A",
"/  c #045A82",
"(  c #185D83",
")  c #0C658A",
"_  c #156789",
"`  c #187698",
"'  c #117095",
"]  c #2A6884",
"[  c #356987",
"{  c #37718D",
"}  c #297598",
"|  c #3D7594",
" . c #3A7C9B",
".. c #357697",
"X. c #2A6F91",
"o. c #1E7DA3",
"O. c #277CA2",
"+. c #397DA1",
"@. c #4A6783",
"#. c #576C86",
"$. c #5C738D",
"%. c #5A7186",
"&. c #447794",
"*. c #5D7793",
"=. c #46768E",
"-. c #6C7C8C",
";. c #677886",
":. c #727F8B",
">. c #637B95",
",. c #6A7D96",
"<. c #606F81",
"1. c #417EA1",
"2. c #3D819F",
"3. c #1783A5",
"4. c #2985AA",
"5. c #3887AA",
"6. c #3C92B8",
"7. c #328CB1",
"8. c #43819E",
"9. c #6D808C",
"0. c #72818C",
"q. c #7A838C",
"w. c #6C8394",
"e. c #6D839C",
"r. c #69899C",
"t. c #768897",
"y. c #438BAC",
"u. c #4886A5",
"i. c #478EB1",
"p. c #4494B9",
"a. c #4C99BC",
"s. c #4A93B6",
"d. c #539BBD",
"f. c #5B9CBB",
"g. c #5796B5",
"h. c #548DAB",
"j. c #6B85A3",
"k. c #758BA4",
"l. c #798DA4",
"z. c #7C92AA",
"x. c #7B96AA",
"c. c #649AB5",
"v. c #629DBC",
"b. c #6B9CB6",
"n. c #7C9BB1",
"m. c #6195AE",
"M. c #6CA2BD",
"N. c #65A1BE",
"B. c #73A4BD",
"V. c #559FC1",
"C. c #5B9FC1",
"Z. c #4D9CC0",
"A. c #5CA2C3",
"S. c #55A1C3",
"D. c #63A4C4",
"F. c #6BA5C3",
"G. c #6CA9C7",
"H. c #6CAAC8",
"J. c #67A8C8",
"K. c #73ADCA",
"L. c #7AAFCA",
"P. c #76A9C4",
"I. c #7BB1CD",
"U. c #76B0CC",
"Y. c #75B1D0",
"T. c #838B95",
"R. c #858E98",
"E. c #8B949C",
"W. c #8A949C",
"Q. c #899097",
"!. c #8698A9",
"~. c #839BB3",
"^. c #8A9EB5",
"/. c #939EAB",
"(. c #82A2B6",
"). c #8CA6B8",
"_. c #99A7B7",
"`. c #96A1AC",
"'. c #A4ACB6",
"]. c #A4ADBA",
"[. c #A7ADB7",
"{. c #A6B1BD",
"}. c #ABB2BD",
"|. c #AEB8BE",
" X c #A7ADB3",
".X c #8DAFC2",
"XX c #9BADC4",
"oX c #82B2CB",
"OX c #98B2C6",
"+X c #85B9D3",
"@X c #A4B1C5",
"#X c #ACB5C2",
"$X c #ACB9C6",
"%X c #A5B4CA",
"&X c #ACBBCC",
"*X c #A9B7CC",
"=X c #B3BBC4",
"-X c #B5BDCA",
";X c #B4BAC5",
":X c #AABBD1",
">X c #ABB7CB",
",X c #B9C1C6",
"<X c #BBC2CC",
"1X c #B5C1CE",
"2X c #B5C3D4",
"3X c #BBC5D3",
"4X c #BDCAD6",
"5X c #BECAD9",
"6X c #B6C7D9",
"7X c #B0C5D6",
"8X c #BFCCE2",
"9X c #C1C7CE",
"0X c #C0C6D0",
"qX c #C4CBD5",
"wX c #CACFD6",
"eX c #C3CDDB",
"rX c #C9CFD9",
"tX c #C4D2DD",
"yX c #CBD3DD",
"uX c #CBD2D7",
"iX c #D2D5DD",
"pX c #D6D8DF",
"aX c #C5D3E2",
"sX c #CCD5E2",
"dX c #CED9E5",
"fX c #CEDBEA",
"gX c #C8D6E8",
"hX c #D1D7E3",
"jX c #D3DAE5",
"kX c #DADEE6",
"lX c #D2DDEA",
"zX c #D8DEE8",
"xX c #D4DFF1",
"cX c #C3CEE4",
"vX c #D6E0EE",
"bX c #DCE3EB",
"nX c #DEE0E7",
"mX c #DBE5F3",
"MX c #DBE6F6",
"NX c #E4E6EC",
"BX c #E9EAEF",
"VX c #E6E6EC",
"CX c #E4EBF3",
"ZX c #E5ECF7",
"AX c #EBF3FE",
"SX c #E6F1FD",
"DX c #F3F8FF",
/* pixels */
") / ' / &.xX^.y.V.C.S.S.Z.1.ZXn.j ( l ( l l ] kX).i.C.C.V.V.O.~.ZXb.C.F.J.D.C...qXtXv.K.K.K.G.C.| iX8Xf.F.G.J.C.a.] iX6X) _ _ _ ",
") ) _ / &.nX^.i.A.A.D.A.6.1.ZXn.j ( x x ( l [ NXXXi.D.A.A.V.O.(.CXb.D.H.H.J.C...tXtXM.U.I.I.K.J.| iXaXv.K.K.K.F.g.[ hX6Xc _ X._ ",
") ) ) / &.xXXX1.A.D.D.A.p.i.CXz.j x x x x l ] NXXXg.J.J.D.C.O.n.BXb.G.K.K.H.A.+.wXaXF.I.I.I.I.J.| pXaXN.K.L.I.G.C.[ hX6Xc _ _ V ",
") ) ) / &.mX^.Z.A.J.D.A.p.u.CXn.j x x x x l ] nX.XZ.J.J.J.A.5..XCXB.G.L.K.K.A.+.wXsXF.I.+XI.I.J.&.yXaXM.I.L.K.G.C.[ hX:Xv v k k ",
") ) ) / +.xX_.1.D.A.D.A.s.u.CXn.j x x z c l ] NXOXZ.H.H.J.D.5.n.BXb.J.K.K.G.A.+.wXaXF.I.+XoXL.J.&.sX8XM.U.U.K.G.C.[ hX6Xj k k k ",
") ) ' / &.xX^.Z.A.D.D.C.p.u.BXn.j x z x x l Z NXOXg.J.H.D.D.4.n.BXB.F.L.K.K.A. .wXtXM.U.I.I.K.D. .pXaXM.U.I.K.G.f.[ hX6Xk k k k ",
") / ' / | kX^.1.C.A.D.C.6.u.BXn.j l l j l j Z NX.XZ.J.J.D.D.O..XBXB.J.K.K.G.D.+.qXeXN.Y.Y.Y.K.D.&.pXaXM.U.L.K.F.C.[ hX:Xj k k k ",
"` X.' ( &.xX_.1.C.D.v.f.y.u.CXx.k M M c M x C VX.Xh.v.N.C.C.+.~.BXb.v.P.F.N.f...0XcXc.P.P.P.F.f.{ pXtXv.L.P.P.M.g.[ zX-XM M M M ",
"ZXMXMXxXcXsXhXlXMXxXmXmXxXcXbXhXzXmXxXbXmXlX5XvXbXvXMXMXmXmXaXeXCXzXvXmXmXbXvX6XsXNXmXMXZXZXmXmX5XzXBXCXZXZXMXCXxX:XhXZXCXNXZXZX",
"_.'.]._.{.jX<X[.;X;X#X#X}.#XbX<X{.#X|.;X=X#X}.bXwX=X,X,X,X<X#X4XCX<X,X<X9X-X,X'.hXkX,X,X-X-X-X;X'.jXzX;X-X;X-X;X;X'.zXzX}.#X;X#X",
"n n m p J bXq.p K K n m g K ZXq.g J J U Y n R CXR.g U J J U p t.ZXE G J T J K p wX<XA U T T U K p hX;XR T T T J R y hX-XR ! T U ",
"XX%X%XXX@XeX;X@X:X:X:X*XXX_.yX<X@X*X:X&X&X@X_.wX;X@X*X:X*X*X_.}.uX#X*X:X:X>X%X`.wXwX#X:X>X>X>X@X`.qXqX>X-X:X:X:XXX/.rXrX>X:X-X:X",
"6X5X5XqXeX0XrXaXtXtXeXeXaXyXwXyXtXtXtXtXtXyXsXwXpXdXsXyXsXsXdXpXwXfXsXsXyXtXaXjXyXhXjXsXwXrXrXsXlXiXjXsXuXrXyXwXtXhXiXrXhXrXrXsX",
". X X   8 hXI   # X X @ . 8 zXE   # # # # X 9 kX^   * * * * X ^ nX9 # * * * * # =X X# * * * * * * wX XX * * # * # # 0X XX * * # ",
"0 0 0 , n CX;.= 6 4 5 5 , d ZX;.; q q q q 3 y CX:.= 5 6 3 5 = 0.ZXd 6 5 5 6 5 2 qX,X6 q q 5 5 6 6 rX[.2 q q q q 6 < sX;Xq u 5 q ",
"O.} O.' &.VXR.( } X.X.} _ { NXx.X. .+.+.+.} { bX~.X. . . ...V l.VX8... .5. .+.M 9XqX{ +.1.1.1.+.M rX-X=.1.1.1.1.+.b rX6X| u.*.1.",
"5.5.6.O.&.VX!.X.y.y.5.5.4.| VX!.2.s.s.s.s.5.2.nX).2.s.s.s.i.` !.VXh.i.g.d.s.i.] qXrXu.g.g.f.g.i.[ wXqXh.v.v.v.v.h.M yXeXh.c.c.v.",
"s.Z.Z.O.1.NX~.+.a.a.d.s.4.8.VX(.5.C.C.A.f.i.2.nX).y.C.A.d.d.} n.VXm.f.D.F.v.V.X.qXcXg.N.G.G.N.f.[ wXeXg.P.L.P.F.v.[ rXaXc.F.F.P.",
"Z.Z.Z.O.u.VX~.+.d.S.d.a.5.8.VX(.y.A.A.A.S.s.2.nX.Xs.D.D.N.S.4.n.VXb.v.K.G.F.A.} qXaXc.K.K.K.F.A.{ wXtXP.+X+X+X+XY.&.rXgXM.P.oXL.",
"Z.s.i.O.1.BX~.5.d.d.d.a.7.2.VXB.y.A.A.A.V.5.2.nX).s.J.J.J.S.4.x.VXb.D.H.K.J.A...qXaXb.K.Y.L.P.A.{ iXeX[ &.*.&.=.{ B yXsXB.oXoXoX",
"p.p.p.4.u.BX!.5.a.d.d.a.4.2.VX(.5.f.A.S.d.6.2.nX.Xs.J.J.D.S.4.n.VXb.N.G.J.J.A.} eXaXc.L.I.Y.G.A.{ hX-Xr r r t r a f iXgXB.oXoXI.",
"p.p.6.3.5.VX~.+.a.a.a.p.4.2.VX(.5.S.S.S.d.7.2.nX.Xs.D.J.A.S.O.n.VXb.C.G.F.D.S...qXaXf.K.K.K.G.A.{ uX6Xr s k k s s s yXgXB.I.oXI.",
"p.p.6.4.u.BX!.5.Z.Z.Z.a.7.5.VX(.s.A.S.S.S.7.2.kX.Xs.A.D.A.S.o.n.BXc.N.J.J.D.V.} wXtXv.G.K.K.G.C.| iX3Xr s k s k s s yXdXB.L.I.L.",
"5.7.7.` 2.BX~.} y.y.5.5.3.2.BXn.2.y.u.y.y.4.{ nX).p.J.A.S.Z.o.n.VXc.A.J.J.D.V.} qXsXf.K.K.K.G.C...rX3Xr r r r r r s iXyXM.L.L.P.",
"C N N b @.ZX!.b Y m N N b W ZXl.f B m m N b N bX_.h.F.F.M.v. .!.VXn.M.B.P.M.v.=.wXsXb.P.oXoXP.b.=.iXeXY @.@.@.@.W m yXdXB..X.XoX",
"SXSXMXxXcXzXhXZXSXZXSXSXMXaXnXvXSXSXDXDXAXSXsXzXMXSXAXAXAXAXlXrXbXMXAXAXAXAXSXsXjXCXZXAXAXZXAXAXhXhXCXAXAXDXAXDXAXaXpXCXDXDXDXDX",
"T.T.z.t.W.mX[.T.R.R.W.W.l./.mX[.T.E.E.E.E.W.!.bX|.T.E./.!.E.q.].bX`.Q.E.W./.W.q.iXyXE.E.E.E.E.Q.:.hXuXT.Q.Q.R.W.R.:.iXyXQ.E.Q.Q.",
"m m K f J ZXT.i J J U Y g H CXq.g W Q Q U n G bXE.A Q ! Q U p R.CX! L ! Q Q U g qX0XH ! ! <.#.U g rX-XH #.<.#.#.Y g yX0XL ! ! ! ",
"j.j.j.&.>.CX`.;.z.z.z.z.*.$.CX/.w.!.n.n.z.,.%.NX_.e.~.~.n.z.@.!.CXR.z.^.~.~.z.@.wXwXt.^.^.^.~.k.Q uXqXl.~.^.^.^.,.T iXiXR.^.^.^.",
"*.*.*.Y Q bX!.@.j.j.j.,.@.Q bXW.%.x.k.k.j.*.T kX/.;.l.l.j.j.Y R.bX,.e.z.z.l.,.K 0XqX>.l.z.z.k.,.K 0X<X,.!.!.~.,.,.K 0X0X,.!.!.!.",
"%X:X*X%X#X<X-X-X7X2X:X2X:X$X<X-X1X6X2X2X:X:X$X,X-X2X3X2X6X2X*X-X0X3X3X5XeX5X6X>X9X0X3X5XcX5XeX3X-X0XwXeXrXrXcXeX8X-X0XwXrXeX8X8X",
"_._._.'.@X0X-X].].].].{.].#X4X;X{.|.|.#X;X#X-X0X-X}.}.{.].}.].-X0X}.[.].[.[.}.}.0X0X}.}.}.}.{.[.{.wXqX}.}.}.}.[.#X>XrX0X#X#X[.[.",
"        9 vXS             9 vXS   .     .   7 sXE         .   E lX7             }.'.              -X X              -X X  X   . ",
"& & & o d bX~ o % & & % . h vX<.4 e e a t w g zX-.. - & % - . ;.bXu . & 2 3 2 : ,X$X; $ 3 w 0 3 5 4X;Xe s f f s e 6 3X<Xf b b b ",
"w w w 0 m jXw.4 w w w r 4 b jXw.c X.' ` ` _ C sXt.4 a w r a 0 >.zXb w a x z v r -X&Xa t k ) c x s 3X3X[ 2.....{ ] s 0XeX=.u.u.*.",
"; > 1 > g fX9.. % & $ &   h jXr.' 7.7.7.7.3.{ sXr.> 3 4 3 5 ; -.lXh > 2 w s r w -X$X2 , : 3 5 2 5 0X3X .h.i.y.y.} k 0XtXu.g.g.g.",
"    .   i lX:.  O o O X . y dX-.1 e 5 h e 5 f dXw.. O O O @ . -.zX8     . + O - 1X$X> ; : : , = 5 qX6Xu.g.g.g.y. .c 0XtXm.v.v.M.",
".   X   i jX:.  X o o O   y lX~   X     o   8 fX0.. @ + O @ . ;.lX8     X - + : 2X$X, : : : , > 5 4X6Xh.v.A.C.g.5.M 0XaXm.F.F.F.",
". . .   i fX0.  X . o O   y vX~   O O & + . u fX-.  O o o O . ;.lX8     O - + : 1X#X, : ; : : > 3 4X4Xh.N.N.N.f.5.M 0XsXc.M.F.F.",
".   X   i lX-.  . . X @   h fX;.  o . O +   u fX0.. + O O O . -.lX8     % - + : 2X#X, , : , , > 5 5X5Xg.N.J.D.f.i.Z 3XaXc.F.F.M.",
".   X   i lX:.  X . . @ . y fX~   O o O + . u fX,.  + O + + . ;.lX8   . - - + : -X$X, 6 : : , > 3 qX6Xg.N.D.v.f.6.M <XsXg.M.M.N.",
"X . o . i lX0.. + O + % + d lX;.  & + + % o y fX:.. % @ O @ . -.lX8   X - : - 2 2X>X4 3 , 2 2 : q 4X4Xg.M.F.D.d.i.Z 4XsXc.G.G.F.",
"    .   u bX;.    . . o   u vX~   o . . o   5 vX-.  o o o o . ;.xX9     + = = > -X#X, , = , , = 4 4X4Xh.f.N.C.g.5.c <XtXh.f.M.N.",
"j.e.e.,.e.yX_.e.l.k.k.k.e.t.aX_.t.z.z.l.x.k.t.yX].l.!.!.!.~.e._.sX!.t.!.z.!.~.e.2X3X~.).^.^.~.!.e.qXsXOX7X:X:X:XOXk.qXjXOX7X:X7X",
"sXgXgXcX3XeX4XsXaXhXsXdXsX2XeX0XsXsXsXsXsXfX4XqXsXsXhXsXsXhXeX2XsXtXsXsXsXhXhX6X0XsXjXzXzXzXlXlX4XqXzXzXzXzXbXkXkX3XqXkXnXnXpXnX",
"D R R g E lXT.F H H P G g P nXT.A P L L H D H fXT.A P H P P d T.lXE R H H P H i -X;XS P P P P K d qX-XS E T P P G d 0X9XS P H P ",
"@.@.@.m U lXT.Y *.*.$.#.Y U jXt.U >.>.*.*.@.K sXW.W >.>.*.*.m :.jX%.#.>.>.>.$.n ;X-X! ,.e.,.>.#.g 9X,X<.,.,.,.>.#.p ,X9X! >.w.,.",
"^.^._.^.!.-X]._.XXXXOXXX)._.-X{.XXXXXXXXXX)._.,X].XXXXXXXXXX_.].,X].@X@X%XXXXX^.=X-X#X*X*X*X*X%X_.-X3X$X>X>X>X%XXX/.-X,X@X@X%X@X",
">X#X#X#X,X<X1X|.#X#X|.}.|.#X,X-X|.{.|.|.|.$X,X,X,X{.{.{.}.#X}.-X<X#X{.|.}.|.}.#X<X,X;X|.}.|.#X#X;X0X0X#X}.}.}.|.|.;X,X-X|.[.#X}.",
"X X X   9 tXD   .     X   9 hXS   X         7 tXE   X . X #   E tX7         .   '.`.        .     }. X  . X .       '.'.  X X X ",
"- $ - + d jX~ $ 1 1 1 2 = d bX~ > 3 4 1 2 1 h fX^   X   X X   ;.vXh 1 3 3 3 4 1 ;X}.3 3 6 e t w 6 -X}.e s f t 3 6 - ;X;Xt s t y ",
"a a a r B dX9.a v x v c a B jXw.j V z z c v B yX0.o : > > > o ;.jXC z ) ) V V a #X$Xz ) ) ` ` ' v -X$XX.4.4.` V z w #X&XX.O.} } ",
"v l z j C iXr.z ) z V V z C jXr.z ' ' ) ' z M jX0.$ 2 1 1 2 + -.jXC V ] ] ] V k #X$XV ] ] } } ` k -X*XX. .2.X.V c t #X$X] ..{ ] ",
"V ) _ z [ iXt.) 3.3.3.3.' X.pXr.' 3.3.3.3.` ] jXe.= 4 2 1 2 = -.vX8   X       # &X@XX     O # X : 3X#XO X O X     & &X].% % % & ",
"> > - $ d lX9.> 3 3 3 6 1 g vX9.4 w e w a 3 f vX0.= 3 4 3 2 $ 9.vX8           O &X{.      o o . - 3X}.o o O .     & &X'.+ + + o ",
"        u lX;.        .   h vX^ . % $ & $ X u fX0.= 4 4 4 4 $ w.vX8   X       & &X].X     o O . < 2X].o o o .     & &X_.O O O O ",
". X O   i fX9.o % % % % O h vX^ + 2 , > 1 = h fXw.$ 3 4 2 2 $ :.vX8   X       # &X]..     o O . : 3X@Xo o O .     # $X_.O O O o ",
"O O % . h sX9.o * > % % O h fX9.$ 2 2 : 2 = h dXw.> w 3 0 0 = ,.vX8           & *X].      o + . : 2X].O o O .     % *X'.+ O + o ",
"        i dX-.            u vX^   X .   X   8 fX0.  & O & %   -.vX8           # -X]..     O + . < 2X#XO O + .     % 1X_.O o + X ",
"        8 lX^             8 vX~             6 zX;.            ;.vX8           o &X].      . .   - 3X].. . .       o 1X_.o o . . ",
"Q Q %.W >.sX/.%.-.>.*.w.$.w.tX`.;.e.w.,.9.>.>.tX_.;.w.w.e.w.%./.jXt.-.w.w.w.w.%.-X-X,.e.e.e.e.e.%.<X3Xt.l.k.t.w.w.#.$X3Xt.l.l.t.",
"8XaX8X8X:X5X3XrXsXsXtXaXsX6XqXtXsXlXjXlXfXjX4XwXyXzXzXzXlXlXtX3XyXsXjXjXsXjXdX3X<XyXsXhXjXhXjXhX2X3XsXhXhXhXhXdXhX-X-XaXhXhXjXjX",
"A A S d P lXq.d D D D S g P fXq.F G S H H A H sXT.F H H H H d q.lXE A G H G S d -X=XF S G S G A d <X;XF D D D D A i ;X;XF A S D ",
"m Y N b P zXq.n Q @.#.#.Y J zXt.U %.$.>.*.Y J hXW.U >.>.$.*.n q.lX~ #.$.*.*.@.g -X-XT %.>.*.$.#.g -X-XJ %.$.#.#.Y p -X-XU %.$.#."
};
