/* XPM */
static char *Wall_S1742916712[] = {
/* columns rows colors chars-per-pixel */
"64 64 200 2 ",
"   c #010201",
".  c #0A0B0A",
"X  c #1D221E",
"o  c #3A311C",
"O  c #2A2D29",
"+  c #252723",
"@  c #2F302E",
"#  c #333932",
"$  c #4B3D2B",
"%  c #483824",
"&  c #4D412E",
"*  c #464029",
"=  c #45413D",
"-  c #4A4238",
";  c #534634",
":  c #534A36",
">  c #594B37",
",  c #534A39",
"<  c #594E3C",
"1  c #514738",
"2  c #5B533D",
"3  c #57503D",
"4  c #4C4A47",
"5  c #524F4B",
"6  c #554F47",
"7  c #5D5442",
"8  c #5F5845",
"9  c #5E5A49",
"0  c #56524D",
"q  c #5A5955",
"w  c #555B5C",
"e  c #5A5D5D",
"r  c #575455",
"t  c #615543",
"y  c #645B46",
"u  c #655D4B",
"i  c #685D4A",
"p  c #635E56",
"a  c #5C615C",
"s  c #66614D",
"d  c #6A624E",
"f  c #666151",
"g  c #6C6553",
"h  c #6D6955",
"j  c #65645D",
"k  c #6D6B5A",
"l  c #716A57",
"z  c #726D5C",
"x  c #706653",
"c  c #6F705E",
"v  c #75715E",
"b  c #79755F",
"n  c #4D5A60",
"m  c #535C63",
"M  c #615F65",
"N  c #5C626A",
"B  c #646563",
"V  c #656966",
"C  c #6B6C65",
"Z  c #696769",
"A  c #646B6B",
"S  c #6A6D6B",
"D  c #656469",
"F  c #736E62",
"G  c #706D6A",
"H  c #6F706C",
"J  c #757362",
"K  c #7A7565",
"L  c #7D7966",
"P  c #73746D",
"I  c #7B7669",
"U  c #75796D",
"Y  c #7D7A6C",
"T  c #6C6E71",
"R  c #6C7373",
"E  c #6B7679",
"W  c #747573",
"Q  c #747973",
"!  c #7B7C73",
"~  c #757A7C",
"^  c #7A7E7B",
"/  c #71747E",
"(  c #827D6D",
")  c #807666",
"_  c #827E71",
"`  c #7C827C",
"'  c #7F8070",
"]  c #83816E",
"[  c #858374",
"{  c #898575",
"}  c #8B8976",
"|  c #84857A",
" . c #898679",
".. c #86897A",
"X. c #8C8B7C",
"o. c #878876",
"O. c #918D7D",
"+. c #8F917C",
"@. c #92907E",
"#. c #747C83",
"$. c #7C8483",
"%. c #7D8689",
"&. c #828583",
"*. c #858B85",
"=. c #8D8D82",
"-. c #858688",
";. c #848A8B",
":. c #8B8C8C",
">. c #898781",
",. c #918E82",
"<. c #908E8F",
"1. c #8D9182",
"2. c #8D918C",
"3. c #879087",
"4. c #939385",
"5. c #999686",
"6. c #969987",
"7. c #95958A",
"8. c #99978A",
"9. c #96998B",
"0. c #9A9B8D",
"q. c #999A87",
"w. c #858D91",
"e. c #8C8E91",
"r. c #908F92",
"t. c #8D9394",
"y. c #8D9997",
"u. c #8D969A",
"i. c #8E989A",
"p. c #929594",
"a. c #949995",
"s. c #9C9D92",
"d. c #92969A",
"f. c #949A9C",
"g. c #9A9D9D",
"h. c #A19E8E",
"j. c #A19E93",
"k. c #A09E9C",
"l. c #9CA08F",
"z. c #9DA293",
"x. c #96A19E",
"c. c #9DA29C",
"v. c #A2A28F",
"b. c #A2A395",
"n. c #A8A696",
"m. c #A4A996",
"M. c #A3A59A",
"N. c #A8A79A",
"B. c #A5AA9C",
"V. c #A9AC9D",
"C. c #ACB09F",
"Z. c #A5B09F",
"A. c #959DA2",
"S. c #9B9EA2",
"D. c #9F9EA8",
"F. c #A09FA4",
"G. c #96A1A2",
"H. c #9DA2A4",
"J. c #9DA5A9",
"K. c #9EAAAC",
"L. c #9CA9A6",
"P. c #9DAAB1",
"I. c #A2A5A5",
"U. c #A9A6A6",
"Y. c #A5AAA5",
"T. c #AAACA3",
"R. c #A3A6A9",
"E. c #A5AAAA",
"W. c #AAACAB",
"Q. c #A9A6AB",
"!. c #B0AEA6",
"~. c #B1AEAB",
"^. c #ACB1A3",
"/. c #A6B1AE",
"(. c #ADB1AC",
"). c #A7B0A4",
"_. c #B1B4A6",
"`. c #B3B3AD",
"'. c #B8B9AE",
"]. c #A4ADB1",
"[. c #ADAEB0",
"{. c #B2AEB0",
"}. c #A7B1B2",
"|. c #ADB2B2",
" X c #ABB2B9",
".X c #B4B5B2",
"XX c #B9B6B2",
"oX c #B6B9B3",
"OX c #BABAB3",
"+X c #BCBDB9",
"@X c #B5BAB9",
"#X c #C1BEB7",
"$X c #C0BEBA",
"%X c #BFC1BB",
"&X c #C3C1BC",
"*X c #C8C7BF",
"=X c #B6BCC0",
"-X c #BDC1C2",
";X c #C3C6C3",
":X c #CDC8C4",
/* pixels */
"V C C S P Q Q P C C U ` ` $.W H S C U W ! W ~ G C C C j 0 p K P p 5 4 6 4 4 r C W A r r q B S T S ^ ^ #.~ S V S j e e S ^ *.*.E ",
"J.R.E.[.W.W.(.E.Y.R.E.[.|.K.}.|.|.[.W.W.E.W.(.W.E.W.H.H.A.a.d.S.D.R.A.f.H.H.A.S.Y.W.W.J.J.R.R.J.J.].|.oX XJ.J.E.E.W.W.(.}.`.H.Y.",
"E.W.W.`.`..X`.'.OXW.I.'.`.~.`..X.X`.OX.XW.Y.~.W.Y.U.I.I.I.g.a.c.J.R.Y.R.R.R.g.f.g.J.R.E.E.R.E.W.H.W.W.`.Q.S.H.f.Y.W.E.W.E.W.R.I.",
"W.`.`.W.(.`./.(.oXW.J.E.W.`.~.W.W.~.'.XXY.~.W.U.U.I.I.I.F.g.A.F.J.J.Q.I.H.H.A.A.L.J.H.R.E.E.R.W.I.R.Y.W.I.Y.Y.d.H.E.`.W.E.W.(.E.",
".X.XoXoX'.oXOX%X'.OXoXoXoX.X.X.X`..XoX(.W.W.E.W.Q.Q.I.J.R.I.S.S.R.R.J.D.J.J.D.A.G.J.R.R.E.E.E.E.Y.R.W.E.E.i.Y.K.E.Y.G.W.|.oXOX.X",
"$.&.*.6.a.x.2.2.1.9.6.a.8.p.9.2.:.=.M.c.f.a.7.:.>.:.a.2.:.g.k.I.a.e.-.w.&.W $.2.t.-.E ^ ;.&.Q ^ ` | &.&.` ` $.$.3.%.$.$.:.a.c.7.",
"B B V H C U Q H C C R ` ` ` P V S B F C G P R C j j j q = 6 z C r $ = = 4 $ 5 j D M w 5 0 B D S A ~ / #./ T N A a w w V ~ $.$.E ",
"L.R.E.K.).L.J.G.i.x.L.E.|.E.}.W.(. X|.|.+X|.@X.X.X}.R.K.S.f.A.I.].P.u.u.A.A.A.R.[.|.|.G.J.P.P.J.}. X@X-X=XP.E.}.L././.|.oXoX/.W.",
"W.`..XXXXXOXW.R.J.J.(.oX&XOX%X+X&X+X;X:X:X;X*X&X+X+XXX.XW.E.W..X].W.R.E.E.I.I.U.!.Q.Y.W.E.W.I.Y.W..XOX.XoX+XOX.XOX'.W.W..XXX`..X",
"XX.XW.~.XXOXXXW.Y.W.oXoXOX+X+X+X&XE.g.f.A.H..X&X+XOXoX.X{.Q.W.Q.Q.W.E.Q.W.Y.I.Q.Y.W.W.R.W.~.R.Q.W.W.`.].E.(.`..X.X.X(.W.`.OXOX(.",
"OX`.`.|.oX+XOX@XOXOXOXoXoX+X+X+X&XA.m n n N E.#X#XXX`.~.W.R.Q.Q.Q.Y.A.R.Q.R.R.I.Y.Y.Y.S.E.[.W.W.H.A.A.A.S.R.W..XOXOXoX|.W.OX+XOX",
"oX+XoX.X.X+X.XOXoX`.%X&XOX'.+X$X+XA.D T Z R K..XOX`.~.W.W.I.I.W.W.Y.J.Y.E.I.I.J.W.W.E.E.E.W.Q.R.E m m m %.|..X.X@X.XOX.XW..XOX.X",
".X+XXXoXoXOX+X@XoX@X$X$X+XoX+X&X+XA.A A T R R.OXXX.XW.~.U.Y.R.W.W.W.W.Y.W.I.I.R.Q.W.~.`.~.|.W.J.E D N D w.[.{.XXXXXX.X{.E.[.XXXX",
"W.+XoX.X.X.XOXOX+XXXOX+X&X+X+X&X%XG.A A A R ]..X~.W.W.W.R.R.S.R.Y.W.W.W.Y.R.I.H.R.W.W.W.[.[.[.P.#.T R S w.[.{.[..XXX{.[.W.{..X.X",
"{.{.XX.XXXOXXXXX+X+X$XXX.XXX+X+X+XE.XXW.[.-XW.W.W.W.Q.I.I.H.H.H.W.~.`.W.U.U.H.I.I.W.W.W.W.W.Q.R.E e m w ;..X`.{.{.XX{.XXXXXXXX.X",
"{.~.~..X[.XXXXXX~.OX$XOXOX.X'.OX@X+X;X|..X;X.XW.W.W.E.E.J.H.I.Q.W.W.W.W.Y.R.I.H.I.W.Y.Y.W.Y.M.S.H.g.a.g.g.Y.W.`.`.XXXX{.{.XX{.~.",
"~.~.Q.E.W.~.`.XX`.OX`..X.X`.oX.X`.(.W.H.x.|.W.W.R.Y.Y.U.c.H.H.R.E.Q.R.W.E.R.H.R.E.Y.I.I.W.H.x.f.}.|.W.%X(.I.U.`._.~.~.!.W.XX`.W.",
"~.'..X~.W.~.XXOXOX'.OX`.'.W.H.H.W..X`.L.Y.(.(.Y.I.S.c.x.g.g.H.c.E.E.W.W.E.J.Q.E.Q.W.E.Q.Y.H.J.R.].W.R.|..XE.E.`.W.R.Y.Q.W.'.OX~.",
"~.W.Y.`.(.`.`.`.'.'.`.W.oX(.I.W.OXOX(.Y.Y.(.W.Y.Y.Y.I.I.J.I.g.g.W.W.Y.W.Q.W.W.E.R.I.E.Q.R.W.E.R./.}.E..XW.Y.W.W.R.W.W.W.W.`.`.`.",
"Q.W.W.|.(.`..X.X%XoX|.(..X`.|.oXoXOX.X(.H.Y.Y.W.R.Y.F.F.c.g.I.S.I.W.Q.R.I.I.I.I.J.J.Y.W.H.I.R.E.I.W.E.E.E.H.W.Y.Q.W.Q.`.~.~.R.W.",
"Q.Y.(.(..X.XXXOXOX(.W.OX.XW..XoX.X.XoX`.Y.W.W.W.W.Y.I.F.I.g.a.I.Y.R.U.I.J.I.g.d.c.Q.E.E.R.J.E.E.L.E.(.`.W.H.H.g.W.W.E.W.Q.~.J.I.",
"(.`.`./.W..XW.`..XE.H.W.~.`.W.|.W.`.OX.XW.W.!.T.R.I.I.I.F.g.g.g.F.I.R.Y.J.J.H.f.H.I.J.R.E.E.W.W.H.Q.W.W.Y.R.Y.u.H.E.`.W.Y.W.W.E.",
"W.(.'.(._..X`..X'.'..X`.(.`.(.W.W.(.`.(.Y.Y.R.U.Y.I.F.I.F.S.S.g.I.J.H.I.S.D.A.A.A.H.H.H.J.J.H.I.J.H.J.J.I.p.H.I.L.J.A.I.W.`..X(.",
"Y.W.(.(.(.|.(.^.L.(.).`.Y.Y.^./.W.^.(.Y.H.J.T.W.E.R.I.H.H.I.J.H.S.S.A.d.A.S.u.u.u.f.H.A.J.J.G.H.L.g.G.L.H.f.x.H.Y.K.L.K.W.(.W./.",
"T.Y.L.W.(.(.(.(.^.(.Y.^.Y.L.W.^.(./.^.(.H.A.E.Y.E.R.E.H.K.Y.L.E.W.R.x.A.A.g.f.i.u.d.d.t.S.H.S.f.f.H.A.S.I.x.x.I.Y.Y.W.c.x.`.^.).",
"I.Y.Y.(.Y.(./.Y.(.(.(./.W.I.I.W.W.`.`.Y.`.W.Y.J.I.I.Y.H.H.H.I.(.E.f.H.H.H.A.A.A.A.A.u.t.A.f.u.d.S.S.g.S.H.c.S.Y.Y.I.U.R.Y.T.W.H.",
"Y.E.(./.I./.K.Y.R.E.E.W.W.R.I.R.I.`.Q.S.R.W.W.Y.R.Y.R.Y.R.E.L.).H.x.G.L.G.A.A.u.u.t.e.A.A.A.d.J.A.S.g.S.g.F.F.Q.I.F.F.Q.R.W.E.H.",
"I.Y.W.I.H.Q.J.J.I.I.I.Y.U.R.Y.W.R.R.J.R.R.I.Q.I.J.H.R.H.I.Y.Y.H.H.J.J.H.G.i.u.u.u.;.w.d.f.u.d.S.g.f.f.d.d.f.H.H.I.S.S.F.S.H.I.H.",
"S.I.Y.S.H.I.I.D.H.c.F.k.I.g.g.I.Y.F.H.Q.I.J.H.H.g.H.I.S.f.H.I.c.J.I.H.g.A.A.u.u.d.d.e.d.f.u.t.d.f.p.u.d.t.p.a.x.x.x.f.a.g.g.x.H.",
"S.g.H.S.g.c.M.I.M.S.g.F.I.g.A.F.g.H.Y.g.f.f.H.Y.g.J.I.x.f.H.H.J.I.d.f.d.i.d.d.p.r.d.r.<.d.t.:.p.f.g.t.p.y.t.y.t.a.y.a.f.S.H.c.H.",
"S.S.I.f.a.k.c.c.I.Y.g.M.I.a.a.M.M.x.M.g.I.L.H.H.c.c.H.f.a.S.H.f.x.x.S.x.d.t.e.-.:.-.;.&.:.t.:.a.d.f.g.u.y.t.d.f.d.f.d.g.g.g.g.g.",
"g.S.S.f.p.S.g.H.F.I.c.H.a.g.f.c.g.d.I.H.W.Y.H.Y.H.H.g.H.g.S.H.g.H.L.S.f.u.p.e.e.:.e.e.r.:.&.:.2.t.a.g.g.g.y.t.d.g.a.d.G.d.a.f.S.",
"g.S.g.f.d.f.H.I.S.S.I.S.F.I.H.H.g.M.R.E.W.I.Y.R.Y.R.H.H.S.S.A.S.A.g.d.t.d.w.t.t.u.t.t.w.w.t.;.;.i.g.f.g.f.f.H.i.t.t.d.f.f.S.f.f.",
"d.a.g.k.A.d.g.S.F.g.g.A.F.d.f.G.g.I.U.I.g.g.I.I.g.g.H.S.g.g.f.f.f.i.p.r.d.d.w.w.t.e.&.-.-.t.d.t.t.a.f.H.g.p.f.d.p.:.p.a.d.d.d.d.",
"k.k.Y.W.U.Y.I.Y.Q.Y.B.Y.Y.W.(.Y.Y.Y.`.^.I.Y.T.T.Y.c.c.M.g.k.M.g.g.M.I.g.g.a.p.2.:.>.&.| >.a.g.p.p.a.s.I.g.g.I.c.k.g.M.a.a.a.k.I.",
"Y.V.V.!.V.T._.B.b.N.^.^._.'.'.V.V.B.b.C.).T.T.).(.^.T.M.b.n.V.T.B.V.N.s.b.0.=.9.8.0.X.U I ,.M.a.0.9.z.c.s.0.j.z.M.6.>.s.M.M.N.U.",
"B.z.b.T.V.T.^.^.Y.B.Y.m.U.V.Y.m.M.c.).^.^.T.).B.V.m.0.s.b.0.j.T.z.c.m.8.X.o.] [ 1.[ [ 9 3 h ] X.X.4.z.l.l.c.c.q.5.{ x v 4.M.j.s.",
"j.8.M.B.^.V.C.^.V.Z.c.c.B.B.z.Z.Y.).^.^.^.^.^.T.b.N.N.N.M.0.b.s.0.N.M.s.1.X...o.1.` k h I Y [ 1.4.4.z.c.z.9.z.9.@._  .8.0.N.0.b.",
"9.4.m.B.b.m.V.V.T.m.m.l.s.m.m.V.^.^.^.V.m.^._.c.m.T.B.B.V.M.b.4.8.m.m.z.b.s.s.7.s.l.1.q.s.z.z.l.z.c.q.9.l.z.z.M.h.n.V.V.n.V.N.M.",
"b.V.N.W.U.B.B.m.M.B.b.m.B.V.m.b.m.Z.V.C.m.m.^.B.B.V.Y.B.T.B.8.N.U.M.W.N.b.0.6.6.9.( 2 4.0.s.q.8.m.z.z.z.b.m.m.m.j.V.V.b.b.!.U.s.",
"b.M.c.z.N.M.B.M.).T.V.m.b.b.b.m.m.T.B.m.V.V.B.z.c.b.b.M.b.b.z.c.m.z.b.N.b.s.,.4.7.h y ..5.s.p.4.z.s.0.q.s.N.b.c.M.M.U.l.z.M.M.c.",
"s.z.m.z.m.m.B.^.V.V.b.b.b.b.v.q.b.V.m.m.N.N.I.B.m.z.B.m.z.z.z.l.m.b.z.b.b.s.,.7.7.X.0.7.,.h.s.6.7.4.6.q.6.z.0.9.0.s.s.z.l.l.l.z.",
"s.z.B.M.m.V.m.T.^.Z.B.z.b.m.^.m.z.B.M.).Z.B.m.m.m.m.N.M.z.0.z.s.b.B.m.B.M.0.,.5.| K =.,.0.0.8.4.0.a.s.8.9.s.s.s.s.s.8.s.0.z.0.s.",
"b.b.V.m.m.V.^.C._.^.V.z.z.V.V.V.^.B.B.B.Z.z.m.c.c.m.z.j.b.l.q.m.m.B.N.N.N.8. .L F ( s.8.0.j.j.s.b.0.B.b.0.s.b.N.M.c.b.m.b.z.z.9.",
"m.V.m.).z.s.b.0.b.b.C.s.z.m._.V.0.C.C.b.C.V.b.B.M.b.s.0.s.T.B.B.Y.b.N.0.8.5.[ ( [ { 8.7.8.8.8.8.9.8.j.M.s.s.s.9.V.T.M.m.c.l.B.V.",
"T.T.m.V.z.9.8.9.9.| 6.^.V.V.n.V.B.z.b.N.V.C.^.W.B.N.M.M.b.m.T.B.m.b.s.9.1.o.O.O.4.,.,.8.,.=.O.O.5.O.7.8.,.7.9.8.l.l.z.b.B.m.m.B.",
"N.M.U.T.z.8.b.s.M.M.M.B.Y.z.s.W.(.M.s.z.T.T._.^.Y.b.0.7.7.9.s.N.M.s.0.4.X.( Y  .O.4.1.9.5.,.=._ _ [ ,.<.7.O.v  .,.X.7.X.,.6.a.0.",
"=.9.=.5.s.s.j.z.7.s.s.8.s.0.z.V.^.M.a.s.b.m.V.^.Y.M.s.9.O.=.,.=.5.5.4. .X.( J @.5.8.9.7. .X.=.>...5.X.,.,.( i Y ,.9.7.s.s.,.O.,.",
"0.j.B.c.M.b.V.U.m.0.8.M.M.z.s.7.n.V.M.g.b.M.V.^.T.B.f.z.9.4.7.s.9.5.4. .o._ o.X.X.,.=.7.o. ._ ,.8.=.,.9.,.,.,.>.1.M.z.z.m.s.,.7.",
"j.M.V.^.m.V.W.N.V.Y.0.s.M.M.7.=.0.j.0.M.b.z.m.C.m.m.z.9.8.z.s.0.7.O.X. .[ [  .F [ ..=.=. . .[ f z X.Y z ..,.5.X.[ l o.s.j.s.s.M.",
"0.j.V.W.^.V.V.C.V.N.0.8.h.h.j.b.b.b.0.b.0.q.b.C.B.z.z.z.0.9.s.9.4.5.,. .| | _ _ 7.| ,.7...o.[ u < [  .L [ =.0.1...J ..l.n.n.0.b.",
"@.o.5.n.v.m.m.C.b.5.6.4.6.X.4.q.v.V.V.m.q.q.l.z.z.q.4.( ] o.4.4. .X.O.[ _ Y _ _ ,.O.X. .[ | k 9.o.o.7.9.9.8.9.q.7.6.1...J K ..4.",
"0.+.X.v g q.m.m.l.} o.9.4.5.@.q.0.b.V.V.M.7.0.z.l.l.X.b s 6.9...| L ( _ Y k I l z U z _ ] Y g | =.7.4.4.z.z.z.l.B.B.X.c 8 2 +.c.",
"l.z.s.o.h +.4.4.q.+.Y u g b.B.V.C.V.n.m.V.B.z.0.l.b.4.l s X.6.@.Y F ) I I K Y Y z k J J J J l J  .X.,.O.1.0.q.4.6.+.X.X.: * ' l.",
"o.@.b.q.9.z.X.+.4.4.9.' ] b.V.V.m.V.N.m.V.m.b.b.j.n.s.X.( @. .( _ o.Y I ( Y _ =.4.,.0.8.[ Y J _ ( o. .O. . .O. .o.X.X.1.X.v +.o.",
"u L l.@.4.l.l.z.l.0.4.1.] X.s.0.z.z.0.b.b.b.M.M.9.2.4.5.] o.[ s z I I I l h ! [ # O O @ $.k y I I _ =.X.[ Y [ [ X.} 6.8.v.4.+.o.",
"O.{ 4.8.,.4.8.b.z.8.9.9.=...X.,.z.9.9.6.4.b.1..     . | o.[ 4.Y i v F J I K [ !         ` ' ....[  .0.9.X.o.[ _  .h ( { } ( O.5.",
"{ O.4.5.,.5.5.0.0.4.6. .5.X.X.o.=.5.7.z.4.0.*.X O + X *._ z ( I ) _ U I I Y k | | *.` ~ 3.k J !  .5.8.q.X.=.1.h L X.O.J v x Y { ",
"( { O.,.4.@.o.4.8.X.+.6.7.=.7. .,.O.5.4.X.,.z.Y.c.x.7.:.! _ ( k g t f f k z J ' J g k U ' k f f ( X.@.5.X. .X.J L X.{ b 5.{ X.{ ",
"{ O.O.O.8.h.O.[ } @.X. .X._ X. .]  .| @.6.4.9.0.5.O.K F z i J Y p l l u u k f p z s z Y J ' _ J 4.X.[ } X.=.] Y [  .O.0.] y i l ",
"{ _ ,. .o.,. .4.,.[ O.X.,.o.X.] ]  .[ @.4.0.5.5.h.O.[ ) g t s K K ( Y K z k [ f u F [ 4.7.I K  .O. . .O.[ O.O.[ _ [  .J s o % 2 ",
"v I ( ,.0.0.=.[ O.,.5.5.b.b.m.m.b.q.8.q.n.n.N.n.n.b.0.O.g ( K ) ( Y I h 9 $ y g I ,._ I =.o.h 8.8.X.] ] [ O.[ {  .o.[ y > $ v I ",
"u h y g O.i u z s y i l v [ [ ] ) ] { } ) v L [ K ) ) v d v g g y & ; > 1 & % % , 7 % , l ( z z t 2 g 2 2 t i d L s ) ( l t ( z ",
"t y s 7 2 2 2 i y i y g s s y i i i d i i g x l x i i y 7 2 9 7 ; $ & $ $ 1 1 & $ & , , 1 : y < 2 7 7 7 2 > 2 < 2 2 t 7 t y < 7 "
};
