/* XPM */
static char *Wall_N1742916712[] = {
/* columns rows colors chars-per-pixel */
"64 64 246 2 ",
"   c #1F1E19",
".  c #1D211A",
"X  c #25261E",
"o  c #1E2927",
"O  c #2B2D25",
"+  c #262B26",
"@  c #342D27",
"#  c #2C342D",
"$  c #28352A",
"%  c #333C2D",
"&  c #31352B",
"*  c #2A3835",
"=  c #333C33",
"-  c #3A3D35",
";  c #373939",
":  c #2E2E32",
">  c #47392A",
",  c #5F3E23",
"<  c #413B33",
"1  c #623C21",
"2  c #552F16",
"3  c #3A4434",
"4  c #3B433A",
"5  c #3E4A3A",
"6  c #394836",
"7  c #33432E",
"8  c #42453B",
"9  c #434C3C",
"0  c #484A37",
"q  c #55493D",
"w  c #45523D",
"e  c #4A563D",
"r  c #46553A",
"t  c #54452F",
"y  c #65412A",
"u  c #654B36",
"i  c #735239",
"p  c #6A623D",
"a  c #3C4A43",
"s  c #434D43",
"d  c #4B4C43",
"f  c #4B4E48",
"g  c #434946",
"h  c #514E45",
"j  c #465343",
"k  c #4B5443",
"l  c #4D5A45",
"z  c #4C5549",
"x  c #4D5B4A",
"c  c #455449",
"v  c #5B5343",
"b  c #535B45",
"n  c #53554B",
"m  c #535C4C",
"M  c #595D4C",
"N  c #585845",
"B  c #4A5755",
"V  c #535652",
"C  c #545C52",
"Z  c #5A5C52",
"A  c #5A5D5A",
"S  c #555A58",
"D  c #494E51",
"F  c #635C4E",
"G  c #6A5B4B",
"H  c #675646",
"J  c #775C48",
"K  c #635C54",
"L  c #685C56",
"P  c #735D50",
"I  c #56624C",
"U  c #5A644C",
"Y  c #59654A",
"T  c #556253",
"R  c #5B6453",
"E  c #5D6954",
"W  c #54635B",
"Q  c #5B645A",
"!  c #5D6B5C",
"~  c #4E604E",
"^  c #68674B",
"/  c #7D634B",
"(  c #766749",
")  c #626553",
"_  c #636A55",
"`  c #6B6B54",
"'  c #62655B",
"]  c #646C5C",
"[  c #6A6D5C",
"{  c #6B6459",
"}  c #746455",
"|  c #746C55",
" . c #756B5C",
".. c #7B6C5B",
"X. c #7A6756",
"o. c #647057",
"O. c #6C7256",
"+. c #65715C",
"@. c #6B735D",
"#. c #6C795F",
"$. c #73735D",
"%. c #7B735C",
"&. c #767A5D",
"*. c #7B704A",
"=. c #5F6863",
"-. c #5E7164",
";. c #646E62",
":. c #6A6D62",
">. c #656C68",
",. c #726E62",
"<. c #796E66",
"1. c #657263",
"2. c #6C7363",
"3. c #6E7864",
"4. c #6C746B",
"5. c #6C7A6C",
"6. c #65766B",
"7. c #727564",
"8. c #7B7364",
"9. c #747A65",
"0. c #7B7C65",
"q. c #73756A",
"w. c #7B746A",
"e. c #747B6B",
"r. c #7B7D6C",
"t. c #6D7C72",
"y. c #6F7675",
"u. c #717572",
"i. c #747B72",
"p. c #7B7E71",
"a. c #7C7F79",
"s. c #777977",
"d. c #8B5E48",
"f. c #86644C",
"g. c #826854",
"h. c #896B5A",
"j. c #856856",
"k. c #86735B",
"l. c #89775C",
"z. c #93725B",
"x. c #926C57",
"c. c #836B65",
"v. c #847463",
"b. c #837C66",
"n. c #8D7B65",
"m. c #83746A",
"M. c #837C6B",
"N. c #8B7C6C",
"B. c #8D7566",
"V. c #967A67",
"C. c #827D72",
"Z. c #8A7E72",
"A. c #837C7A",
"S. c #957C72",
"D. c #76816D",
"F. c #7C826D",
"G. c #7A8067",
"H. c #768272",
"J. c #7C8273",
"K. c #7C847B",
"L. c #7C897D",
"P. c #7C8776",
"I. c #6C8474",
"U. c #83836E",
"Y. c #878369",
"T. c #838573",
"R. c #898573",
"E. c #858975",
"W. c #8A8A75",
"Q. c #83857A",
"!. c #8A857B",
"~. c #858A7B",
"^. c #8B8C7B",
"/. c #938574",
"(. c #918A75",
"). c #928D7C",
"_. c #978778",
"`. c #8D907D",
"'. c #899077",
"]. c #93917E",
"[. c #919076",
"{. c #97836D",
"}. c #A28E76",
"|. c #7D8884",
" X c #848482",
".X c #848C84",
"XX c #8B8C82",
"oX c #858E8A",
"OX c #8A8E8B",
"+X c #888788",
"@X c #938D83",
"#X c #968C86",
"$X c #8D9284",
"%X c #8D948B",
"&X c #8B978C",
"*X c #939384",
"=X c #9C9485",
"-X c #93958A",
";X c #9A948B",
":X c #94998C",
">X c #9B9B8C",
",X c #858F92",
"<X c #8E9492",
"1X c #8E9A94",
"2X c #8A9E98",
"3X c #949591",
"4X c #9A9693",
"5X c #939C94",
"6X c #9B9D93",
"7X c #9C9E9C",
"8X c #949B9A",
"9X c #A08F86",
"0X c #A39B8E",
"qX c #A59689",
"wX c #A39B92",
"eX c #A89E95",
"rX c #95A296",
"tX c #9CA295",
"yX c #96A29B",
"uX c #9BA49C",
"iX c #9DA89B",
"pX c #9EA08E",
"aX c #A4A18C",
"sX c #A2A194",
"dX c #A2A59A",
"fX c #A4AA9D",
"gX c #ABA89B",
"hX c #B4A89F",
"jX c #989FA2",
"kX c #9CA5A2",
"lX c #9DABA3",
"zX c #9BA7AA",
"xX c #9DB0AF",
"cX c #A2A6A1",
"vX c #A3ACA4",
"bX c #ABACA5",
"nX c #A3ACAA",
"mX c #AAABA7",
"MX c #ABB3AB",
"NX c #AAB2A5",
"BX c #B4B6AA",
"VX c #AAB6B4",
"CX c #B2BCB5",
"ZX c #B1A4A0",
"AX c #B9C5BC",
"SX c #D7D3D1",
/* pixels */
"= 7 o : ; * o * * : < < @ a * 4 O + + + a Z W B j + $ o   O + O 8 d g = c c f 8 O O . - = 9 < : : = + . X O : ; : : - @ @ > ; : ",
"; a B D a g B B B K K n V A S W Z n a B S Q =.>.6.Q z Z f Z V S ;.A 4.4.4.>.u.' x S S W Q 4.A A ;.W A V h K n ' V V ; & A K L d ",
"< d A =.S >.y.s.S -.y.6.A.;.>.|.i.1.-.-.t.,Xs.u.|.4.T =.y.>.V ;.s.|.2XnXuX5X|..X|.oX8X&XoX|.|.u.' c z s.>.>.' >.>.y.>.Z  XA.,.h ",
"L ,.,.w.4. X+X4X+Xs.Q u.|.q.c =.H.i. .l 4.K.q.f ;.4.;.6.oX<X,X,XnXCXyX1X1X1XnXCXVX$XoX.X<XvXVXkX1.t.6.y.+XOX+Xq.Z x K.u. X4XA.w.",
"c.A.8.w.S 2.+X-Xs.K K w.w.' 8 Z 4.A q G N.XXs.Z n 7.{ A.|.:.<.K.~.oXXX;X<X$X&X.X.XA.@X$X$X<X3Xq.Q.6Xw.+Xs.3XMXs.K.L.u.,X4X4XA.L ",
"8X8XOX7Xa.q.Q.a.d 0 J j.-X+XH 0 Z & 8 / h.4X<X} v m.9X=XR.<.w.w.r.i.<X8XuX-X!.H.e.$X:XtX6XQ.#X!.@X9X9X=XXXQ.4.A.vXT.XX|.3XSXZXL ",
"w.OXC. XOX!.XXQ.;.A w.} q v N [ w.2.2./.<.H v.wX4X X4X;XwXmX.X,.-X/...Q.1Xi..X>Xn.P T.&X4.R.0XwXA.#X3X XM.A.#X#X#XwX;XQ.ZXeX4X<.",
"p.r.m.T.-Xr.T.K.Q.r.Q.<.P ..^ | q.:. .M.!.W.).Z.A.kXnXOXC.dX5XC.4XV.f.W.yX:X>XqXx.d.M.~.K.#X!.C.3XnXjX4.<.=XqX XOXjX7X4X7XA.A.C.",
"} u i B.B.h.B.C.t u J N.B.J J ..m.1 i d.{.NXNXcXmXvXyX!.,.P u } W.;XuXlXyXdX-X>XaXdX5X:XdXNXvXcXMX8XK.p.!.!.<.+XzXzX|.!.ZX;X$X>X",
"v.z.d.J P P P m.z.x.B.B.H } J H c.V.V.{.R.6X6X@X^.T.N.@X+X{ v K -XuXVXnX|..X-X8XuXnX6X^.>XsX>X^.!.C.^.:XvXkXkXmXjX2Xa.q.!.w.p.0.",
"| G H v g.J } A.).fX;X:.L ..P <.XX!.eX_.0Xc.u X.J 1 1 C.3X-X-XK..X.XO.E.&XyXlXmX=XJ i l.4Xu i h.1 i m.R.).W.r.C.w.!.K.p.#X*XC.<.",
"<.} .. .h.X.U.:X-X7X3X!.C.m.j.!.7XeXeX#XgXsX;XZXqXh.k.!.XX.X^.:X:X:X*X5XkXuX7XlX6X_.}.gXmX=X0XgX/./ H ;Xu , g.y 2 v Q.a.XX;X^.C.",
"M...8.M.X.i e.5X3XuXQ.~.OX..G T.7X4XfXvXfXlXVXiXtX6X-X6X:XL.%X.X$XuXnXvXyXvXvXvXMXCXVXvXdXNXNXtXsX]._.dX*X=XeX(.X.m.Q.p.p.^.@X^.",
"_.k.N.!.w. .w.3X8X1X'.$XOXOXA.Q.cXuX5XuXkXtXiXiXuX5X5X5X:X$X&X%X:X5XoX&XyX8XkXkXuXkXkXvXtXtXiXiX*X(.0X].:XtX-X$XT.q.XX$XT.@XQ.Q.",
"j.g.h.w.XXK.<.^.lX:XN.A.OX1X,XXXuXVXlXfXNXvXtXtXtX6X;X5X:X$X~.XXyXkXuXvXvXbXvXnXVXMXbXNXvXfXtXdXtX>X*XT.'.:X:XXX0.p.;X-X!.XXZ u.",
"m.d.v.cX-X5X6X8.r.@Xz./.VXzXxXCX4X;XMXAXVXBXNXiXtXtX-X:X6X&X~.$XyXuXnXAXvXMXNX=X=XNXAXCXBXBXfXfXtX-X^.J.:X$X:X:X*XXXT.r.T.^.!. X",
"sX}.v. XA.q.!.R.-XVXeX). XK.s.zXT.Z.:XyX5XtXtXtXtX>X$X:X&X`.~.>X6X7X6X5XuXcXmXB.n.tXrXrX6XtXtXiX6X>XpXtXdXtXtX-X^.T.XXU.T.&X:X4X",
"MX>X~.w.G u G R.5XlX5X$X^.{ :.<X,.tXyXkXiX-X6X>X*X*X:XXX6X>X;X!.#XXX&XkX<X&X4X;X6XfXiXiX6XtXtXdXtX:XsXdX:X>X>X*X;X^.-XsX4X4X:X6X",
" .<.%.{.}.n...J / } <.../.aX*Xw.@X:X&XpXaXsXtX$XC.W.>XXX&X^.*X#XuXfXiX5XyXMXdXdX6XdXfXBX6X6XtXtX6X-X .:.e.^.R.*X$X!.w.w.$.M.v.X.",
"B.S.j./ / P B.j.x.S._...X.N.T.K.$X$X^././.).>XsXsX*X=X$X@Xp.T.!.$XXX^..XfX4X>X>X*X-XhXBXvXsX6X6X>X:X^.-X:X*X!.^.XX$Xq.) 0.R.j.f.",
"`.^.XXR.8.!._.g.b.E.K.U.H H } } } C.!.*X>X-X;XXX^.!.^.$X~.>X*Xp.M.U.;XiX7X4X6X^.0.*XbXgXBXBX>X>X:X;XwX$XtX6X~.!.^.!.^.@X!.W.g.l.",
"J.w.A.C.r.p.#XS.C.q.{ R.m.M.U.m.M.m.m.Z.@XR.m...U.^.@X~.r.@X).}  .8.qX6XOXC.=XY.} ).gX>X^.F.W.).W.^.^.T.T.T.F.M.T.T.^.U.T.).N.U.",
"F.T.T.p.2.:.Q.C.J.7.[ p.r.r.r.q.C.!.M.<.r.{.n.g.%.T.^.W.M.G.| v b.m.).wX!.Z./.v.n.(.>X>XW.).].=X).^.W.T.$.` $.M.U.r.U.F.0.0.7.U.",
"U.!.^.T.r.p.T.M.p.w.C.p.r.p.p.r.q.C.^.J.F.W.*X^.R.W.W.R.0.#.U @.[ _ E.~.J.].E.R.{.=X0X>XaX=X=X].W.T.^.W.W.W.T.W.U.T.E.U.F.T.T.U.",
"F.U.T.T.J.C.C.T.C.0.r.T.q.q.w.r.p.r.Q.^.).'.E.E.^.T.W...t 0 p N q v ^ [ r.r.T.*X^.*X=X*X*X=X*X].R.U.W.E.'.(.^.W.R.U.E.W.U.G.J.J.",
"E.W.U.J.T.A.A.Q.M.0.r.p.q.r.q.q.p.T.T.T.R.W.[.W.^.W.W.$.G | W.0.%.u G ~.r.p.W.*X`.*X=X*XE.U.W.W.^.W.^.'.~.^.W.U.R.U.0.R.E.T.^.W.",
"T.E.E.U.A.Q.Q.R.U.r.C.r.r.p.q.q.e.r.!.E.E.'.(.).^.^.U.T.T.0.r.0.0.R.~.aXpX>X*X^.*X*X*X].F.` W.^.E.E.'.'.W.W.W.U.F.0.M.U.U.U.W.XX",
"R.E.E.U.T.p.w.r.r.r.M.p.r.q.q.e.p.w.e.T.W.U.T.W.].R.0.$.G.e.2.T.J.:X:XC.^.^.@X*X$X`.`.~.F.0.W.[.W.'.E.W.U.W.E.E.T.R.U.R.W.W.T.~.",
"T.r.F.U.T.9.9.e.q.e.r.e.q.q.q.,.q.q.J.!.~.W.W.R.U.U.0.r.p.R R q.p.T.p.q.XX$X*X*X^.$X'.`.W.^.R.T.T.W.U.F.U.E.T.T.T.T.T.R.T.!.W.T.",
"G.F.F.J.F.r.E.F.~.T.J.r.r.$.q.q.w.q.q.F.F.W.W.T.U.M.%.[ T.P.p.9.R.r.D.2.e.XX-X`.-X$X~.:X`.^.U.R.U.T.T.W.W.R.U.U.F.U.T.R.W.W.!.P.",
"E.E.XX~.T.P.r.U.p.T.r.r.0.7.e.e.7.,.2.9.9.W.W.T.U.8.$.$.#._ T.9.Q.~.J.$XF.-XXX^.`.~.~.`.$X].U.W.E.W.W.E.W.W.W.E.T.T.W.T.T.!.^.^.",
"E.E.P.^.!..XT.T.J.F.p.r.0.0.q.q.q.9.p.!.r.r.r.R.R.0.8.8.%.$.T.P.J.e.+.~.~.E.*X~.~.~.W.v.b.U.T.E.U.U.W.^.^.(.W.T.E.W.R.r.9.0.~.~.",
"T.~.P.T.Q.~.Q.T.K.e.7.@.7.9.7.#.9.2.e.e.9.p.U.W.^.M.@.$. .$.r.H.r.e.J.*X$X~.~.T.E.~.*XW.R.R.Y.F.U.G.%.%.%.Y.T.R.R.T.T.E.U.F.F.E.",
"E.Q.T.P.J.T.XXQ.P.p.9.9.7.2.2.7.e.i.q.e.e.2.0.F.0.R.0. .[ $.$.e.r.r.p.J.T.~.~.XX).).W.U.R.U.F.U.U.W.h.f./ b.(.U.U.T.T.W.U.F.9.T.",
"~.T.E.~.!.F.T.J.P.Q.D.G.J.p.e.0.r.e.7.2.q.[ 8.9.r.U.$.[ { $.0.U.q.q.r.Q.~.E.E.M.m./.T.b.b.E.W.W.W.W.R.l.f.x.G.E.^.W.U.T.U.~.~.!.",
"~.~.~.W.^.i.3.3.J.p.9.D.e.p.q.e.4.[ 9.7. .q.r.r.R.9.` ` ) &.G.9.q.2.:.J.XXT.U.{.k.b.U.0.U.~.M.N.(.U.R.O...l.Y.Y.U.T.0.~.F.r.E.T.",
"~.~.~.~.T.~.P.G.q.p.e.i.q.q.9.4.1.2.@.2.:.:.2.7.U.$.` @.#.&.O.$.7.p.2.~.T.J.U.F.U.F.Y.W.U.U.v.k.Y.U.0.U.^.].Y.U.U.W.U.F.E.T.r.J.",
"P.~.Q.J.W.XXJ.r.1.0.D.e.e.7.1.2.2.@.@.1.9.2.q.9.U.G.O.U.G.( ` #.#._ e.~.~.e.9.[ ~.`.W.'.W.).(.N.&.O.U.'.#.e.E.~.F.E.W.T.T.~.~.~.",
"~.~.D.r.J.K.D.T.P.J.J.e.e.e.e.2.2.2.7.#.7.1.1.q.H.=XR.&.&.%.^ G.0.2.D.H.H.F.@.$.'.W.F.~.~.9.3.E.'.(.Y.O.^ O.r.~.E.F.T.E.J.~.$X~.",
"^.XXT.p.p.J.p.q.e.9.J.r.e.e.e.7.q.[ 1.;.1.e.q.7.e.8.^ *.&.[.G.G.$.0.~.J.P.~.U.^.W.T.].*Xp.] P.U.9.@.( %.Y.).T.W.^.T.~.E.T.W.`.`.",
"~.$X~.P.H.p.J.H.2.e.e.u.e.9.9.2.1.] ] 2.9.p.e.e.9.E p ( &.R.*.*.| e.P.J.i.7.e.$X~.~.`.E.G.P.T.e._ ) ( l.}.>X'.*X^.P.J.T.~.^.E.~.",
"$XJ.Q.J.T.J.p.J.J.p.9.9.2.1.q.q.] ] ] 2.4.;.q.9.p.9.^ k.&.Y p p _ ] 9.p.e.r.J.E.$X~.E.^.T.~.~.~.G.@.X.W.'.`.F.U.F.~.P.9.e.P.J.P.",
"i.e.J.p.p.J.r.H.T.i.r.H.2.] q.4.2.1.:.;.] [ 1.e.J.A.2.1.&.O.( *.1.e.H.>.5.1.+.e.F.E.*XE.~.E.~.E.F.9.2.] +.+.#.T.J.J.F.T.e.9.9.H.",
"9.4.H.T.J.~.r.J.J.H.e.e.4.+.[ 2.2.+.:.2.] ] @.@.H.C.7.3.G.U.&.G.~.K.P.e.E e.~.$XE.~.J.F.~.D.3.D.F.D.9.1.3.o.#.F.T.E.T.~.~.Q.e.e.",
"J.H.P.r.r.r.J.J.H.9.9.e.e.1.[ 2.q.2.:.1.:.] 2.9.D.9.r.G.0.].'.#.e.e.p.e.9 e.~.e.$X$X~.P.E.e.T 1.2.7.r.9.#.F.0.G.F.F.T.F.H.E.H.e.",
"2.9.q.H.i.1.2.9.2.2.e.;.[ [ 1.[ ] ] 1.] ] [ ] 2.3.e.H.G.F.~.9._ R J.5.9 9 :.2.P.P.5.XX~.~.5.! 3.5.U.F.9.9.9.9.F.F.F.P.E.^.H.7.e.",
"J.H.H.e.e.F.7.1.] R ] :.' b m ' Z ] ] R m T ! 2.D.D.J.E.F.3._ _ J.2.k w x k _ m w 9.H.~.P.1.m 2.9.T.W.E.#.#.D.G.E.E.~.P.D.e.D.P.",
"e.r.D.p.0.r.p.H.3.[ @.I R R b n k n Q R k m E 2.G.D.G.E.F.F.9.9.F._ ] m e T.] 3 k R m ) T _ R 3.9.T.9.7.G.#.G.G.#.F.F.G.J.D.U.9.",
"F.9.G.e.e.9.7.G.9.9.#.I b R m Z b Y ] m ' T ! 2.9.9.G.G.F.E.0.3.[ ] e.H.@.q.1.1.9 j 6 R R C 1.` 5.i.@.@.#.0.0.D.3.9.G.G.E.'.F.F.",
"9.G.G.D.p.p.P.e.3.@._ n e 8 8 m R [ ] R I m o.e.G.3.9.9.@.J.F.G.1.q.] ) 7.M R x j R e l m E 1.1.e.e.R [ #.E.e.D.9._ O._ D.F.F.9.",
"G.9.G.D.e.9.2.1.e.9.2.U k b e 4 R +.[ ! +.x E H.@.9.e.P.G.F.J.D.7.4.M % 9 7.R w I 3.@.-.R m 1.K.p.r.[ 3.E.9.G.Y Y I I @.F.U.#.#.",
"#.3._ 9.9.9.q.9.1.2.e.U M R k M 1.o.+._ I R -.e.e.~.P.F.F.J.e.4.2.e.2.x 2.H.H.+.4.+.R ! 1.I e.J.K.H.m 9.~.F.@._ o.o.Y E o._ @.o.",
"O.#.#.o.#.+.] 2.1.e.9.b d k m Q 1.+._ +.3.+.' J.e.r.P.F.r.G.e.q.[ +.J.] P.H.I.;.E ] 2.J.7.+.] ) Z ] Z ] 9.9.@.E P.~.1.o.#.O.U 3.",
"@.@.E I Y Y I _ p.2.+.E Y U k R +.T 5 m W 1.! Z n ) 9.0.F.D.e.3.1.) ] H.F.H.I I ] E p.4.e.1.3 k R n Z i.@.m Y D.#.3.~.H.#.@.E 9.",
"+.r r e b @._ +.7.' ] _ I Y k I m 7 ! W ] E m e 9 b [ $.@.[ ] 3.D.5.i.] j [ x 1.+.D.9.Q.q.d k k n h ] q.] _ ) G.O.F.e.3._ 2.9._ ",
"Y I Y ^ o._ o.b w m Y I l k s 9 ~ 1.5.5.5.-.k m R m ) _ [ E I R ! =.s % # 7 w E H.H.u.e.] Q u.>.Z h R E 9.K.e.-.R I 3 3 +.D.9.#.",
"Y r Y 3.3.o.Y l j l Y ~ ~ T l j E I.-.! 6.6.! C C 9 k ' @.] R R R T c = 4 5 x ] D.r.2.) e.|.t.1.2.R ] 1.r.P.1.c a Z p.J.F.+.U I ",
"r l 3.E T E Y r l E 9 6 j Y I I -.I.6.T -.3.-.a 4 C n m m R _ m R c x 9 - x +.e.e.e.K.e.P.L.5.' q.) +.[ _ 2.Y t e 3.+.] q.e.m 5 ",
"T E 1.D.Y 6 r r e l l 6 m l l I -.! 1.6.6.=.E 6 j C ' k k R M k m s o = $ e H.e.Q.2.q.e.P.L.P.e.:.' J.i.+.F.e t q b e M E I l b ",
"l ~ o.o.e r r Y ~ I l $ k W R k x C ~ T ! m w 7 3 s V z 3 d C E T # # a 6 j 5.q.p.r.e.2.i.4.u.e.i.r.3.[ _ O.0 q b 8 8 9 9 w T _ ",
"e l r r ~ E Y r 6 6 l a j j 5 = j 9 = C 9 3 d + = n = - f s c T 5 % z c 4 j ! ;.e.4.1.] ,.:.C ,.d 0 ] b _ Y e 9 4 O < 9 9 x T E ",
"E l 5 j E E r 6 5 j j x c a x 7 5 w c j 5 % 8 - d 8 $ 4 V f 8 z m m s a % c >.u.4.' ) Z q.Z Z q.F { 7.R _ U $.^ H q N b l T R U ",
"w m R x E ! l l l m j j j B 5 j 5 x x 7 3 9 8 z 4 % & 3 d d n j ] E j z c T T 1.q.>.] [ ;.u.4.9.r.).@.) [ R N ^ ) +.j k l l w 6 ",
"m 1.E E I 6 j w j I ! ! ~ ! T x x T ~ ~ l l x k z 8 X 4 s @ 3 k W T R T C x T =.1.1.l R R i.$XP.q.U e @.2.+.` N ` [ 9 3 l k l w "
};
