/* XPM */
static char *wall_S1742331680[] = {
/* columns rows colors chars-per-pixel */
"64 64 213 2 ",
"   c #1B1F1E",
".  c #26241D",
"X  c #29261E",
"o  c #1E1F24",
"O  c #1F2022",
"+  c #242324",
"@  c #2D2A24",
"#  c #2C2C2C",
"$  c #242829",
"%  c #302D26",
"&  c #312D29",
"*  c #2D312F",
"=  c #33322D",
"-  c #3A342E",
";  c #3D3B2F",
":  c #2A2E31",
">  c #2D3137",
",  c #343433",
"<  c #3B3633",
"1  c #353936",
"2  c #3C3A34",
"3  c #363A3A",
"4  c #3C3C3B",
"5  c #37363A",
"6  c #352F31",
"7  c #423E3A",
"8  c #403931",
"9  c #3D423C",
"0  c #44423D",
"q  c #49453E",
"w  c #4C4A3D",
"e  c #444436",
"r  c #524F3E",
"t  c #3B3C41",
"y  c #3D4041",
"u  c #444343",
"i  c #4A4642",
"p  c #4D4A44",
"a  c #4C4B4B",
"s  c #454847",
"d  c #524D4B",
"f  c #514C44",
"g  c #56524C",
"h  c #5A554E",
"j  c #5C5A4C",
"k  c #545244",
"l  c #4D4D51",
"z  c #555353",
"x  c #5A5552",
"c  c #5D5A55",
"v  c #5C5B5A",
"b  c #575759",
"n  c #615C55",
"m  c #625D5B",
"M  c #5E605D",
"N  c #66625D",
"B  c #69645D",
"V  c #676556",
"C  c #665D60",
"Z  c #666362",
"A  c #6B6663",
"S  c #6D6964",
"D  c #6D6B6B",
"F  c #666869",
"G  c #726C65",
"H  c #726D6B",
"J  c #75726C",
"K  c #79746D",
"L  c #7B796D",
"P  c #767265",
"I  c #726F75",
"U  c #747473",
"Y  c #7B7673",
"T  c #7D7B75",
"R  c #7C7B7B",
"E  c #757778",
"W  c #6D7076",
"Q  c #827C75",
"!  c #827E7A",
"~  c #7D807D",
"^  c #848174",
"/  c #85827C",
"(  c #89857D",
")  c #8D8A7D",
"_  c #7B7B81",
"`  c #707D83",
"'  c #6F7C85",
"]  c #837F80",
"[  c #7C8185",
"{  c #838384",
"}  c #8A8583",
"|  c #8C8A84",
" . c #84898C",
".. c #8C8B8A",
"X. c #868789",
"o. c #928D85",
"O. c #928D8B",
"+. c #9E8F8A",
"@. c #8E918C",
"#. c #959285",
"$. c #95928C",
"%. c #9A958B",
"&. c #9D998C",
"*. c #999686",
"=. c #8D8E92",
"-. c #928C92",
";. c #988D91",
":. c #8D9195",
">. c #8E939C",
",. c #879095",
"<. c #949393",
"1. c #9A9593",
"2. c #9D9A94",
"3. c #93949A",
"4. c #99959A",
"5. c #9C9C9C",
"6. c #959999",
"7. c #A19E8E",
"8. c #A19D94",
"9. c #A29E9B",
"0. c #A89F98",
"q. c #9EA09B",
"w. c #A5A194",
"e. c #A9A695",
"r. c #A5A29C",
"t. c #AAA59D",
"y. c #ACA99D",
"u. c #B3A69E",
"i. c #B1AB9D",
"p. c #B8AA9D",
"a. c #8D95A2",
"s. c #9495A3",
"d. c #959AA4",
"f. c #9C9CA4",
"g. c #9D9CAA",
"h. c #9899A6",
"j. c #A29EA3",
"k. c #A09DA9",
"l. c #9DA2A4",
"z. c #9DA3AC",
"x. c #9FA9AA",
"c. c #9EA5B1",
"v. c #A4A3A3",
"b. c #AAA6A2",
"n. c #ADAAA4",
"m. c #A3A4AA",
"M. c #A9A6AB",
"N. c #A4AAAD",
"B. c #ACACAB",
"V. c #A6ABA7",
"C. c #B2ADA5",
"Z. c #BAAEA3",
"A. c #B2AEAA",
"S. c #B6ABA7",
"D. c #AEB0AB",
"F. c #AFB2A7",
"G. c #B4B1A5",
"H. c #B9B4A5",
"J. c #B5B2AC",
"K. c #BAB4AD",
"L. c #BCB9AD",
"P. c #B9B8AA",
"I. c #A5A5B2",
"U. c #A3ABB4",
"Y. c #ACACB3",
"T. c #A9ACB8",
"R. c #B2AEB2",
"E. c #AEB1B3",
"W. c #ADB3BB",
"Q. c #B4B3B2",
"!. c #BAB6B2",
"~. c #BDBAB4",
"^. c #B5B5BA",
"/. c #BAB7BB",
"(. c #B6BABB",
"). c #BDBBBA",
"_. c #B7BAB2",
"`. c #C2B6AD",
"'. c #C1BCAD",
"]. c #C2B4A6",
"[. c #C2B7B1",
"{. c #C2BCB4",
"}. c #C2BDBA",
"|. c #C8BFBA",
" X c #BEC0BD",
".X c #BDC0B5",
"XX c #C3C1B3",
"oX c #C8C4B6",
"OX c #C5C2BC",
"+X c #C9C4BC",
"@X c #CDCABC",
"#X c #C7C9BB",
"$X c #D0CDBC",
"%X c #BBBDC2",
"&X c #B7B9C4",
"*X c #AFB5C1",
"=X c #C2BFC6",
"-X c #BDC0C3",
";X c #B9C0C8",
":X c #C4C3C3",
">X c #CAC6C3",
",X c #CDCAC4",
"<X c #C9C7C9",
"1X c #D3CCC5",
"2X c #D2CDCC",
"3X c #D5D2CC",
"4X c #DAD7C8",
"5X c #D4CDD0",
"6X c #DBD6D4",
"7X c #CBCED2",
"8X c #E2DFCE",
"9X c #E0DED4",
"0X c #E6E4D6",
/* pixels */
"L.L.#X:X<X:X:X:X:XOXOXK.~.|.}.5X<X_.OX.XP..X.XF.V.T.k.I.s.T.;.=X`.].=X`.;.h.] &X!.M.!.;.F _ W [ ' [ a.9 $.{.A.}.4.: 5 # -.|.`.`.",
"oXy.| 6.3.3.s.3.6.Y r..X!.~.;.m a c q._..X.X) M E E W _ _ _ u ] `.`.S.Q o 6 a R.R./.!.D u s.z.a.[ a.x.9 o.[.A.~.-.v =.E j.n.+.u.",
"F.| 2 D U E _ E { # T .Xb.}.;.6 v Z V.F.G..XV s k.>.s.k.g.] 5 0.`.u.S.] E -._ j.M.!.~.C t I.W.c.U.x.E.9 ] !.A.K.4.u l t ;.|.S.].",
".X&.= :.g.z.I.f.v., | OX9.!.;.u v F J.D.F.#XN s M.>.k.h.k.-.+ j.S.`.=XI 5 u m k.A.A.~.H l T.U.c.U.U.E.* R K.K.!.} s l s O.[.u.p.",
"J...+ 3.h.d.z.a.l.1 @.#XM.}.} d C D J.J.F.OXc s M.k.I.h.k.h.+ j.J.u.K.} ] k.3.Q.}.R.[.D a m.c.W.x.x.Y., T ~.~.!.} F [ E 8.J.0.p.",
"(.@.$ s.g.d.d.a.6.* ~ D.J.>X! F 3.4.^._.b._.b l k.s.k.s.g.4.& j.`.u.J.R X.m.4.B.!.!.|.Z y E.U.U.c.U.Y.5 ! [.!.~.<.[ @.} 9.[.].].",
"_. .> >.c.d.d.z.x.* @._.b.~.Y E f.f.n. X~.~.v a k.j.k.g.k.4.6 j.`.S.+X..v.-XY.Q.A.A.+XN s (.N.c.U.U.W.3 ] !.K./.<.q.-XQ.n.H.u.].",
"^.[ 3 >.I.h.a.d.6.$ q.OXB.}.} 4.=X^.v./.)._.v a M.h.k.I.k.] t k.[.S.}...Y.7X(.Q.~.b.{.m 0 E.x.T.U.c.U.3 ! !.A.}.q.V.(.B.b.`.Z.].",
"W._ > s.h.a.T.a.,.9 q..XD. X@.:.=XR.R.M.!.}.b v M.k.k.h.f.4.# n.|.S.{...^.-X(.B.~.K.OXG 4 Q.E.E.T.I.R.t Q K.S.!.9.<.-X_.D.F.i.Z.",
":X[ 5 z.c.a.d.f.l.: @.D..X X} r.=XR.R.}.OX!.z 4 R.g.k.T.j.X.# b.J.S.J.X.Y. X(.(.C.J.L.B 0 v.m.>.I.g.4.8 Q =X!.b.l.<.E.6.q.n.H.H.",
"B.U o  .s.h.>.s.[ 9 q..X~.Q.E 1.R.k.M.R.!.J.Y Z j.;.-.4.4.O.v r.K.+X}.5.E.W.Q._.>XS.K.%.! b.l.x.3.3.M.} j.K.S.>XB.B.%XE.B.!.oXZ.",
"J.V._ m.d.a.>.g.:.~ .XD.n.J.n.^.^.R.!.!.A.J.A.n./.R./.M.M.}.n.~.C.}.!.R.(. X^.(.!.0.K.|.~.).Q.%X7X^.}.Z.>X[.b.}.(.-X-X-X%X).{.L.",
"_._.D.E.%X&X&X=X:X X~.}.!.>X5X}./.}.>X}.~.{.OX}.}.[.=X=X/.OXOX{.}.K.Q.(.(. XB.E.L.`.+XH.C.}.D.q.4.B.).n.K.$X8.n.5.3.:.3.5.} / J.",
"XXJ._. X^.R.T.=X_. XD.>X<.9.b.;.j.4.9.! &.L.~.S.k.H D I 9.C.K.H.7.B /  . .[ [ | x G `.`.[.9.b 1   M J.OX`.u.8 x =. . .=.3.D 7 9.",
"e.P.OXV.y y u R Q.Q.9.9.8 Q ] 9.O.] ! q K H.J.!.9.u u i 2.C.H.H.( & ! 1.q.l.l.^.n n u.C.{.t.U } q.<.b.y.C.i.- $.B.T.W.W.:X..6 S.",
"w.C.b.r.s -.X.l.J.B.S.;.& M.j.k.M.v.v.a L K.S.[.;.C ] H r.b.r.C.%.@ 5.E.E.x.6.D.d n +XZ.~.b.b b a Y ~.[.`.K.. } E.^.W.z.&X-.+ R.",
"G.A.K.b.< x v -.:XQ./.1.+ 5.v.B.h.d.f.0 ~ .Xy._.b.u z b 9.!.L.Q.:.3 6.N.U.m.x.^.z z ).n.!.Q.H X.6.<.).~._.J., { E.%X*XT.&X .> E.",
"S.A.!.A.z ! } A.:XQ. X3.$ l.f.z.I.c.l.4 E .XF..X<.Z v.5.!.).~.:X .: d.m.x.V.f.m.l b :XQ.!.B.Y 5.l.f.D.Q.D.F.1 [ (.T.&XW.*X,.3 x.",
"b.C.!.n.N 1.9.A.Q.Q.-X$.# m.v.l.I.I.m.3 T .XF..Xb.R n.4.Y.~.J.J.@.$ m.Y.v.^.M.B.a z /.Q.!.B.} ).Q.Q.b.D.D.V.= [ -XN.&X*XW.6.y x.",
"n.A.!.r.S B.b.b.B.J. X| * B.B.N.z.m.m.3 ~ .XP._.<.} 2X!.J.Q.C.A.<.o f.V.f.D.v.A.c b J.A.!.B.;.2X5X/.V.Q.D.P.@ @.(.z.&XT.W.:.$ V.",
"C.H.~.r.T OX).J.Q.Q. X~ = v.V.V.Y.m.V.2 ~ .Xi.H.&.1.6X=XJ.~.J.{.6.$ r.E.B.B.9.!.g N Q.K.~.b.1.2X6XM.A.~.{._.X $.%X^.%X^.<X:.+ P.",
"K.J.XXe./ +XOXn.V.F._.T 1 V.J.Q.R.B.r.2 P .Xy..X9.;.>X!.b.~.H.L.o.= 4.J./.A.n.).0 c !._.~.9.%.1X5X9.J.J.H.t.X T R.^.R.M.%XX.= V.",
"J.H.~.q.~ _.K.q.F.b.L.~ i b.b.J.B.j.5.e ) XXi.XXo.1.6X2XS.!.y.{.( i O.8.S.9.0.j.x G L.J.[.C.9.|.).b.!.S.C.8.c Q ;.j.4.3.9...c q.",
"J.n.~.&.^ L._.b._.J.#X) p q.$.8.1.O.2.k &.$XH.XX!.1.R.S.n.@XH.H.t.! b.1.0.8.0.8.8.%.|.S.}.[.r.K.M.A.!.J.{.H.t.r.j.b.b.M.b._.i.P.",
"~.J..Xy.K.D.D.OX.X.XL._.K.!.J.b.!.J.S.K.L.L.oXH.!.}.R./._.~.@XC.K.`.[.|.[.[.[.{.!.S.K.}.+X+X[.+X}.~.Q.+X{.J.L.~.|.}.=X5X|.[.[.[.",
"_.b.:XJ..X.X_.J.,X_.OXJ.P.+XXX>X}.|.+X[.XXXXK.~.J.A.M.A.J.r.y.@X{.K.].0.0.S.b.`.|.[.{.;.) 0.;.1.4.<.1./ *.H.H.J.S.Q A Q +.[.S.0.",
".XT @...} } ....R Y P.P.K.S.B n x Y C.C.~.y.n J ..E ] ] } c k y.Z.K.{.G - 8 h u.K.L.}.A x 1.O.1.4.1.1.i T J.G.n.! a C n 1.{.[.K.",
"q., S q.6.( | <.g p A.J.J.K.h n H O.+XH.XXG.q T M.4.M.k.D.D 9 P.`.t.K.Q ( w.;.[.b.n.OXg f R.C.!.^.R.J.< ^ XXG.J.;.H k.] 0.L.C.`.",
"E.* U _.^.v.v.A.Z d !.A.J.~.n H K o.L.w.G.G.2 O.R.j.R.k./.Y 1 F.y.S.|.n q h A J.J.n.|.z g  XJ.-X&XR.}.< |  XP. X1.a m 5 ! !.K.Z.",
"-Xy { B.q.v.v.V.Z g }.Q.C.C.i m S | ~.J.#X~.1 | T.M.Y.k.(.R 9 .Xy.Z.|.Q +.1.$.S._.B.).v b /.B.Q.^.Y.^.4 | .XF.~.O.3.5X/.[.[.Z.L.",
"6.: X.E.B.^.B.n.D g ~.!.A.{.H 9.9.J.+XF.J.D.# [ ^.T.T.T.%X~ y .X|.{.S.G n.~.!.[.J.E./.b b /.^.(.*X^.E.s | _.J.Q.9.-.j.;.9.A.J.y.",
"Q.> _ V.l.v.j.).N g ).~.!.J.S 8.9.b.K.n.J.P.0 <.^.M.I.^.%XD 9 D.8.A.S.Q J.B.B.S.b.Q._.z g Q./.^./.(.B.s {  X~.A.<.R.5X<XS.C.H.K.",
"v.5 ..q.B.b.b.J.x n L.0.0.7.! [.>XJ.K.K.r.r.i ..B.B./.R.M.F i ^.b.+X2.%.#X3X~.K.J.!.B.u m :XA./.}.Y.A.s $.D.)._.%.{.9X3Xb.~.H.y.",
"q.+ ..q.b.t.5.).x q S.u.Z.u.Q 1X~.b.K.XX_.B.@ | !.n.b.!.>XY 7 !.b.H.y.^ OX1Xn.y.J.J.~.d m >XK.=XQ.}./.& ! }.!.).r.J.4X#Xw.~.H..X",
"B.+ <.D.D.J.2.J.B f `.t.0.8.Q $XOXn.b.b.C.n.. t.).~.M.!.>XZ & !.C.e.P./ @X6X~.K.b.r.A.d z /.!.:X^.|.!.6 ! }.b.J.r.n.6X6XG.{.w.r.",
"2.# / 5.5.V.r.n.7 n 1X{.[.S.) {.~.J.J.~.J.9.& ( b.b.b.b.M.Z a ).J.y.K.| J.#XD.b.).A.J.U Z 9.9.9.1.1.<.x ..A.n.~.r.b.P.XXr._.XXL.",
"6.S | <./ / 2.<.K o.~.K.`.y.0.K.y.J.J.OXJ.b.T 1.1.$.1.9.j.9.1.}.~.L.J.w.b.J._.C._.~.K.n.9.b.B.r.B.b.r.9.S.J._.}.t._.w.b.w.C.{.J.",
"~.n.V.~.K.A.Q.2.|.~.C.b.{.C.L.!.K.{.G.J.J.!.:XOX~.R././.A.~.|.!.~.~.J.~.G.J.OX_.J.).J.!.).J.~.{.!.}.:X+X).!.J.J.J.3Xn.~.#X~.J.K.",
"Q.K.K.Q.~._.{.}.!.!.!.C.}.!._.C.n.J.B.&.}.K.K.r.Q.S.0.M.R.!.!.A.t.$.n.J.t.2.9.2.1.t.~.A.A.b./ ..H $.J.n.B.K.J 1.| $.~ ^ $.| G n.",
"J._.J.! d i m Q.C.K.J.m n K Q / T K K p b.J.Q.:XH g , n n.R.R.~.J i &.8.J.b.C.J.2 S }.A.J.J.g c N | ).b.K.b.. U t.9.b.r.y.( = %.",
"K.J.J.m P o.o.J.J.A.).7 c 9.r.$.5.w.~ @ n.F.J.~.Y ! S.4./.n.R.{.S i _.>X3X3X2X3Xs J {.t.D.G.D 2.%.2._.K._.n.- $.)._.OX).}.n.& 2.",
"b.J.|.B q g H !.J.D._.q N b.D.b.t.t.( % n.J.K.~.S , 5 i b.!.Q.M.N 0 n.C.K.J.n.A.- F ~.K.K.r.q n g Y J.{.~.t.@ ( {.!.OX~.}.b.@ 2.",
"Z.H.{.h < n ! K.J.J.Q.0 S n.V.v.b.b.( % b.n.B.K.Y x H ! R.b.M.}.A u B.A.J.Q.J.!.p K _.b.G.G.L n.y.r.K.y.A.t.= | }.K.OX~.}.b.& 4.",
"J.J.K.f q $.S.S.Q.K.K.4 Z n.r.r.b.b.( @ b.B.V.K.H A ..1.|.B.n.!.N 7 n.A.K.Q.K.).2 H C.w.e.q.T G.~.y.C.b._.n.@ / OX!.}._.}.n.& 8.",
"u.S.`.n h 0.J.u.K.K.E.0 U Q.B.D.n.n.| = J.J.Q.~.H Y <.3.A.!.A.~.Z u A.!.!.!.A.J.0 ^ #X~.K.y.o.#XF.w.H.n.J.w.X | OX!.|.~.}.n.& 4.",
"u.0.J.P Q C.A.K.!._.J.9 R ).V.J.n.C.| = J.K.!.OX} A.2X!.M.A.R.:XC p /.~./.~.!.!.2 Y _.n.C.r.w.0X0XP.G.t.b.w.@ %.OX).:X}.:XM.& 2.",
"H.t.u.L 8.|.A.L.J._.n.2 Y Q.b.B.n.n.| % b.n.n.Q.} b.OXR.A./.A.R.x u !.^.~.{.~.~.2 T P.K.J.e.&.4X4Xy.r.t._.C.@ | OX}.>X|.>XM.# 1.",
"0.Z.H.G o.L.r.b.b.n.r., R _.B._.n.F.( % b.b.b.C.! n.>XA.b.A.A.OXZ d }.}.}.OX}.{.2 K t.t.y.w.2.6X4XJ.P.G.K.8.X o.OX}.>X+X>Xn.# 1.",
"`.C.y.P %.G.q.J.r._.r.& ! 5.C.t.r.0.G 7 C.!.{.[.} 1.J.A.!.|.S.:Xn d 8.t.w.y.t.H.7 } }.|.{.K.&.XX.Xe.L.K.S.M.i K t.o.) 7.7.o.i $.",
"y.P.y.#.2.y.e.K.t.J._.T ..2.1.$.$.8.$.! !.[.}.L.t.C.K.r.C.}.Q.|.B.1.r.C.7.7.w.%.1.K.R.R.~.i.8.G.w.e.C.C.n.}.9.t.w.7.7.e.i.i.O.!.",
"y.XXb.G.t.b.n.P.XXJ.n.K.b.OXK.J.S.J.[.J.C.A.K.J.A.[.!.b.~.|.A.}.{.~.n.{.y.H.oX+XK.}.R.A.}.K.L.H.P.H.H.OX~.J.!.A.C.oXoXoXH.H.C.A.",
"G.F.y.F.C.C.G.b.J.A.r.P.n._.v.J.b.K.J.!.C.C.1.J.r.r.r.0.A.8.8.[.!.~.C.w.*.*.&.w.b.S.!.O.O.%.*.#.&.7.%.O.v.b.S.B.e.) ^ ^ #.}.}.A.",
"B j ) L ( ^ ~ L i w.~.XX~.! q g m 8.b.!.[.o.8 S o./ ! Q ( p m C.S.b.b.j j j ^ L.A.b.=Xx x #.) &.) e.&.- K {.A.S.) V ^ L ( C.r.b.",
"k e y.#.2.@.&.( @ r.n.5.}.O.G 5.( |.J.0.b.K - b.b.b.b.b.y.q Z }.A.4.C.B 7.e.7.K.A.9.=X7 c {.C.XXH.XXL.X T OX8.b.7.P e.*.8.K.t.!.",
"w p G.F.y.r.J.%.. b.A.t.Q.J = q h 8.n.y.!.K % t.y.C.A.K.!.q n A.j.!.A.r f e G !.K.b.}.7 G {.C.L.L.y.P.; } A.1.C.^ r j r ^ C.S.B.",
"w j &.G.y.t.XX( . y.G.J.J.| S r.O.J.{.b.!.J < C.S.A.A.C.K.f A [.A.|.8.Q H.H.Z.S.K.K./.7 L ~.L.@XXXp.XX- J Q.{.!.*.e.'.i.H.r.C.b.",
"w w ) n.F.r.y.T @ 9.J.K.,X/ / b.b.!.C.S.A.L < C.n.S.K.A.K.u n ~.}.!.r.L H.i.H.H.j.J.K.7 C |.'.H.P.'.w.% Y S.9.b.) *.H.H.e.C.C.A.",
"9 w ) y.y.y.2.c @ r.G.n.Q.K L F } y.J.K.S.Y 7 K.S.n.C.0.A.f G |.b.A.r.) +X'.C.8.b.S.R.a A +X'.XXH.'.C.7 } K.9.b.) i.4X@Xe.e.b.A.",
"; j &.y.G.C.w.g % r.t.b.n.H K s T b.J.K.C.Y q K.~.A.A.8.S.u S !.C.!.b.#.8X$XL.C.!.A.}.u m +Xi.H.G.i.L.7 O.~.v.A.#.H.8X$XC.C.n.b.",
"2 V y.y.C.J.y.S = y.r.n.~.N B g G A.C.u.K.Y 0 K.!.n.!.C.{.f H }.S.!.9.o.4X4XH.G./.S./.7 m 1XK.'.XXG.[.- / /.S.K.*.H.8X$XH.K.A.9.",
"; P L.P.J.J.J.( = n.t.t.~.c q i p J.t.9.!.Q 7 !.OXA.}.!.K.q G [.b.!.r.8.4X$XH.y.v.b.R.7 N ,XXXoX].H.P.; ! ~.S.n.*.H.0X$Xt.y.n.A.",
"; G y.w.w.w.e./ ; n.F.5.Q.J g g 7 A.S.b.J.L p A.K.t.t.y.1.q S C.A.K.r.8.oXXXG.G.S.A.A.d S y.w.e.7.7.w.k } ~.A.b.*.e.XXH.w.C.A.A.",
"M L #.| %...#./ J t.K.r.K.$.| / Q K.C.J.S.O.Y t.%.$.o.1.8.Q 1.~.S.b.8.*.&.e.y.C.!.!.!.R o.8.) *.*.7.2.( r.!.C.J.e.*.w.e.y.K.A.b.",
".XP.G.e.G.n.K.G.).t.J.K._.b.K.Q.L.J.r.K.A.[.!.S.K.{.b.C.J.J.A.B.A.A.K.L.G.G.H.H.S.A./.S.}.C.y.L.H.L.C.K.).A.b.`.L.i.H.G.y.C.b.b."
};
